<svg width="1200" height="150" viewBox="0 0 1200 150" fill="none" xmlns="http://www.w3.org/2000/svg">
<path d="M123.907 0C90.8648 0 70.2117 16.5211 61.9523 49.5633C74.3437 33.0398 88.8 26.8453 105.321 30.9773C114.745 33.3328 121.484 40.1719 128.941 47.7422C141.089 60.0703 155.149 74.3437 185.859 74.3437C218.902 74.3437 239.552 57.8227 247.812 24.7805C235.423 41.3039 220.966 47.4984 204.445 43.3664C195.019 41.0109 188.283 34.1719 180.825 26.6016C168.675 14.2734 154.617 0 123.907 0ZM61.9523 74.3437C28.9125 74.3437 8.25937 90.8648 0 123.907C12.3914 107.384 26.8453 101.189 43.3664 105.321C52.793 107.677 59.5312 114.516 66.9867 122.084C79.1367 134.416 93.1969 148.685 123.907 148.685C156.947 148.685 177.598 132.166 185.859 99.1242C173.468 115.648 159.012 121.842 142.493 117.71C133.066 115.355 126.328 108.516 118.87 100.945C106.723 88.6172 92.6625 74.3437 61.9523 74.3437Z" fill="url(#paint0_linear_103_61)"/>
<path d="M371.7 62.6484H350.077V104.503C350.077 115.664 357.401 115.491 371.7 114.792V131.707C342.752 135.195 331.242 127.174 331.242 104.503V62.6508H315.199V44.5148H331.242V21.0914L350.077 15.5133V44.5148H371.7V62.6508V62.6484ZM454.13 44.5148H472.964V131.707H454.13V119.152C447.504 128.395 437.215 133.976 423.614 133.976C399.895 133.976 380.189 113.92 380.189 88.1109C380.189 62.1281 399.895 42.2484 423.612 42.2484C437.215 42.2484 447.504 47.8266 454.13 56.8969V44.5148ZM426.577 116.013C442.27 116.013 454.13 104.33 454.13 88.1109C454.13 71.8922 442.27 60.2086 426.577 60.2086C410.883 60.2086 399.023 71.8922 399.023 88.1109C399.023 104.33 410.883 116.013 426.577 116.013ZM504.354 31.4344C497.726 31.4344 492.321 25.8563 492.321 19.4039C492.327 16.2145 493.597 13.1575 495.852 10.9023C498.108 8.64702 501.164 7.37729 504.354 7.37109C507.543 7.37729 510.6 8.64702 512.856 10.9023C515.111 13.1575 516.381 16.2145 516.387 19.4039C516.387 25.8563 510.98 31.4344 504.354 31.4344ZM494.937 131.707V44.5148H513.769V131.707H494.937ZM535.568 131.707V4.40625H554.402V131.707H535.568ZM676.648 44.5148H696.527L669.148 131.707H650.662L632.527 72.9398L614.217 131.707H595.732L568.352 44.5148H588.232L605.149 104.679L623.459 44.5148H641.421L659.557 104.679L676.648 44.5148ZM719.895 31.4367C713.269 31.4367 707.862 25.8563 707.862 19.4039C707.868 16.2145 709.138 13.1575 711.393 10.9023C713.648 8.64702 716.705 7.37729 719.895 7.37109C723.084 7.37729 726.141 8.64702 728.396 10.9023C730.651 13.1575 731.921 16.2145 731.927 19.4039C731.927 25.8563 726.52 31.4344 719.895 31.4344V31.4367ZM710.477 131.707V44.5148H729.312V131.707H710.477ZM796.973 42.2461C816.504 42.2461 830.456 55.5 830.456 78.1711V131.707H811.622V80.0883C811.622 66.8367 803.948 59.8617 792.091 59.8617C779.709 59.8617 769.943 67.1836 769.943 84.9727V131.707H751.109V44.5148H769.943V55.6758C775.699 46.6055 785.114 42.2461 796.973 42.2461ZM919.741 9.6375H938.576V131.707H919.741V119.152C913.116 128.395 902.827 133.976 889.226 133.976C865.507 133.976 845.801 113.92 845.801 88.1109C845.801 62.1281 865.507 42.2484 889.223 42.2484C902.827 42.2484 913.116 47.8266 919.741 56.8969V9.6375ZM892.188 116.013C907.882 116.013 919.741 104.33 919.741 88.1109C919.741 71.8922 907.882 60.2086 892.188 60.2086C876.495 60.2086 864.635 71.8922 864.635 88.1109C864.635 104.33 876.495 116.013 892.188 116.013ZM1001.7 133.976C975.37 133.976 955.664 113.92 955.664 88.1109C955.664 62.1281 975.37 42.2484 1001.7 42.2484C1018.79 42.2484 1033.61 51.1406 1040.59 64.7438L1024.37 74.1609C1020.54 65.9648 1011.99 60.7313 1001.53 60.7313C986.182 60.7313 974.498 72.4172 974.498 88.1109C974.498 103.805 986.182 115.491 1001.53 115.491C1011.99 115.491 1020.54 110.084 1024.72 102.061L1040.94 111.305C1033.61 125.081 1018.79 133.976 1001.7 133.976ZM1071.98 68.5805C1071.98 84.4477 1118.89 74.857 1118.89 107.119C1118.89 124.556 1103.72 133.976 1084.88 133.976C1067.45 133.976 1054.89 126.127 1049.31 113.571L1065.53 104.154C1068.32 112.003 1075.29 116.709 1084.88 116.709C1093.26 116.709 1099.71 113.92 1099.71 106.945C1099.71 91.425 1052.8 100.144 1052.8 68.9297C1052.8 52.5352 1066.92 42.2484 1084.71 42.2484C1099.01 42.2484 1110.87 48.8742 1116.97 60.3844L1101.11 69.2766C1097.96 62.4773 1091.86 59.3391 1084.71 59.3391C1077.91 59.3391 1071.98 62.3016 1071.98 68.5805ZM1152.37 68.5805C1152.37 84.4477 1199.28 74.857 1199.28 107.119C1199.28 124.556 1184.11 133.976 1165.28 133.976C1147.84 133.976 1135.28 126.127 1129.7 113.571L1145.92 104.154C1148.71 112.003 1155.69 116.709 1165.28 116.709C1173.65 116.709 1180.1 113.92 1180.1 106.945C1180.1 91.425 1133.19 100.144 1133.19 68.9297C1133.19 52.5352 1147.31 42.2484 1165.1 42.2484C1179.4 42.2484 1191.26 48.8742 1197.37 60.3844L1181.5 69.2766C1178.36 62.4773 1172.25 59.3391 1165.1 59.3391C1158.3 59.3391 1152.37 62.3016 1152.37 68.5805Z" fill="#2D3748"/>
<defs>
<linearGradient id="paint0_linear_103_61" x1="-688.421" y1="4757.92" x2="20714" y2="17098.4" gradientUnits="userSpaceOnUse">
<stop stop-color="#2298BD"/>
<stop offset="1" stop-color="#0ED7B5"/>
</linearGradient>
</defs>
</svg>
