<svg width="451" height="190" viewBox="0 0 451 190" fill="none" xmlns="http://www.w3.org/2000/svg">
<path d="M269.139 65.4693C259.292 65.4693 251.96 70.3037 251.96 81.9395C251.96 90.7059 256.792 96.7929 268.607 96.7929C278.623 96.7929 285.426 90.8906 285.426 81.5753C285.426 71.0198 279.339 65.4693 269.139 65.4693ZM249.453 147.628C247.122 150.487 244.799 153.527 244.799 157.111C244.799 164.266 253.923 166.419 266.456 166.419C276.836 166.419 290.976 165.691 290.976 156.039C290.976 150.303 284.173 149.949 275.578 149.411L249.453 147.628ZM302.429 66.0094C305.645 70.1261 309.051 75.856 309.051 84.0875C309.051 103.953 293.48 115.585 270.933 115.585C265.2 115.585 260.01 114.871 256.792 113.977L250.883 123.46L268.421 124.533C299.387 126.507 317.636 127.404 317.636 151.198C317.636 171.785 299.565 183.412 268.421 183.412C236.028 183.412 223.678 175.178 223.678 161.041C223.678 152.987 227.258 148.7 233.523 142.783C227.615 140.287 225.648 135.815 225.648 130.979C225.648 127.038 227.615 123.462 230.841 120.057C234.061 116.662 237.639 113.258 241.935 109.321C233.167 105.024 226.542 95.718 226.542 82.4708C226.542 61.8927 240.146 47.7588 267.524 47.7588C275.222 47.7588 279.877 48.4661 283.994 49.548H318.898V64.755L302.429 66.0094ZM350.385 33.486C340.181 33.486 334.275 27.5749 334.275 17.3694C334.275 7.178 340.179 1.62402 350.385 1.62402C360.764 1.62402 366.672 7.178 366.672 17.3694C366.672 27.5749 360.766 33.486 350.385 33.486ZM327.293 141.042V126.91L336.423 125.661C338.93 125.3 339.286 124.765 339.286 122.075V69.4558C339.286 67.4924 338.751 66.2328 336.955 65.7015L327.293 62.2974L329.26 47.8046H366.311V122.075C366.311 124.943 366.484 125.3 369.177 125.662L378.304 126.911V141.042H327.293ZM449.081 134.103C441.383 137.859 430.107 141.26 419.902 141.26C398.604 141.26 390.554 132.678 390.554 112.443V65.5573C390.554 64.4841 390.554 63.7681 389.117 63.7681H376.591V47.8345C392.345 46.04 398.604 38.1656 400.573 18.6572H417.578V44.0785C417.578 45.3275 417.578 45.8676 419.012 45.8676H444.245V63.7646H417.578V106.537C417.578 117.097 420.087 121.21 429.747 121.21C434.764 121.21 439.949 119.961 444.243 118.349L449.081 134.103Z" fill="#2F2707"/>
<path d="M183.894 87.136L102.06 5.30759C100.939 4.18653 99.6088 3.29723 98.1443 2.6905C96.6798 2.08377 95.1102 1.77148 93.525 1.77148C91.9398 1.77148 90.3702 2.08377 88.9057 2.6905C87.4413 3.29723 86.1107 4.18653 84.99 5.30759L67.9973 22.302L89.5535 43.8565C92.0873 42.9948 94.8118 42.8599 97.4183 43.4671C100.025 44.0744 102.409 45.3995 104.301 47.2923C106.204 49.1971 107.532 51.5985 108.134 54.2222C108.736 56.846 108.588 59.5862 107.707 62.1299L128.479 82.905C133.505 81.1739 139.305 82.2945 143.318 86.3144C144.652 87.6477 145.711 89.2309 146.433 90.9734C147.155 92.7159 147.527 94.5836 147.527 96.4698C147.527 98.3559 147.155 100.224 146.433 101.966C145.711 103.709 144.652 105.292 143.318 106.625C140.971 108.975 137.882 110.438 134.577 110.766C131.272 111.094 127.956 110.267 125.192 108.425C122.429 106.584 120.389 103.841 119.42 100.664C118.451 97.4878 118.613 94.0736 119.878 91.0029L100.505 71.6299L100.503 122.613C101.908 123.308 103.19 124.225 104.301 125.33C105.635 126.663 106.694 128.247 107.416 129.989C108.138 131.732 108.509 133.6 108.509 135.487C108.509 137.373 108.138 139.241 107.416 140.984C106.694 142.726 105.635 144.31 104.301 145.644C98.6893 151.256 89.5939 151.256 83.9907 145.644C82.3167 143.971 81.082 141.91 80.3964 139.645C79.7107 137.38 79.5953 134.981 80.0605 132.661C80.5257 130.341 81.557 128.171 83.0627 126.345C84.5685 124.52 86.502 123.095 88.6914 122.196V70.738C86.9302 70.0187 85.3316 68.9526 83.9907 67.603C79.7403 63.3579 78.7182 57.1213 80.8962 51.9016L59.6478 30.6497L3.53802 86.756C2.4168 87.8772 1.52739 89.2082 0.920588 90.6731C0.313784 92.138 0.00146484 93.7081 0.00146484 95.2937C0.00146484 96.8793 0.313784 98.4494 0.920588 99.9143C1.52739 101.379 2.4168 102.71 3.53802 103.831L85.3717 185.662C87.6356 187.925 90.7056 189.196 93.9068 189.196C97.1079 189.196 100.178 187.925 102.442 185.662L183.894 104.213C186.157 101.948 187.429 98.8769 187.429 95.6746C187.429 92.4723 186.157 89.4011 183.894 87.136Z" fill="#DE4C36"/>
</svg>
