<svg width="190" height="80" viewBox="0 0 190 80" fill="none" xmlns="http://www.w3.org/2000/svg">
<g clip-path="url(#clip0_103_51)">
<path d="M113.322 27.5658C109.176 27.5658 106.088 29.6014 106.088 34.5006C106.088 38.1917 108.123 40.7547 113.098 40.7547C117.315 40.7547 120.179 38.2695 120.179 34.3473C120.179 29.9029 117.616 27.5658 113.322 27.5658ZM105.033 62.1592C104.051 63.3629 103.074 64.6429 103.074 66.1517C103.074 69.1643 106.915 70.071 112.192 70.071C116.562 70.071 122.516 69.7643 122.516 65.7006C122.516 63.2851 119.652 63.1362 116.033 62.9095L105.033 62.1592ZM127.339 27.7932C128.693 29.5266 130.127 31.9391 130.127 35.4051C130.127 43.7695 123.571 48.6673 114.077 48.6673C111.663 48.6673 109.478 48.3666 108.123 47.9903L105.635 51.9829L113.019 52.4347C126.058 53.2658 133.742 53.6436 133.742 63.6621C133.742 72.3303 126.133 77.2258 113.019 77.2258C99.3802 77.2258 94.1802 73.7592 94.1802 67.8066C94.1802 64.4154 95.6876 62.6103 98.3254 60.1192C95.838 59.068 95.0098 57.1851 95.0098 55.1488C95.0098 53.4895 95.838 51.9836 97.1965 50.5503C98.552 49.1206 100.059 47.6873 101.868 46.0295C98.1757 44.2206 95.3861 40.3021 95.3861 34.7243C95.3861 26.0599 101.114 20.1088 112.642 20.1088C115.883 20.1088 117.843 20.4066 119.576 20.8621H134.273V27.2651L127.339 27.7932ZM147.531 14.0991C143.234 14.0991 140.748 11.6103 140.748 7.31322C140.748 3.02211 143.234 0.683594 147.531 0.683594C151.901 0.683594 154.388 3.02211 154.388 7.31322C154.388 11.6103 151.902 14.0991 147.531 14.0991ZM137.808 59.3858V53.4354L141.652 52.9095C142.708 52.7577 142.857 52.5325 142.857 51.3999V29.2443C142.857 28.4177 142.632 27.8873 141.876 27.6636L137.808 26.2303L138.636 20.128H154.236V51.3999C154.236 52.6073 154.309 52.7577 155.443 52.9103L159.286 53.4362V59.3858H137.808ZM189.087 56.4643C185.845 58.0458 181.098 59.4777 176.801 59.4777C167.833 59.4777 164.444 55.8643 164.444 47.3443V27.6029C164.444 27.151 164.444 26.8495 163.839 26.8495H158.565V20.1406C165.198 19.3851 167.833 16.0695 168.662 7.85544H175.822V18.5591C175.822 19.0851 175.822 19.3125 176.426 19.3125H187.051V26.848H175.822V44.8577C175.822 49.3036 176.879 51.0354 180.946 51.0354C183.059 51.0354 185.242 50.5095 187.05 49.831L189.087 56.4643Z" fill="#2F2707"/>
<path d="M77.4288 36.6888L42.9725 2.23473C42.5006 1.76271 41.9404 1.38827 41.3238 1.1328C40.7072 0.877338 40.0463 0.74585 39.3788 0.74585C38.7114 0.74585 38.0505 0.877338 37.4339 1.1328C36.8172 1.38827 36.257 1.76271 35.7851 2.23473L28.6303 9.39029L37.7066 18.4658C38.7735 18.103 39.9206 18.0462 41.0181 18.3019C42.1156 18.5576 43.1196 19.1155 43.9162 19.9125C44.7172 20.7145 45.2764 21.7256 45.53 22.8304C45.7836 23.9351 45.7213 25.0889 45.3503 26.1599L54.0962 34.9073C56.2125 34.1784 58.6547 34.6503 60.3444 36.3429C60.9061 36.9043 61.3517 37.5709 61.6558 38.3045C61.9598 39.0382 62.1163 39.8246 62.1163 40.6188C62.1163 41.413 61.9598 42.1994 61.6558 42.9331C61.3517 43.6667 60.9061 44.3333 60.3444 44.8947C59.3561 45.884 58.0554 46.5002 56.6639 46.6384C55.2724 46.7766 53.876 46.4283 52.7124 45.6528C51.5488 44.8773 50.6899 43.7225 50.2819 42.385C49.8739 41.0475 49.9421 39.6099 50.4747 38.317L42.3177 30.1599L42.317 51.6266C42.9083 51.919 43.4484 52.3052 43.9162 52.7703C44.4779 53.3319 44.9235 53.9986 45.2275 54.7324C45.5315 55.4662 45.688 56.2527 45.688 57.0469C45.688 57.8412 45.5315 58.6277 45.2275 59.3615C44.9235 60.0953 44.4779 60.762 43.9162 61.3236C41.5533 63.6866 37.7236 63.6866 35.3644 61.3236C34.6595 60.6193 34.1397 59.7517 33.851 58.7981C33.5623 57.8444 33.5137 56.8341 33.7096 55.8572C33.9054 54.8802 34.3397 53.9667 34.9737 53.198C35.6077 52.4293 36.4218 51.8292 37.3436 51.451V29.7844C36.6021 29.4815 35.9289 29.0326 35.3644 28.4644C33.5747 26.677 33.1444 24.051 34.0614 21.8533L25.1147 12.9051L1.48956 36.5288C1.01747 37.0009 0.642984 37.5613 0.387487 38.1781C0.131991 38.7949 0.000488281 39.456 0.000488281 40.1236C0.000488281 40.7912 0.131991 41.4523 0.387487 42.0691C0.642984 42.6859 1.01747 43.2464 1.48956 43.7184L35.9459 78.1732C36.8991 79.1262 38.1917 79.6615 39.5396 79.6615C40.8874 79.6615 42.1801 79.1262 43.1333 78.1732L77.4288 43.8792C78.3819 42.9255 78.9173 41.6323 78.9173 40.284C78.9173 38.9357 78.3819 37.6425 77.4288 36.6888Z" fill="#DE4C36"/>
</g>
<defs>
<clipPath id="clip0_103_51">
<rect width="189.63" height="80" fill="white"/>
</clipPath>
</defs>
</svg>
