<svg width="947" height="170" viewBox="0 0 947 170" fill="none" xmlns="http://www.w3.org/2000/svg">
<g clip-path="url(#clip0_103_64)">
<path d="M792.699 129.699L767.328 82.5609L751.357 101.882V129.701H737.962V39.5435H751.357V83.2039L786.132 39.5435H801.587L776.345 71.2263L808.414 129.699H792.699ZM837.388 129.699V39.5435H850.781V129.699H837.388ZM920.587 52.4265V129.703H907.192V52.4228H881.692V39.5435H946.087V52.4228H920.587V52.4265Z" fill="#8D8D93"/>
<path d="M225.812 131.246C218.468 131.43 211.24 129.387 205.079 125.386C199.322 121.589 195.046 115.927 192.97 109.351L205.591 104.714C207.342 108.751 210.2 112.21 213.836 114.689C217.526 117.162 221.886 118.443 226.327 118.361C230.598 118.583 234.812 117.307 238.242 114.754C239.733 113.501 240.911 111.917 241.683 110.129C242.454 108.34 242.797 106.396 242.684 104.452C242.702 102.64 242.282 100.85 241.461 99.2338C240.746 97.789 239.812 96.4637 238.691 95.3053C237.275 94.0149 235.668 92.9504 233.927 92.1492C231.778 91.0775 229.997 90.2626 228.582 89.7027C226.516 88.9065 224.434 88.1548 222.336 87.4484C218.899 86.2473 216.325 85.3031 214.608 84.6157C212.282 83.6262 210.023 82.4861 207.845 81.2027C205.502 79.9589 203.372 78.3496 201.535 76.4353C199.946 74.5683 198.664 72.46 197.738 70.1897C195.957 65.8611 195.583 61.0824 196.668 56.5295C197.752 51.9766 200.241 47.8799 203.782 44.819C208.934 40.2697 215.931 37.9932 224.773 37.9932C232.159 37.9932 238.233 39.6248 242.998 42.8862C247.625 45.9617 251.021 50.5668 252.594 55.8949L240.23 60.0156C238.988 57.2254 236.891 54.9027 234.241 53.3837C231.037 51.6054 227.408 50.7364 223.746 50.8707C220.153 50.6648 216.595 51.6622 213.633 53.7052C212.424 54.643 211.459 55.8587 210.82 57.2491C210.182 58.6395 209.888 60.1634 209.965 61.6915C209.975 62.863 210.233 64.019 210.721 65.084C211.208 66.1491 211.916 67.0993 212.796 67.8725C214.507 69.5574 216.517 70.9107 218.722 71.8638C220.784 72.7231 223.919 73.8816 228.125 75.3414C230.697 76.2875 232.608 76.9952 233.853 77.4664C235.101 77.9376 236.924 78.7303 239.328 79.8483C241.255 80.7004 243.108 81.7116 244.866 82.8713C246.441 84.0033 247.947 85.2287 249.375 86.5411C250.927 87.89 252.254 89.4754 253.304 91.242C254.303 93.0748 255.081 95.0201 255.621 97.0368C256.279 99.4071 256.605 101.857 256.589 104.317C256.589 112.73 253.712 119.322 247.958 124.083C242.206 128.847 234.823 131.234 225.812 131.246ZM308.367 129.701L277.457 39.5435H291.883L312.36 102.394C313.491 105.775 314.437 109.215 315.193 112.699C315.947 109.214 316.893 105.773 318.027 102.394L338.246 39.5435H352.543L321.76 129.699L308.367 129.701ZM379.845 129.701V39.5435H435.741V52.1641H393.241V76.8936H420.672V89.5143H393.239V117.078H438.58V129.703L379.845 129.701ZM472.702 129.701V39.5435H486.098V116.82H530.145V129.699L472.702 129.701ZM580.627 52.4247V129.701H567.233V52.4228H541.733V39.5435H606.129V52.4228H580.629L580.627 52.4247ZM633.813 129.701V39.5435H689.71V52.1641H647.214V76.8936H674.645V89.5143H647.214V117.078H692.554V129.703L633.813 129.701Z" fill="#4A4A55"/>
<path d="M131.872 22.3995C116.154 -0.097814 85.1107 -6.77031 62.6652 7.53371L23.2455 32.6586C17.9199 36.0089 13.3521 40.4336 9.83397 45.6498C6.31586 50.866 3.92495 56.759 2.8141 62.9519C0.933119 73.3822 2.58476 84.1419 7.50757 93.5278C4.13324 98.6464 1.83248 104.396 0.744531 110.43C-0.378565 116.747 -0.228925 123.225 1.18468 129.483C2.59828 135.742 5.24737 141.655 8.9766 146.876C24.6942 169.376 55.7414 176.046 78.1832 161.74L117.603 136.615C122.929 133.266 127.497 128.841 131.015 123.625C134.534 118.41 136.925 112.517 138.036 106.324C139.916 95.8931 138.264 85.1332 133.343 75.7462C136.716 70.6278 139.016 64.8785 140.104 58.846C141.228 52.5287 141.078 46.0507 139.664 39.792C138.25 33.5333 135.602 27.6201 131.872 22.3995Z" fill="#FF3E00"/>
<path d="M58.8142 148.994C52.6104 150.607 46.0609 150.277 40.0504 148.049C34.0399 145.822 28.8579 141.803 25.2041 136.536C22.9615 133.397 21.3683 129.841 20.5179 126.078C19.6675 122.315 19.5771 118.419 20.252 114.621C20.4811 113.375 20.7952 112.145 21.1943 110.942L21.9353 108.674L23.9568 110.156C28.6193 113.585 33.8331 116.192 39.3733 117.866L40.8367 118.309L40.7018 119.772C40.5221 121.853 41.0851 123.929 42.291 125.634C43.3913 127.221 44.9524 128.433 46.7634 129.104C48.5743 129.776 50.5478 129.875 52.4171 129.389C53.2731 129.162 54.0894 128.805 54.8377 128.332L94.2592 103.199C95.2238 102.592 96.0512 101.79 96.6888 100.845C97.3263 99.9004 97.76 98.8331 97.9623 97.7113C98.1645 96.5662 98.1366 95.3923 97.8802 94.2581C97.6239 93.1239 97.1442 92.0522 96.4692 91.1053C95.3689 89.5178 93.8079 88.3062 91.9971 87.6341C90.1862 86.962 88.2128 86.8617 86.3431 87.3468C85.487 87.5735 84.6707 87.9299 83.9225 88.4038L68.8812 97.994C66.4057 99.5667 63.7044 100.752 60.8709 101.509C54.6673 103.121 48.1182 102.791 42.1081 100.563C36.0979 98.3356 30.9162 94.3171 27.2626 89.0505C25.0196 85.9113 23.4262 82.3558 22.5758 78.5925C21.7254 74.8292 21.6352 70.934 22.3104 67.1353C22.9807 63.4113 24.4208 59.8681 26.5386 56.7325C28.6564 53.5968 31.4053 50.9376 34.6096 48.925L74.0274 23.8001C76.5021 22.2247 79.2036 21.0376 82.0377 20.28C88.2413 18.6671 94.7904 18.9969 100.801 21.2248C106.811 23.4526 111.993 27.4713 115.646 32.738C117.889 35.8774 119.482 39.433 120.332 43.1962C121.183 46.9595 121.273 50.8546 120.598 54.6533C120.367 55.9015 120.051 57.1326 119.652 58.3378L118.907 60.6088L116.888 59.1305C112.226 55.7017 107.013 53.0945 101.473 51.4214L100.006 50.9779L100.143 49.5145C100.32 47.4344 99.7577 45.3585 98.5536 43.6531C97.4538 42.0671 95.8939 40.8567 94.0844 40.1853C92.275 39.5138 90.3031 39.4137 88.4349 39.8984C87.5788 40.1251 86.7625 40.4815 86.0142 40.9553L46.5927 66.0765C45.6282 66.6838 44.8009 67.4855 44.1636 68.4304C43.5264 69.3753 43.0931 70.4428 42.8915 71.5646C42.6885 72.7094 42.7156 73.8832 42.9713 75.0174C43.2271 76.1517 43.7062 77.2236 44.3809 78.1705C45.4814 79.7578 47.0424 80.9693 48.8532 81.6414C50.6639 82.3135 52.6373 82.4139 54.5069 81.929C55.3628 81.7016 56.179 81.3452 56.9276 80.8721L71.9671 71.2855C74.4415 69.7101 77.1431 68.5235 79.9774 67.7673C86.1792 66.155 92.7263 66.4843 98.735 68.7108C104.744 70.9373 109.925 74.9537 113.578 80.2179C115.821 83.3571 117.415 86.9127 118.265 90.676C119.115 94.4393 119.206 98.3345 118.53 102.133C117.862 105.858 116.424 109.402 114.308 112.539C112.192 115.676 109.445 118.337 106.242 120.353L66.8227 145.472C64.3487 147.048 61.6478 148.235 58.8142 148.992" fill="white"/>
</g>
<defs>
<clipPath id="clip0_103_64">
<rect width="946.087" height="170" fill="white"/>
</clipPath>
</defs>
</svg>
