<svg width="248" height="236" viewBox="0 0 248 236" fill="none" xmlns="http://www.w3.org/2000/svg">
<path d="M24.7798 24.7798H223.406V208.904H24.7798V24.7798Z" fill="#0C0824"/>
<path d="M24.3716 26.1954H222.998V207.941H24.3716V26.1954ZM15.3403 216.437H232.03V17.7H15.3403V216.437ZM161.428 99.233C154.292 99.233 151.855 102.633 151.855 105.435C151.855 108.493 153.48 110.619 163.053 115.285C177.23 121.742 181.626 127.937 181.626 137.029C181.626 150.621 170.614 157.922 155.716 157.922C149.323 158.145 142.968 156.896 137.205 154.282C136.57 154.028 136.485 153.605 136.485 152.921V140.422C136.485 139.57 136.934 139.315 137.569 139.745C142.981 143.019 149.281 144.757 155.716 144.753C162.851 144.753 165.831 141.951 165.831 138.129C165.831 135.071 163.757 132.356 154.633 127.937C141.809 122.164 136.485 116.289 136.485 106.535C136.485 95.5786 145.601 86.4935 161.404 86.4935C166.905 86.2713 172.398 87.0805 177.563 88.8739C177.861 89.0556 178.101 89.3084 178.26 89.6065C178.42 89.9046 178.491 90.2372 178.469 90.5701V102.218C178.469 102.895 178.02 103.324 177.114 103.069C172.341 100.484 166.912 99.1637 161.404 99.2476L161.428 99.233ZM83.7754 109.337C85.8494 109.505 87.4746 109.505 91.0887 109.505C101.652 109.505 111.581 106.025 111.581 92.5211C111.581 81.7325 104.446 76.3018 92.443 76.3018C88.8289 76.3018 85.4006 76.4693 83.7754 76.5566V109.337ZM67.7017 64.2029C67.7017 63.606 68.9632 63.1837 69.6906 63.1837C77.4512 62.8854 85.2177 62.7447 92.9847 62.7615C117.997 62.7615 127.748 75.6685 127.748 92.1498C127.748 113.72 111.132 122.98 90.7327 122.98C87.3044 122.98 86.128 122.812 83.6903 122.812V155.425C83.6903 156.102 83.4194 156.444 82.6068 156.444H68.7929C68.0732 156.444 67.7095 156.19 67.7095 155.425V64.2393L67.7017 64.2029Z" fill="#31C5F0"/>
</svg>
