<svg width="200" height="200" viewBox="0 0 200 200" fill="none" xmlns="http://www.w3.org/2000/svg">
<g clip-path="url(#clip0_136_7)">
<rect width="200" height="200" fill=""/>
<path d="M106 39.5001C101.667 36.8334 79.4 39.9001 25 73.5001L15 98.5L30 140.5L159.5 163L187 98.5L106 39.5001Z" fill="white" stroke="black"/>
<path d="M100 0C44.775 0 0 44.775 0 100C0 155.225 44.775 200 100 200C155.225 200 200 155.225 200 100C200 44.775 155.225 0 100 0ZM58.0167 64C64.3 64 69.1583 68.575 69.725 74C70.3 78.8583 68.3 83.1417 62.875 85.7167C60.0167 87.1417 58.875 87.15 58.3 86.2917C58.0167 85.7167 58.3 85.15 58.875 84.575C64.0167 80.2917 64.0167 76.8583 63.4417 72.0083C63.1583 68.8583 60.875 66.8583 58.5833 66.8583C48.5833 66.8583 34.3 89.1417 36.3 105.433C37.1583 111.717 40.875 119.15 48.875 119.15C51.4417 119.15 54.2917 118.292 56.875 117.15C61.0417 114.95 63.5333 113.233 66.0167 110.483C65.4083 103.108 71.8833 93.4333 81.4417 93.4333C85.7333 93.4333 89.1583 95.1417 89.4417 98.2917C90.0083 102.575 86.3 103.142 85.1583 103.142C84.0167 103.142 82.0083 102.858 82.0083 101.725C81.725 100.575 84.5833 101.142 84.3 98.575C84.0083 96.8583 82.3 96.2917 80.5833 96.2917C74.5833 96.2917 71.1583 104.575 72.0083 109.717C72.3 112.008 73.4417 114.292 75.7333 114.292C77.4417 114.292 80.0167 111.708 80.875 108C81.4417 105.433 83.7333 103.717 85.7333 103.717C86.5833 103.717 87.15 104 87.4417 105.142V106.292C87.1583 107.433 86.3 110.858 86.5917 111.717C86.5917 112.292 86.875 113.142 88.0083 113.142C88.775 113.142 91.6417 111.642 94.4833 109.317C95.4583 104.4 96.5917 98.5 96.5917 98.0083C96.875 96.0083 97.7333 94.0083 101.733 94.0083C102.592 94.0083 103.158 94.2917 103.442 95.4333V96.5833L102.308 101.725C106.017 96.8667 111.45 93.4417 114.875 93.4417C116.308 93.4417 117.45 94.2917 117.45 95.725C117.45 96.5833 117.45 98.0083 116.875 99.4417C115.733 102.583 114.3 107.442 113.442 111.725C113.442 112.867 113.733 114.008 115.167 114.008C116.592 114.008 120.875 112.292 124.3 107.725L124.358 107.692C124.342 107.125 124.3 106.575 124.3 106.008C124.3 102.583 124.592 99.725 125.167 97.725C125.733 95.4417 128.592 93.4417 130.308 93.4417C131.167 93.4417 132.017 94.0167 132.017 94.8667C132.017 95.1583 132.017 95.725 131.733 96.0083C130.592 99.725 129.733 103.15 129.733 106.583C129.733 108.583 130.017 111.433 130.583 113.15C130.583 113.433 130.875 113.725 131.167 113.725C131.733 113.725 135.733 110.017 138.583 105.158C136.017 103.442 134.583 100.583 134.583 97.1583C134.583 91.1583 138.3 88.0167 141.733 88.0167C144.592 88.0167 146.875 90.0167 146.875 94.0167C146.875 96.5833 146.017 99.4333 144.592 102.017H145.442C146.348 102.046 147.251 101.883 148.089 101.538C148.928 101.194 149.685 100.675 150.308 100.017C150.571 99.5838 150.961 99.2431 151.425 99.0417C154.217 95.5 158.342 92.875 163.175 92.875C167.175 92.875 170.875 94.5833 171.167 97.725C171.733 102.017 168.017 102.875 166.875 102.875L166.858 102.858C165.708 102.858 163.717 102.567 163.717 101.425C163.717 100.283 166.292 100.858 166 98.2917C165.717 96.575 164 96 162.283 96C156.567 96 152.867 103.425 153.717 109.425C154 111.717 155.142 114.283 157.425 114.283C159.142 114.283 161.717 111.717 162.858 108C163.425 105.717 165.717 103.717 167.717 103.717C168.575 103.717 169.133 104 169.425 105.142C169.425 105.717 169.425 106.858 168.283 110.575C166.867 113.142 166.858 114.575 167.142 115.717C167.425 118 168.567 119.717 169.717 120.575C170 120.858 170.283 121.425 170.283 121.425C170.283 122 170 122.575 169.142 122.575C168.858 122.575 168.575 122.575 168.283 122.283C164 120.575 162.283 117.717 161.708 114.858C160 116.858 158 118 155.708 118C152 118 148.292 114.575 147.708 110.283C147.545 108.457 147.757 106.616 148.333 104.875C146.642 105.958 144.817 106.567 143.142 106.567H141.725C138 112 134 115.717 131.142 117.425C130.171 117.942 129.098 118.238 128 118.292C127.433 118.292 126.575 118 126.292 117.425C125.5 116.158 124.992 114.158 124.683 111.867C120.675 116.258 115.142 118.575 112.575 118.575C109.717 118.575 108.008 116.858 107.725 113.992V110.858C108.575 104.575 110.867 100.858 110.867 99.7167C110.859 99.5659 110.796 99.4233 110.69 99.3157C110.584 99.2082 110.442 99.1433 110.292 99.1333C108.292 99.1333 101.725 106 100.575 110.575L99.7167 114.283C99.15 116.858 96.575 118.575 94.8667 118.575C94.0083 118.575 93.4333 118.283 93.15 117.142V116L93.5333 114.058C89.9083 116.642 86.2833 118.292 84.575 118.292C82.0083 118.292 80.575 116.858 80.2917 114.858C78.575 117.142 76.5833 118.292 74.0083 118.292C71.075 118.292 68.2083 116.292 66.825 113.35C64.7917 115.642 62.4667 117.958 59.725 119.717C55.725 122.292 51.1583 124.292 45.725 124.292C40.875 124.292 36.5833 121.717 34.3 119.433C30.8667 116.292 28.875 111.433 28.5833 106.858C26.875 92.8583 35.4417 74.8583 48.5833 66.8583C51.7333 65.15 54.875 64 58.0167 64ZM139.433 91.425C138.567 91.425 138 92.8583 138 94.2833C138 96.5667 139.142 99.1417 140.575 100.575C141.134 99.016 141.421 97.3728 141.425 95.7167C141.425 92.8583 140.292 91.425 139.433 91.425Z" fill="#22BEC7"/>
</g>
<defs>
<clipPath id="clip0_136_7">
<rect width="200" height="200" fill="white"/>
</clipPath>
</defs>
</svg>
