<svg width="768" height="150" viewBox="0 0 768 150" fill="none" xmlns="http://www.w3.org/2000/svg">
<g clip-path="url(#clip0_103_48)">
<path d="M155.107 149.084H257.888C261.153 149.084 264.358 148.396 267.188 147.088C269.996 145.794 272.342 143.911 273.991 141.63C275.619 139.376 276.479 136.8 276.481 134.176C276.481 131.559 275.619 128.988 273.984 126.721L204.96 30.8827C203.311 28.6018 200.964 26.7198 198.156 25.4256C195.314 24.1144 192.113 23.4273 188.859 23.4298C185.605 23.4273 182.404 24.1144 179.562 25.4256C176.753 26.7195 174.406 28.6016 172.756 30.8827L155.107 55.4033L120.602 7.4529C118.95 5.17219 116.602 3.29062 113.793 1.99711C110.951 0.685804 107.75 -0.00176381 104.495 5.01937e-06C101.24 -0.00214273 98.0383 0.684997 95.196 1.99587C92.3871 3.2899 90.0395 5.1719 88.389 7.4529L2.496 126.721C0.865526 128.975 0.00305293 131.55 0 134.176C0 136.791 0.8565 139.364 2.4885 141.63C4.13824 143.911 6.48536 145.793 9.294 147.087C12.1364 148.399 15.3384 149.086 18.594 149.084H83.109C108.672 149.084 127.524 140.084 140.495 122.523L171.985 78.8021L188.853 55.4046L239.478 125.686H171.985L155.107 149.084ZM82.0575 125.663L37.0335 125.654L104.524 31.95L138.2 78.8021L115.653 110.117C107.038 121.511 97.2525 125.663 82.0575 125.663Z" fill="#00DC82"/>
<path d="M322.56 147.682H352.739V91.8783C352.739 75.9101 350.726 59.9419 350.726 59.9419L352.505 63.2159C355.311 68.2837 361.16 78.4601 368.028 88.194L409.269 147.68H441.66V24.8481H411.282L411.285 81.7019C411.369 97.3192 413.294 112.762 413.294 112.762L411.773 109.916C409.088 104.974 403.127 94.3713 396.194 84.3337L354.749 24.8481H322.56V147.682ZM537.368 59.2415V107.673C537.368 118.903 528.717 127.325 516.444 127.325C504.978 127.325 496.929 119.605 496.929 108.9V59.2415H468.966V114.34C468.966 134.52 483.854 149.085 506.586 149.085C520.469 149.085 531.734 143.82 537.366 135.398V147.681H565.533V59.2415H537.368ZM647.438 101.706L681.441 59.2415H650.655L632.15 82.5796L613.637 59.2415H583.058L617.061 101.532L580.445 147.681H610.424L632.348 120.482L654.074 147.681H683.852L647.436 101.706H647.438ZM712.878 59.2415H693.362V79.5969H712.878V115.568C712.878 136.1 727.967 147.681 751.305 147.681H768V127.151H755.127C746.075 127.151 740.84 123.114 740.84 114.516V79.5957H768V59.2403H740.84V33.0957H712.88V59.2403L712.878 59.2415Z" fill="black"/>
</g>
<defs>
<clipPath id="clip0_103_48">
<rect width="768" height="150" fill="white"/>
</clipPath>
</defs>
</svg>
