<svg width="200" height="200" viewBox="0 0 200 200" fill="none" xmlns="http://www.w3.org/2000/svg">
<path d="M162 88.5L69.5 171.5L31 101.5L123.5 24L162 88.5Z" fill="white"/>
<path d="M100 0C44.6 0 0 44.6 0 100C0 155.4 44.6 200 100 200C155.4 200 200 155.4 200 100C200 44.6 155.4 0 100 0ZM123.333 36.1083C124.417 36.075 125.4 37.2417 124.758 38.425L99.3917 84.925C99.2634 85.1621 99.1988 85.4284 99.2042 85.6979C99.2096 85.9675 99.2848 86.231 99.4225 86.4627C99.5602 86.6945 99.7557 86.8865 99.9898 87.0201C100.224 87.1537 100.489 87.2243 100.758 87.225H144.592C146.008 87.225 146.692 88.95 145.658 89.9167L68.825 161.625C67.45 162.908 65.4083 161.1 66.5083 159.575L102.875 109.4C103.042 109.168 103.141 108.894 103.163 108.609C103.184 108.324 103.127 108.038 102.997 107.784C102.867 107.529 102.669 107.315 102.426 107.165C102.183 107.015 101.903 106.935 101.617 106.933H55.225C54.9163 106.933 54.6148 106.84 54.3588 106.668C54.1027 106.496 53.9035 106.251 53.7866 105.965C53.6697 105.68 53.6402 105.366 53.7019 105.063C53.7636 104.761 53.9138 104.484 54.1333 104.267L122.3 36.575C122.573 36.2897 122.939 36.1223 123.333 36.1083Z" fill="#41C7BF"/>
</svg>
