<svg width="410" height="80" viewBox="0 0 410 80" fill="none" xmlns="http://www.w3.org/2000/svg">
<g clip-path="url(#clip0_103_48)">
<path d="M82.724 79.5114H137.54C139.282 79.5114 140.991 79.1445 142.5 78.4469C143.998 77.7566 145.249 76.7526 146.129 75.5359C146.997 74.3337 147.455 72.9602 147.457 71.5603C147.457 70.1646 146.997 68.7934 146.125 67.5848L109.312 16.4707C108.432 15.2543 107.181 14.2505 105.683 13.5603C104.168 12.861 102.461 12.4945 100.725 12.4959C98.9891 12.4945 97.2819 12.861 95.7664 13.5603C94.2685 14.2504 93.0167 15.2542 92.1368 16.4707L82.724 29.5484L64.3208 3.97488C63.4402 2.7585 62.1879 1.755 60.6896 1.06513C59.1738 0.365762 57.4664 -0.0009407 55.7304 2.677e-06C53.9944 -0.00114279 52.2871 0.365332 50.7712 1.06447C49.2731 1.75461 48.0211 2.75834 47.1408 3.97488L1.3312 67.5848C0.461614 68.7865 0.00162823 70.1602 0 71.5603C0 72.9554 0.4568 74.3273 1.3272 75.5359C2.20706 76.7524 3.45886 77.7562 4.9568 78.4463C6.47274 79.146 8.18047 79.5127 9.9168 79.5114H44.3248C57.9584 79.5114 68.0128 74.7114 74.9304 65.3455L91.7256 42.0278L100.722 29.5491L127.722 67.0327H91.7256L82.724 79.5114ZM43.764 67.0202L19.7512 67.0155L55.7464 17.04L73.7064 42.0278L61.6816 58.7293C57.0872 64.806 51.868 67.0202 43.764 67.0202Z" fill="#00DC82"/>
<path d="M172.032 78.7636H188.127V49.0016C188.127 40.4853 187.054 31.9689 187.054 31.9689L188.003 33.715C189.499 36.4178 192.619 41.8453 196.282 47.0367L218.277 78.7623H235.552V13.2522H219.351L219.352 43.5742C219.397 51.9034 220.423 60.1395 220.423 60.1395L219.612 58.6215C218.18 55.9861 215.001 50.3312 211.303 44.9778L189.199 13.2522H172.032V78.7636ZM286.596 31.5953V57.4254C286.596 63.4148 281.983 67.9067 275.437 67.9067C269.322 67.9067 265.029 63.7891 265.029 58.08V31.5953H250.115V60.9811C250.115 71.7441 258.055 79.512 270.179 79.512C277.583 79.512 283.591 76.7041 286.595 72.2122V78.7629H301.618V31.5953H286.596ZM345.3 54.2433L363.435 31.5953H347.016L337.147 44.0423L327.273 31.5953H310.964L329.099 54.1501L309.571 78.7629H325.559L337.252 64.2572L348.839 78.7629H364.721L345.299 54.2433H345.3ZM380.202 31.5953H369.793V42.4515H380.202V61.6363C380.202 72.5864 388.249 78.7629 400.696 78.7629H409.6V67.8135H402.735C397.907 67.8135 395.115 65.6608 395.115 61.075V42.4509H409.6V31.5947H395.115V17.6509H380.203V31.5947L380.202 31.5953Z" fill="black"/>
</g>
<defs>
<clipPath id="clip0_103_48">
<rect width="409.6" height="80" fill="white"/>
</clipPath>
</defs>
</svg>
