<svg width="446" height="80" viewBox="0 0 446 80" fill="none" xmlns="http://www.w3.org/2000/svg">
<g clip-path="url(#clip0_103_64)">
<path d="M373.035 61.0347L361.095 38.8521L353.58 47.9443V61.0356H347.276V18.6086H353.58V39.1547L369.944 18.6086H377.217L365.339 33.5182L380.43 61.0347H373.035ZM394.065 61.0347V18.6086H400.368V61.0347H394.065ZM433.217 24.6713V61.0365H426.914V24.6695H414.914V18.6086H445.217V24.6695H433.217V24.6713Z" fill="#8D8D93"/>
<path d="M106.264 61.7626C102.808 61.8494 99.4071 60.8882 96.5078 59.0052C93.7985 57.2185 91.7865 54.554 90.8096 51.4591L96.7487 49.2774C97.5726 51.1772 98.9179 52.8046 100.629 53.9713C102.365 55.135 104.417 55.7381 106.507 55.6991C108.517 55.8038 110.5 55.2034 112.114 54.0018C112.816 53.4122 113.37 52.6669 113.733 51.8253C114.096 50.9837 114.257 50.0689 114.204 49.1539C114.213 48.301 114.015 47.4586 113.629 46.6983C113.292 46.0184 112.853 45.3947 112.325 44.8496C111.659 44.2423 110.903 43.7414 110.083 43.3644C109.072 42.86 108.234 42.4765 107.568 42.2131C106.596 41.8383 105.616 41.4846 104.629 41.1522C103.011 40.587 101.8 40.1426 100.992 39.8191C99.8975 39.3535 98.8344 38.817 97.8096 38.2131C96.7068 37.6277 95.7044 36.8704 94.84 35.9696C94.0921 35.091 93.4889 34.0988 93.0531 33.0305C92.2153 30.9935 92.0392 28.7447 92.5496 26.6021C93.06 24.4596 94.2312 22.5317 95.8974 21.0913C98.3217 18.9505 101.615 17.8792 105.776 17.8792C109.251 17.8792 112.11 18.647 114.352 20.1818C116.529 21.6291 118.128 23.7962 118.868 26.3035L113.05 28.2426C112.465 26.9296 111.478 25.8366 110.231 25.1218C108.723 24.2849 107.016 23.876 105.292 23.9392C103.602 23.8423 101.927 24.3116 100.533 25.2731C99.9642 25.7144 99.5102 26.2865 99.2097 26.9408C98.9092 27.5951 98.771 28.3122 98.807 29.0313C98.8119 29.5826 98.9332 30.1266 99.1627 30.6278C99.3923 31.129 99.725 31.5761 100.139 31.94C100.945 32.7329 101.89 33.3698 102.928 33.8183C103.898 34.2226 105.374 34.7678 107.353 35.4548C108.563 35.9 109.463 36.2331 110.049 36.4548C110.636 36.6765 111.494 37.0496 112.625 37.5757C113.532 37.9767 114.404 38.4525 115.231 38.9983C115.972 39.531 116.681 40.1076 117.353 40.7252C118.083 41.36 118.708 42.1061 119.202 42.9374C119.672 43.7999 120.038 44.7153 120.292 45.6644C120.602 46.7798 120.755 47.9328 120.748 49.0905C120.748 53.0496 119.394 56.1513 116.686 58.3922C113.979 60.6339 110.505 61.7574 106.264 61.7626ZM145.114 61.0357L130.568 18.6087H137.357L146.993 48.1852C147.525 49.7763 147.97 51.3952 148.326 53.0348C148.681 51.3948 149.126 49.7757 149.66 48.1852L159.175 18.6087H165.903L151.417 61.0348L145.114 61.0357ZM178.75 61.0357V18.6087H205.055V24.5478H185.055V36.1852H197.963V42.1244H185.054V55.0957H206.39V61.0365L178.75 61.0357ZM222.448 61.0357V18.6087H228.752V54.9739H249.48V61.0348L222.448 61.0357ZM273.237 24.6705V61.0357H266.933V24.6696H254.933V18.6087H285.237V24.6696H273.237L273.237 24.6705ZM298.265 61.0357V18.6087H324.57V24.5478H304.571V36.1852H317.48V42.1244H304.571V55.0957H325.908V61.0365L298.265 61.0357Z" fill="#4A4A55"/>
<path d="M62.0576 10.5409C54.6611 -0.0460301 40.0524 -3.18603 29.4898 3.54527L10.9393 15.3688C8.43317 16.9453 6.28358 19.0276 4.62801 21.4823C2.97243 23.9369 1.84729 26.7101 1.32454 29.6244C0.439373 34.5328 1.21662 39.5962 3.53323 44.0131C1.94531 46.4219 0.862604 49.1277 0.350626 51.967C-0.17789 54.9398 -0.107471 57.9882 0.557753 60.9334C1.22298 63.8786 2.46961 66.6613 4.22454 69.1183C11.6211 79.7061 26.2315 82.8453 36.7924 76.1131L55.3428 64.2896C57.849 62.7133 59.9988 60.6312 61.6545 58.1767C63.3102 55.7221 64.4355 52.9491 64.9585 50.0348C65.843 45.1262 65.0658 40.0627 62.7498 35.6453C64.337 33.2366 65.4194 30.5311 65.9315 27.6922C66.4603 24.7194 66.3899 21.6709 65.7245 18.7256C65.0591 15.7804 63.813 12.9977 62.0576 10.5409Z" fill="#FF3E00"/>
<path d="M27.6775 70.1148C24.7581 70.8738 21.676 70.7187 18.8475 69.6703C16.019 68.6219 13.5804 66.7307 11.861 64.2522C10.8056 62.7748 10.0559 61.1016 9.65572 59.3307C9.25554 57.5597 9.21299 55.7267 9.53056 53.9391C9.63839 53.353 9.78621 52.7739 9.97404 52.2078L10.3227 51.1409L11.274 51.8383C13.4681 53.4517 15.9217 54.6786 18.5288 55.4661L19.2175 55.6748L19.154 56.3635C19.0695 57.3424 19.3344 58.3196 19.9019 59.1217C20.4196 59.8688 21.1543 60.4388 22.0065 60.7548C22.8587 61.0708 23.7874 61.1175 24.6671 60.8887C25.0699 60.7819 25.4541 60.6142 25.8062 60.3913L44.3575 48.5643C44.8114 48.2785 45.2008 47.9012 45.5008 47.4566C45.8008 47.0119 46.005 46.5096 46.1001 45.9817C46.1953 45.4429 46.1821 44.8904 46.0615 44.3567C45.9409 43.823 45.7152 43.3186 45.3975 42.873C44.8797 42.126 44.1451 41.5558 43.293 41.2395C42.4408 40.9232 41.5121 40.876 40.6323 41.1043C40.2294 41.211 39.8452 41.3787 39.4932 41.6017L32.4149 46.1148C31.25 46.8549 29.9788 47.4126 28.6453 47.7687C25.726 48.5276 22.6441 48.3723 19.8158 47.3239C16.9875 46.2755 14.549 44.3844 12.8297 41.9061C11.7742 40.4288 11.0243 38.7556 10.6241 36.9846C10.2239 35.2137 10.1815 33.3806 10.4993 31.593C10.8147 29.8406 11.4924 28.1732 12.489 26.6976C13.4856 25.222 14.7792 23.9706 16.2871 23.0235L34.8366 11.2C36.0012 10.4586 37.2725 9.89997 38.6062 9.54347C41.5255 8.78446 44.6075 8.93965 47.4358 9.98806C50.2641 11.0365 52.7026 12.9276 54.4219 15.4061C55.4772 16.8834 56.227 18.5566 56.6271 20.3276C57.0273 22.0985 57.0699 23.9315 56.7523 25.7191C56.6435 26.3066 56.4948 26.8859 56.3071 27.453L55.9566 28.5217L55.0062 27.8261C52.8125 26.2125 50.3592 24.9856 47.7523 24.1983L47.0619 23.9896L47.1262 23.3009C47.2099 22.322 46.945 21.3451 46.3784 20.5426C45.8608 19.7962 45.1268 19.2266 44.2752 18.9107C43.4237 18.5947 42.4958 18.5476 41.6166 18.7756C41.2138 18.8823 40.8296 19.0501 40.4775 19.273L21.9262 31.0948C21.4723 31.3805 21.083 31.7578 20.7831 32.2025C20.4832 32.6472 20.2793 33.1495 20.1845 33.6774C20.0889 34.2161 20.1017 34.7685 20.222 35.3023C20.3424 35.836 20.5679 36.3405 20.8853 36.7861C21.4032 37.533 22.1378 38.1031 22.9899 38.4194C23.8421 38.7357 24.7707 38.7829 25.6506 38.5548C26.0533 38.4477 26.4374 38.28 26.7897 38.0574L33.8671 33.5461C35.0315 32.8047 36.3029 32.2463 37.6366 31.8904C40.5551 31.1317 43.6361 31.2867 46.4637 32.3345C49.2913 33.3822 51.7294 35.2723 53.4488 37.7496C54.5043 39.2268 55.2542 40.9 55.6544 42.671C56.0546 44.442 56.097 46.275 55.7793 48.0626C55.4647 49.8153 54.788 51.4831 53.7923 52.9595C52.7966 54.4358 51.5038 55.6882 49.9966 56.6365L31.4462 68.4574C30.282 69.1988 29.011 69.7574 27.6775 70.1139" fill="white"/>
</g>
<defs>
<clipPath id="clip0_103_64">
<rect width="445.217" height="80" fill="white"/>
</clipPath>
</defs>
</svg>
