<svg width="200" height="200" viewBox="0 0 200 200" fill="none" xmlns="http://www.w3.org/2000/svg">
<path d="M181.312 31.4375L145.275 14.0875C143.24 13.1063 140.95 12.7825 138.722 13.161C136.495 13.5395 134.44 14.6016 132.844 16.2L14.8748 123.75C13.4435 125.049 12.5867 126.863 12.493 128.793C12.3992 130.724 13.0761 132.612 14.3748 134.044C14.5311 134.213 14.6873 134.375 14.8561 134.525L24.4873 143.275C25.7458 144.42 27.3658 145.089 29.0658 145.164C30.7659 145.24 32.4386 144.717 33.7936 143.688L175.887 35.9375C176.961 35.1231 178.24 34.6244 179.581 34.4976C180.923 34.3708 182.273 34.621 183.479 35.2199C184.686 35.8187 185.702 36.7426 186.412 37.8875C187.123 39.0323 187.499 40.3527 187.5 41.7V41.2813C187.5 39.2244 186.919 37.2094 185.824 35.4679C184.73 33.7265 183.166 32.3295 181.312 31.4375Z" fill="#0065A9"/>
<path d="M181.312 168.562L145.275 185.919C143.239 186.897 140.95 187.219 138.723 186.841C136.496 186.463 134.442 185.402 132.844 183.806L14.8748 76.2499C13.4435 74.9512 12.5867 73.137 12.493 71.2066C12.3992 69.2762 13.0761 67.3875 14.3748 65.9562C14.5311 65.7874 14.6873 65.6249 14.8561 65.4749L24.4873 56.7249C25.7471 55.5747 27.3708 54.9033 29.075 54.8279C30.7793 54.7525 32.4559 55.2779 33.8123 56.3124L175.887 164.062C176.961 164.877 178.24 165.376 179.581 165.502C180.923 165.629 182.273 165.379 183.479 164.78C184.686 164.181 185.702 163.257 186.412 162.112C187.123 160.968 187.499 159.647 187.5 158.3V158.75C187.493 160.801 186.909 162.809 185.815 164.545C184.721 166.28 183.16 167.672 181.312 168.562Z" fill="#007ACC"/>
<path d="M145.275 185.919C143.239 186.897 140.95 187.219 138.723 186.841C136.496 186.463 134.442 185.402 132.844 183.806C133.741 184.692 134.88 185.293 136.118 185.535C137.356 185.776 138.637 185.646 139.802 185.163C140.966 184.679 141.962 183.862 142.665 182.815C143.367 181.767 143.745 180.536 143.75 179.275V20.7249C143.751 19.458 143.376 18.2192 142.673 17.1656C141.969 16.112 140.969 15.2908 139.798 14.8063C138.627 14.3217 137.339 14.1955 136.097 14.4436C134.854 14.6917 133.714 15.3029 132.819 16.1999C134.416 14.6021 136.47 13.5399 138.697 13.1603C140.924 12.7808 143.214 13.1025 145.25 14.0812L181.281 31.4062C183.141 32.2937 184.711 33.6888 185.811 35.4306C186.912 37.1723 187.497 39.1897 187.5 41.2499V158.75C187.501 160.809 186.919 162.825 185.824 164.568C184.728 166.311 183.162 167.708 181.306 168.6L145.275 185.919Z" fill="#1F9CF0"/>
</svg>
