<svg width="134" height="200" viewBox="0 0 134 200" fill="none" xmlns="http://www.w3.org/2000/svg">
<g clip-path="url(#clip0_103_40)">
<path d="M33.3333 200C51.7333 200 66.6667 185.067 66.6667 166.667V133.333H33.3333C14.9333 133.333 0 148.267 0 166.667C0 185.067 14.9333 200 33.3333 200Z" fill="#0ACF83"/>
<path d="M0 100C0 81.6001 14.9333 66.6667 33.3333 66.6667H66.6667V133.333H33.3333C14.9333 133.333 0 118.4 0 100Z" fill="#A259FF"/>
<path d="M0 33.3333C0 14.9333 14.9333 0 33.3333 0H66.6667V66.6667H33.3333C14.9333 66.6667 0 51.7333 0 33.3333Z" fill="#F24E1E"/>
<path d="M66.6665 0H99.9998C118.4 0 133.333 14.9333 133.333 33.3333C133.333 51.7333 118.4 66.6667 99.9998 66.6667H66.6665V0Z" fill="#FF7262"/>
<path d="M133.333 100C133.333 118.4 118.4 133.333 99.9998 133.333C81.5998 133.333 66.6665 118.4 66.6665 100C66.6665 81.6001 81.5998 66.6667 99.9998 66.6667C118.4 66.6667 133.333 81.6001 133.333 100Z" fill="#1ABCFE"/>
</g>
<defs>
<clipPath id="clip0_103_40">
<rect width="133.333" height="200" fill="white"/>
</clipPath>
</defs>
</svg>
