<svg width="200" height="200" viewBox="0 0 200 200" fill="none" xmlns="http://www.w3.org/2000/svg">
<path d="M29.8813 142.162L101.45 18.2124L107.875 21.9187L36.3126 145.875L29.8813 142.162Z" fill="#E10098"/>
<path d="M28.4062 132.262H171.544V139.681H28.4062V132.262Z" fill="#E10098"/>
<path d="M31.2437 136.425L34.9499 130L106.544 171.338L102.831 177.763L31.2437 136.425ZM93.4374 28.6876L97.1499 22.2688L168.744 63.6063L165.031 70.0313L93.4374 28.6876Z" fill="#E10098"/>
<path d="M31.2627 63.5875L102.85 22.25L106.563 28.675L34.9689 70.0125L31.2627 63.5875Z" fill="#E10098"/>
<path d="M92.1436 21.9249L98.5686 18.2124L170.131 142.169L163.712 145.875L92.1436 21.9249ZM34.0874 58.6624H41.5062V141.337H34.0874V58.6624Z" fill="#E10098"/>
<path d="M158.5 58.6626H165.919V141.338H158.5V58.6626Z" fill="#E10098"/>
<path d="M98.3374 169.012L160.6 133.062L163.844 138.675L101.575 174.625L98.3374 169.012Z" fill="#E10098"/>
<path d="M175.75 143.75C174.208 146.43 171.905 148.592 169.134 149.962C166.362 151.333 163.247 151.851 160.181 151.45C157.115 151.049 154.237 149.747 151.912 147.71C149.586 145.672 147.917 142.991 147.116 140.005C146.315 137.019 146.418 133.862 147.412 130.934C148.406 128.006 150.246 125.439 152.699 123.558C155.152 121.676 158.109 120.565 161.194 120.364C164.28 120.164 167.355 120.883 170.031 122.431C173.613 124.503 176.227 127.912 177.299 131.908C178.371 135.905 177.814 140.164 175.75 143.75ZM51.25 71.8751C49.7079 74.5548 47.4054 76.7168 44.6339 78.0874C41.8625 79.458 38.7467 79.9755 35.681 79.5745C32.6153 79.1735 29.7375 77.872 27.4118 75.8347C25.0861 73.7975 23.4171 71.116 22.6161 68.1298C21.815 65.1435 21.9179 61.9868 22.9117 59.059C23.9056 56.1313 25.7456 53.5642 28.1991 51.6827C30.6525 49.8012 33.6089 48.6899 36.6943 48.4894C39.7796 48.2889 42.855 49.0082 45.5313 50.5564C49.1132 52.6283 51.7269 56.0365 52.799 60.0332C53.8711 64.0299 53.314 68.2886 51.25 71.8751ZM24.2501 143.75C22.7019 141.074 21.9826 137.998 22.1831 134.913C22.3836 131.828 23.4949 128.871 25.3764 126.418C27.2579 123.964 29.825 122.124 32.7527 121.131C35.6805 120.137 38.8372 120.034 41.8235 120.835C44.8097 121.636 47.4912 123.305 49.5284 125.631C51.5657 127.956 52.8672 130.834 53.2682 133.9C53.6692 136.966 53.1517 140.081 51.7811 142.853C50.4105 145.624 48.2485 147.927 45.5688 149.469C41.9823 151.533 37.7236 152.09 33.7269 151.018C29.7302 149.946 26.322 147.332 24.2501 143.75ZM148.75 71.8751C147.202 69.1988 146.483 66.1234 146.683 63.0381C146.884 59.9528 147.995 56.9963 149.876 54.5429C151.758 52.0894 154.325 50.2494 157.253 49.2555C160.18 48.2617 163.337 48.1588 166.323 48.9599C169.31 49.7609 171.991 51.4299 174.028 53.7556C176.066 56.0813 177.367 58.9591 177.768 62.0248C178.169 65.0905 177.652 68.2063 176.281 70.9777C174.911 73.7492 172.749 76.0517 170.069 77.5939C166.482 79.6578 162.224 80.2149 158.227 79.1428C154.23 78.0707 150.822 75.457 148.75 71.8751ZM100 187.5C96.9097 187.5 93.8888 186.584 91.3193 184.867C88.7497 183.15 86.747 180.71 85.5644 177.855C84.3818 174.999 84.0724 171.858 84.6753 168.827C85.2782 165.796 86.7663 163.012 88.9515 160.827C91.1367 158.641 93.9208 157.153 96.9518 156.55C99.9827 155.947 103.124 156.257 105.979 157.439C108.835 158.622 111.275 160.625 112.992 163.194C114.709 165.764 115.625 168.785 115.625 171.875C115.631 173.929 115.231 175.963 114.447 177.861C113.664 179.76 112.514 181.484 111.061 182.937C109.609 184.389 107.885 185.539 105.986 186.322C104.088 187.106 102.054 187.506 100 187.5ZM100 43.6939C96.9097 43.6939 93.8888 42.7775 91.3193 41.0606C88.7497 39.3437 86.747 36.9034 85.5644 34.0483C84.3818 31.1932 84.0724 28.0515 84.6753 25.0206C85.2782 21.9896 86.7663 19.2055 88.9515 17.0203C91.1367 14.8351 93.9208 13.347 96.9518 12.7441C99.9827 12.1412 103.124 12.4506 105.979 13.6332C108.835 14.8159 111.275 16.8186 112.992 19.3881C114.709 21.9576 115.625 24.9785 115.625 28.0689C115.631 30.1224 115.231 32.1568 114.447 34.0551C113.664 35.9534 112.514 37.6782 111.061 39.1303C109.609 40.5823 107.885 41.733 105.986 42.5162C104.088 43.2994 102.054 43.6996 100 43.6939Z" fill="#E10098"/>
</svg>
