<svg width="871" height="170" viewBox="0 0 871 170" fill="none" xmlns="http://www.w3.org/2000/svg">
<g clip-path="url(#clip0_103_46)">
<path d="M730.223 0.0702885V26.9761H670.082V168.529H640.009V26.9777H578.615V0.0702885H730.223ZM736.984 152.482C739.102 152.482 740.955 153.214 742.524 154.682C744.116 156.148 744.908 157.905 744.93 159.952C744.926 161.295 744.538 162.611 743.808 163.756C743.092 164.886 742.089 165.822 740.894 166.477C739.713 167.156 738.36 167.51 736.984 167.501C734.781 167.501 732.907 166.767 731.34 165.3C729.771 163.833 728.994 162.056 729.014 159.952C728.996 157.905 729.771 156.148 731.34 154.682C732.907 153.214 734.781 152.482 736.984 152.482ZM140.957 168.529L30.073 36.0073V168.46H0V0H37.5887L177.679 167.269L177.681 26.9777L177.669 0.0702885H329.275V26.9761H207.752V70.2607H305.482V97.1681H207.752V141.623H329.276V168.529H140.957ZM425.655 96.9114L445.363 120.471L404.979 168.728H365.514L425.655 96.9114ZM404.979 0.140577L455.86 60.8992L506.581 0.326923L545.936 0.269712L475.563 84.4279L546.05 168.599H506.581L365.626 0.140577H404.979ZM788.309 96.5338H801.633V145.899C801.615 150.435 800.593 154.314 798.599 157.579C796.581 160.84 793.788 163.331 790.204 165.088C786.638 166.824 782.461 167.713 777.713 167.713C773.373 167.713 769.483 166.961 766.018 165.493C762.554 164.025 759.805 161.825 757.787 158.929C755.747 156.034 754.749 152.423 754.749 148.099H768.097C768.118 149.991 768.565 151.63 769.42 153.003C770.262 154.358 771.494 155.45 772.966 156.148C774.493 156.884 776.247 157.25 778.221 157.25C780.363 157.25 782.196 156.825 783.683 155.955C785.169 155.105 786.311 153.832 787.107 152.134C787.88 150.453 788.288 148.369 788.309 145.898V96.5338ZM856.462 115.839C856.139 112.847 854.711 110.51 852.225 108.851C849.718 107.17 846.479 106.342 842.505 106.342C839.717 106.342 837.311 106.747 835.314 107.538C833.318 108.349 831.769 109.429 830.708 110.801C829.651 112.171 829.121 113.735 829.078 115.492C829.078 116.958 829.445 118.233 830.158 119.294C830.897 120.406 831.894 121.339 833.071 122.018C834.35 122.791 835.719 123.419 837.148 123.889C838.654 124.391 840.164 124.816 841.67 125.164L848.618 126.805C851.411 127.423 854.121 128.252 856.708 129.314C859.294 130.357 861.638 131.69 863.695 133.291C865.754 134.893 867.384 136.824 868.586 139.083C869.788 141.342 870.4 143.987 870.4 147.037C870.4 151.148 869.3 154.759 867.078 157.886C864.858 160.995 861.659 163.427 857.461 165.184C853.284 166.922 848.23 167.81 842.282 167.81C836.536 167.81 831.524 166.96 827.305 165.261C823.069 163.583 819.767 161.109 817.382 157.866C814.999 154.623 813.715 150.666 813.532 146.014H826.737C826.919 148.446 827.735 150.473 829.121 152.114C830.525 153.736 832.359 154.932 834.601 155.743C836.862 156.536 839.389 156.941 842.18 156.941C845.094 156.941 847.661 156.516 849.881 155.686C852.083 154.855 853.813 153.698 855.058 152.191C856.321 150.703 856.953 148.948 856.973 146.94C856.953 145.106 856.38 143.581 855.28 142.383C854.16 141.187 852.611 140.183 850.634 139.372C848.64 138.561 846.316 137.828 843.668 137.192L835.232 135.145C829.139 133.658 824.311 131.4 820.786 128.368C817.241 125.337 815.488 121.323 815.488 116.283C815.488 112.153 816.67 108.522 819.055 105.413C821.418 102.307 824.658 99.893 828.753 98.175C832.867 96.4374 837.515 95.5874 842.688 95.5874C847.946 95.5874 852.55 96.4374 856.525 98.175C860.496 99.893 863.615 102.286 865.875 105.336C868.137 108.388 869.321 111.881 869.382 115.839H856.462Z" fill="black"/>
</g>
<defs>
<clipPath id="clip0_103_46">
<rect width="870.4" height="170" fill="white"/>
</clipPath>
</defs>
</svg>
