<svg width="410" height="80" viewBox="0 0 410 80" fill="none" xmlns="http://www.w3.org/2000/svg">
<g clip-path="url(#clip0_103_46)">
<path d="M343.634 0.0330769V12.6946H315.333V79.3077H301.181V12.6954H272.29V0.0330769H343.634ZM346.816 71.7561C347.813 71.7561 348.685 72.1008 349.423 72.7915C350.172 73.4815 350.545 74.3085 350.555 75.2715C350.553 75.9035 350.371 76.5228 350.027 77.0615C349.69 77.5933 349.219 78.034 348.656 78.3423C348.1 78.6617 347.464 78.8283 346.816 78.8238C345.779 78.8238 344.898 78.4785 344.16 77.7885C343.422 77.0977 343.056 76.2615 343.066 75.2715C343.057 74.3085 343.422 73.4815 344.16 72.7915C344.898 72.1008 345.779 71.7561 346.816 71.7561ZM66.3328 79.3077L14.152 16.9446V79.2754H0V0H17.6888L83.6136 78.7146L83.6144 12.6954L83.6088 0.0330769H154.953V12.6946H97.7656V33.0638H143.756V45.7262H97.7656V66.6461H154.954V79.3077H66.3328ZM200.308 45.6054L209.582 56.6923L190.578 79.4015H172.006L200.308 45.6054ZM190.578 0.0661538L214.522 28.6585L238.391 0.153846L256.911 0.126923L223.794 39.7308L256.965 79.3408H238.391L172.059 0.0661538H190.578ZM370.969 45.4277H377.239V68.6585C377.23 70.7931 376.75 72.6185 375.811 74.1546C374.862 75.6892 373.547 76.8615 371.861 77.6885C370.182 78.5054 368.217 78.9238 365.982 78.9238C363.94 78.9238 362.11 78.57 360.479 77.8792C358.849 77.1885 357.555 76.1531 356.606 74.79C355.646 73.4277 355.176 71.7285 355.176 69.6938H361.458C361.467 70.5838 361.678 71.3554 362.08 72.0015C362.476 72.6392 363.056 73.1532 363.749 73.4815C364.467 73.8277 365.293 74 366.222 74C367.23 74 368.092 73.8 368.792 73.3908C369.491 72.9908 370.029 72.3915 370.403 71.5923C370.767 70.8015 370.959 69.8208 370.969 68.6577V45.4277ZM403.041 54.5123C402.889 53.1046 402.217 52.0046 401.047 51.2238C399.867 50.4331 398.343 50.0431 396.473 50.0431C395.161 50.0431 394.029 50.2338 393.089 50.6062C392.15 50.9877 391.421 51.4961 390.922 52.1415C390.424 52.7861 390.174 53.5223 390.154 54.3492C390.154 55.0392 390.327 55.6392 390.662 56.1385C391.01 56.6619 391.48 57.1005 392.034 57.42C392.636 57.7839 393.279 58.0794 393.952 58.3008C394.661 58.5369 395.371 58.7369 396.08 58.9008L399.35 59.6731C400.664 59.9638 401.939 60.3538 403.157 60.8538C404.374 61.3446 405.477 61.9715 406.445 62.7254C407.414 63.4792 408.181 64.3877 408.746 65.4508C409.312 66.5138 409.6 67.7585 409.6 69.1938C409.6 71.1285 409.082 72.8277 408.037 74.2992C406.992 75.7623 405.486 76.9069 403.511 77.7338C401.546 78.5515 399.167 78.9692 396.368 78.9692C393.664 78.9692 391.306 78.5692 389.32 77.77C387.326 76.98 385.773 75.8162 384.65 74.29C383.529 72.7638 382.925 70.9015 382.838 68.7123H389.053C389.138 69.8569 389.522 70.8108 390.174 71.5831C390.835 72.3461 391.698 72.9092 392.754 73.2908C393.818 73.6638 395.006 73.8546 396.32 73.8546C397.691 73.8546 398.899 73.6546 399.944 73.2638C400.98 72.8731 401.794 72.3285 402.38 71.6192C402.974 70.9192 403.272 70.0931 403.282 69.1485C403.272 68.2854 403.002 67.5677 402.485 67.0038C401.958 66.4408 401.229 65.9685 400.298 65.5869C399.36 65.2054 398.266 64.86 397.02 64.5608L393.05 63.5977C390.183 62.8977 387.911 61.8354 386.252 60.4085C384.584 58.9823 383.759 57.0931 383.759 54.7215C383.759 52.7777 384.315 51.0692 385.438 49.6062C386.55 48.1446 388.074 47.0085 390.002 46.2C391.938 45.3823 394.125 44.9823 396.559 44.9823C399.034 44.9823 401.2 45.3823 403.07 46.2C404.939 47.0085 406.407 48.1346 407.47 49.57C408.535 51.0062 409.092 52.65 409.121 54.5123H403.041Z" fill="black"/>
</g>
<defs>
<clipPath id="clip0_103_46">
<rect width="409.6" height="80" fill="white"/>
</clipPath>
</defs>
</svg>
