<svg width="394" height="80" viewBox="0 0 394 80" fill="none" xmlns="http://www.w3.org/2000/svg">
<g clip-path="url(#clip0_204_4)">
<path d="M293.433 28.4509V78.3232H277.367V20.6409L293.433 28.4509Z" fill="#F37368"/>
<path d="M66.0508 69.0622L78.1008 79.5499L128.865 53.1076L123.622 40.4999L66.0508 69.0622ZM277.366 36.9299L318.202 15.7314L311.285 3.79297L277.367 20.6407L277.366 36.9299Z" fill="#F7A199"/>
<path d="M162.448 24.5462V78.3231H147.052V1.67387L162.448 24.5462ZM66.0508 69.0615L78.1008 79.5492L101.308 21.5323L93.8323 1.6731L66.0508 69.0615Z" fill="#F37368"/>
<path d="M93.8315 1.67387H109.675L139.018 78.3231H122.729L93.8315 1.67387ZM164.792 1.67387L198.598 54V78.3223L147.052 1.6731H164.792V1.67387ZM227.606 1.67387H243.56V78.3231H227.606V1.67387ZM277.367 15.7316H252.821V1.67387H310.057L318.202 15.7316H277.367Z" fill="#F04939"/>
<path d="M365.396 49.2031V78.3231H349.553V49.2031" fill="#F7A199"/>
<path d="M376.33 1.67383L349.553 49.2031H365.396L393.178 1.67383H376.33Z" fill="#F04939"/>
<path d="M349.553 49.2031L321.884 1.67383H339.288L357.921 34.2523L349.553 49.2031Z" fill="#F37368"/>
<path d="M6.58417 10.5992C6.58417 21.1992 13.1665 27.5576 26.3319 30.9053L40.278 34.1407C52.7742 37.0415 60.3611 44.1822 60.3611 55.7853C60.4726 60.8061 58.7996 65.7153 55.7865 69.7315C55.7865 58.1284 49.7619 51.8807 35.3688 48.0868L21.6457 44.9638C10.6011 42.5076 2.12109 36.5938 2.12109 23.9868C2.12109 19.1892 3.68263 14.3915 6.58417 10.5984" fill="#F04939"/>
<path d="M198.598 50.0953V1.67374H213.995V78.323H198.598V50.0953ZM47.1957 52.8845C53.1087 56.6783 55.7864 62.0337 55.7864 69.7322C50.7657 76.0914 42.1749 79.5499 32.0218 79.5499C14.9518 79.5499 2.79104 71.0707 0.224121 56.4553H16.6249C18.7449 63.1491 24.3234 66.273 31.9103 66.273C40.948 66.3845 47.0841 61.4753 47.1957 52.8845ZM6.58412 10.4876C11.381 4.23989 19.638 0.446045 29.678 0.446045C47.1949 0.446045 57.2364 9.70681 59.8026 22.6491H43.9603C42.1757 17.5168 37.8234 13.4999 29.9018 13.4999C21.311 13.6114 15.5095 18.5207 15.1749 26.3307C9.42566 23.1599 6.36027 16.9584 6.58412 10.4876Z" fill="#F37368"/>
</g>
<defs>
<clipPath id="clip0_204_4">
<rect width="393.848" height="80" fill="white"/>
</clipPath>
</defs>
</svg>
