<svg width="300" height="300" viewBox="0 0 300 300" fill="none" xmlns="http://www.w3.org/2000/svg">
<path d="M271.969 47.1564L217.913 21.1314C214.86 19.6595 211.425 19.1738 208.084 19.7416C204.743 20.3093 201.661 21.9025 199.266 24.3002L22.3127 185.625C20.1657 187.573 18.8806 190.294 18.7399 193.19C18.5993 196.086 19.6147 198.919 21.5627 201.066C21.7971 201.319 22.0315 201.563 22.2846 201.788L36.7315 214.913C38.6192 216.631 41.0492 217.633 43.5993 217.746C46.1493 217.859 48.6584 217.076 50.6908 215.531L263.831 53.9064C265.441 52.6848 267.36 51.9368 269.372 51.7466C271.384 51.5564 273.409 51.9316 275.22 52.8299C277.03 53.7282 278.554 55.1141 279.619 56.8313C280.684 58.5486 281.249 60.5292 281.25 62.5502V61.922C281.25 58.8367 280.379 55.8142 278.737 53.202C277.095 50.5899 274.749 48.4943 271.969 47.1564Z" fill="#0065A9"/>
<path d="M271.969 252.844L217.913 278.878C214.859 280.346 211.425 280.829 208.085 280.262C204.745 279.694 201.663 278.104 199.266 275.71L22.3127 114.375C20.1657 112.427 18.8806 109.706 18.7399 106.81C18.5993 103.914 19.6147 101.082 21.5627 98.9345C21.7971 98.6814 22.0315 98.4376 22.2846 98.2126L36.7315 85.0876C38.6212 83.3623 41.0567 82.3552 43.613 82.2421C46.1694 82.129 48.6843 82.9171 50.719 84.4689L263.831 246.094C265.441 247.316 267.36 248.064 269.372 248.254C271.384 248.444 273.409 248.069 275.22 247.17C277.03 246.272 278.554 244.886 279.619 243.169C280.684 241.452 281.249 239.471 281.25 237.45V238.125C281.24 241.202 280.364 244.214 278.723 246.817C277.082 249.42 274.741 251.509 271.969 252.844Z" fill="#007ACC"/>
<path d="M217.912 278.878C214.859 280.346 211.425 280.829 208.085 280.262C204.744 279.694 201.663 278.104 199.266 275.71C200.612 277.038 202.32 277.94 204.177 278.302C206.034 278.664 207.956 278.47 209.703 277.744C211.449 277.018 212.943 275.793 213.997 274.222C215.05 272.651 215.617 270.804 215.625 268.913V31.0876C215.626 29.1872 215.064 27.3291 214.009 25.7486C212.953 24.1682 211.453 22.9365 209.697 22.2096C207.941 21.4828 206.009 21.2934 204.145 21.6656C202.281 22.0377 200.57 22.9546 199.228 24.3001C201.624 21.9033 204.705 20.3101 208.045 19.7407C211.386 19.1714 214.821 19.6541 217.875 21.122L271.922 47.1095C274.711 48.4408 277.066 50.5335 278.717 53.1461C280.367 55.7587 281.245 58.7848 281.25 61.8751V238.125C281.251 241.213 280.379 244.238 278.735 246.852C277.091 249.466 274.743 251.563 271.959 252.9L217.912 278.878Z" fill="#1F9CF0"/>
</svg>
