<svg width="142" height="200" viewBox="0 0 142 200" fill="none" xmlns="http://www.w3.org/2000/svg">
<g clip-path="url(#clip0_103_25)">
<path d="M141.582 39.2056L128.706 183.449L70.8278 199.495L13.1092 183.471L0.246582 39.2056H141.582Z" fill="#E44D26"/>
<path d="M70.9141 187.23L117.682 174.264L128.685 51.0012H70.9141V187.23Z" fill="#F16529"/>
<path d="M45.8837 86.3889H70.9142V68.6953H26.5469L26.9701 73.4421L31.3192 122.201H70.9142V104.508H47.5009L45.8837 86.3889ZM49.8715 131.048H32.1098L34.5884 158.83L70.8327 168.891L70.9142 168.869V150.46L70.8366 150.48L51.1314 145.16L49.8715 131.048Z" fill="#EBEBEB"/>
<path d="M13.396 0H22.3877V8.88366H30.6132V0H39.6054V26.9019H30.6137V17.8936H22.3882V26.9019H13.3965L13.396 0ZM51.4292 8.92133H43.5146V0H68.3423V8.92133H60.4226V26.9019H51.4309V8.92133H51.4292ZM72.2824 0H81.6581L87.4254 9.45263L93.1871 0H102.567V26.9019H93.6115V13.5679L87.4254 23.133H87.2702L81.0802 13.5679V26.9019H72.2824V0ZM107.041 0H116.036V18.01H128.681V26.9019H107.041V0H107.041Z" fill="black"/>
<path d="M70.8531 122.201H92.6409L90.5866 145.149L70.8525 150.475V168.883L107.126 158.83L107.392 155.84L111.55 109.259L111.982 104.507H70.8531V122.201ZM70.8531 86.3457V86.3889H113.592L113.946 82.4122L114.753 73.4421L115.176 68.6953H70.8531V86.3457Z" fill="white"/>
</g>
<defs>
<clipPath id="clip0_103_25">
<rect width="141.828" height="200" fill="white"/>
</clipPath>
</defs>
</svg>
