<svg width="640" height="80" viewBox="0 0 640 80" fill="none" xmlns="http://www.w3.org/2000/svg">
<g clip-path="url(#clip0_103_61)">
<path d="M66.0837 0C48.4612 0 37.4462 8.81125 33.0412 26.4337C39.65 17.6212 47.36 14.3175 56.1712 16.5213C61.1975 17.7775 64.7912 21.425 68.7687 25.4625C75.2475 32.0375 82.7462 39.65 99.125 39.65C116.747 39.65 127.761 30.8387 132.166 13.2162C125.559 22.0288 117.849 25.3325 109.037 23.1288C104.01 21.8725 100.417 18.225 96.44 14.1875C89.96 7.6125 82.4625 0 66.0837 0ZM33.0412 39.65C15.42 39.65 4.405 48.4613 0 66.0838C6.60875 57.2713 14.3175 53.9675 23.1287 56.1713C28.1562 57.4275 31.75 61.075 35.7262 65.1113C42.2062 71.6888 49.705 79.2987 66.0837 79.2987C83.705 79.2987 94.7187 70.4887 99.125 52.8662C92.5162 61.6787 84.8062 64.9825 75.9962 62.7787C70.9687 61.5225 67.375 57.875 63.3975 53.8375C56.9187 47.2625 49.42 39.65 33.0412 39.65Z" fill="url(#paint0_linear_103_61)"/>
<path d="M198.24 33.4126H186.708V55.7351C186.708 61.6876 190.614 61.5951 198.24 61.2226V70.2438C182.801 72.1038 176.663 67.8263 176.663 55.7351V33.4138H168.106V23.7413H176.663V11.2488L186.708 8.27385V23.7413H198.24V33.4138V33.4126ZM242.203 23.7413H252.248V70.2438H242.203V63.5476C238.669 68.4776 233.181 71.4538 225.928 71.4538C213.278 71.4538 202.768 60.7576 202.768 46.9926C202.768 33.1351 213.278 22.5326 225.926 22.5326C233.181 22.5326 238.669 25.5076 242.203 30.3451V23.7413ZM227.508 61.8738C235.878 61.8738 242.203 55.6426 242.203 46.9926C242.203 38.3426 235.878 32.1113 227.508 32.1113C219.138 32.1113 212.813 38.3426 212.813 46.9926C212.813 55.6426 219.138 61.8738 227.508 61.8738ZM268.989 16.7651C265.454 16.7651 262.571 13.7901 262.571 10.3488C262.575 8.64784 263.252 7.01744 264.455 5.81464C265.658 4.61184 267.288 3.93465 268.989 3.93135C270.69 3.93465 272.32 4.61184 273.523 5.81464C274.726 7.01744 275.403 8.64784 275.406 10.3488C275.406 13.7901 272.523 16.7651 268.989 16.7651ZM263.966 70.2438V23.7413H274.01V70.2438H263.966ZM285.636 70.2438V2.3501H295.681V70.2438H285.636ZM360.879 23.7413H371.481L356.879 70.2438H347.02L337.348 38.9013L327.583 70.2438H317.724L303.121 23.7413H313.724L322.746 55.8288L332.511 23.7413H342.091L351.764 55.8288L360.879 23.7413ZM383.944 16.7663C380.41 16.7663 377.526 13.7901 377.526 10.3488C377.53 8.64784 378.207 7.01744 379.41 5.81464C380.613 4.61184 382.243 3.93465 383.944 3.93135C385.645 3.93465 387.275 4.61184 388.478 5.81464C389.681 7.01744 390.358 8.64784 390.361 10.3488C390.361 13.7901 387.478 16.7651 383.944 16.7651V16.7663ZM378.921 70.2438V23.7413H388.966V70.2438H378.921ZM425.053 22.5313C435.469 22.5313 442.91 29.6001 442.91 41.6913V70.2438H432.865V42.7138C432.865 35.6463 428.773 31.9263 422.449 31.9263C415.845 31.9263 410.636 35.8313 410.636 45.3188V70.2438H400.591V23.7413H410.636V29.6938C413.706 24.8563 418.728 22.5313 425.053 22.5313ZM490.529 5.1401H500.574V70.2438H490.529V63.5476C486.995 68.4776 481.508 71.4538 474.254 71.4538C461.604 71.4538 451.094 60.7576 451.094 46.9926C451.094 33.1351 461.604 22.5326 474.253 22.5326C481.508 22.5326 486.995 25.5076 490.529 30.3451V5.1401ZM475.834 61.8738C484.204 61.8738 490.529 55.6426 490.529 46.9926C490.529 38.3426 484.204 32.1113 475.834 32.1113C467.464 32.1113 461.139 38.3426 461.139 46.9926C461.139 55.6426 467.464 61.8738 475.834 61.8738ZM534.241 71.4538C520.198 71.4538 509.688 60.7576 509.688 46.9926C509.688 33.1351 520.198 22.5326 534.241 22.5326C543.356 22.5326 551.261 27.2751 554.983 34.5301L546.333 39.5526C544.286 35.1813 539.729 32.3901 534.149 32.3901C525.964 32.3901 519.733 38.6226 519.733 46.9926C519.733 55.3626 525.964 61.5951 534.149 61.5951C539.729 61.5951 544.286 58.7113 546.519 54.4326L555.169 59.3626C551.261 66.7101 543.356 71.4538 534.241 71.4538ZM571.723 36.5763C571.723 45.0388 596.741 39.9238 596.741 57.1301C596.741 66.4301 588.65 71.4538 578.605 71.4538C569.305 71.4538 562.609 67.2676 559.633 60.5713L568.283 55.5488C569.77 59.7351 573.49 62.2451 578.605 62.2451C583.07 62.2451 586.511 60.7576 586.511 57.0376C586.511 48.7601 561.493 53.4101 561.493 36.7626C561.493 28.0188 569.026 22.5326 578.513 22.5326C586.139 22.5326 592.463 26.0663 595.719 32.2051L587.256 36.9476C585.581 33.3213 582.326 31.6476 578.513 31.6476C574.885 31.6476 571.723 33.2276 571.723 36.5763ZM614.599 36.5763C614.599 45.0388 639.618 39.9238 639.618 57.1301C639.618 66.4301 631.526 71.4538 621.481 71.4538C612.181 71.4538 605.484 67.2676 602.508 60.5713L611.158 55.5488C612.645 59.7351 616.366 62.2451 621.481 62.2451C625.945 62.2451 629.386 60.7576 629.386 57.0376C629.386 48.7601 604.369 53.4101 604.369 36.7626C604.369 28.0188 611.901 22.5326 621.389 22.5326C629.014 22.5326 635.339 26.0663 638.595 32.2051L630.131 36.9476C628.456 33.3213 625.201 31.6476 621.389 31.6476C617.761 31.6476 614.599 33.2276 614.599 36.5763Z" fill="#2D3748"/>
</g>
<defs>
<linearGradient id="paint0_linear_103_61" x1="-367.158" y1="2537.56" x2="11047.5" y2="9119.12" gradientUnits="userSpaceOnUse">
<stop stop-color="#2298BD"/>
<stop offset="1" stop-color="#0ED7B5"/>
</linearGradient>
<clipPath id="clip0_103_61">
<rect width="640" height="80" fill="white"/>
</clipPath>
</defs>
</svg>
