<svg width="319" height="304" viewBox="0 0 319 304" fill="none" xmlns="http://www.w3.org/2000/svg">
<path d="M31.5708 33.4116H287.429V270.589H31.5708V33.4116Z" fill="#0C0824"/>
<path d="M31.571 33.2685H287.429V267.382H31.571V33.2685ZM19.9375 278.325H299.062V22.3252H19.9375V278.325ZM208.118 127.351C198.926 127.351 195.786 131.73 195.786 135.34C195.786 139.279 197.88 142.017 210.211 148.028C228.474 156.345 234.136 164.325 234.136 176.038C234.136 193.545 219.95 202.951 200.761 202.951C192.525 203.238 184.339 201.628 176.915 198.262C176.098 197.934 175.988 197.39 175.988 196.508V180.408C175.988 179.31 176.567 178.982 177.384 179.535C184.356 183.753 192.472 185.993 200.761 185.987C209.952 185.987 213.79 182.377 213.79 177.454C213.79 173.515 211.118 170.018 199.365 164.325C182.847 156.889 175.988 149.322 175.988 136.756C175.988 122.643 187.732 110.941 208.088 110.941C215.173 110.654 222.249 111.697 228.902 114.007C229.286 114.241 229.596 114.567 229.801 114.951C230.006 115.335 230.098 115.763 230.069 116.192V131.196C230.069 132.068 229.491 132.621 228.324 132.293C222.175 128.963 215.182 127.262 208.088 127.37L208.118 127.351ZM108.091 140.367C110.763 140.582 112.856 140.582 117.512 140.582C131.119 140.582 143.909 136.1 143.909 118.705C143.909 104.808 134.718 97.8124 119.256 97.8124C114.601 97.8124 110.185 98.0281 108.091 98.1406V140.367ZM87.3861 82.2273C87.3861 81.4584 89.011 80.9145 89.948 80.9145C99.9447 80.5302 109.949 80.3489 119.954 80.3706C152.173 80.3706 164.734 96.9965 164.734 118.227C164.734 146.012 143.331 157.94 117.053 157.94C112.637 157.94 111.122 157.724 107.981 157.724V199.734C107.981 200.606 107.633 201.047 106.586 201.047H88.7917C87.8646 201.047 87.396 200.719 87.396 199.734V82.2742L87.3861 82.2273Z" fill="#31C5F0"/>
</svg>
