<svg width="142" height="200" viewBox="0 0 142 200" fill="none" xmlns="http://www.w3.org/2000/svg">
<g clip-path="url(#clip0_103_31)">
<path d="M70.8278 199.495L13.1092 183.471L0.246582 39.2056H141.582L128.706 183.449L70.8278 199.495Z" fill="#264DE4"/>
<path d="M117.682 174.264L128.685 51.0012H70.9141V187.23L117.682 174.264Z" fill="#2965F1"/>
<path d="M29.7336 104.508L31.3192 122.201H70.9142V104.508H29.7336ZM26.5469 68.6953L28.1552 86.3889H70.9142V68.6953H26.5469ZM70.9142 150.46L70.8366 150.48L51.1314 145.16L49.8715 131.048H32.1098L34.5884 158.83L70.8327 168.891L70.9142 168.869V150.46Z" fill="#EBEBEB"/>
<path d="M33.5093 0H54.9386V8.96177H42.4711V17.9235H54.9398V26.8848H33.5093V0ZM59.2251 0H80.655V7.7928H68.1868V9.35125H80.655V27.2748H59.2256V19.0914H71.6938V17.533H59.2245L59.2251 0ZM84.9414 0H106.371V7.7928H93.9032V9.35125H106.371V27.2748H84.9414V19.0914H97.4096V17.533H84.942V0H84.9414Z" fill="black"/>
<path d="M111.982 104.507L115.176 68.6953H70.8531V86.3889H95.7849L94.175 104.507H70.8531V122.201H92.6409L90.5866 145.149L70.8525 150.475V168.883L107.126 158.83L107.392 155.84L111.55 109.259L111.982 104.507Z" fill="white"/>
</g>
<defs>
<clipPath id="clip0_103_31">
<rect width="141.828" height="200" fill="white"/>
</clipPath>
</defs>
</svg>
