<svg width="346" height="300" viewBox="0 0 346 300" fill="none" xmlns="http://www.w3.org/2000/svg">
<g clip-path="url(#clip0_103_69)">
<path d="M284.175 97.1366C280.496 95.9067 276.787 94.7673 273.05 93.7195C273.677 91.2195 274.255 88.7498 274.768 86.3235C283.19 46.48 277.685 14.3813 258.879 3.81293C240.848 -6.31865 211.361 4.24582 181.58 29.505C178.645 31.9989 175.775 34.5646 172.973 37.1998C171.097 35.4475 169.188 33.7292 167.247 32.0458C136.035 5.03793 104.751 -6.34497 85.9654 4.25372C67.9509 14.4169 62.6166 44.5919 70.1988 82.3524C70.9532 86.0922 71.8049 89.8127 72.7532 93.5103C68.3249 94.7366 64.0518 96.0419 59.9623 97.4313C23.369 109.866 0 129.351 0 149.563C0 170.438 25.0877 191.376 63.2012 204.072C66.2911 205.097 69.4068 206.047 72.5453 206.921C71.526 210.903 70.6211 214.913 69.8316 218.945C62.6031 256.05 68.2479 285.512 86.2138 295.61C104.77 306.039 135.914 295.321 166.239 269.485C168.698 267.385 171.103 265.225 173.451 263.008C176.485 265.861 179.601 268.631 182.794 271.316C212.169 295.95 241.18 305.897 259.129 295.771C277.667 285.312 283.693 253.662 275.87 215.155C275.254 212.138 274.563 209.137 273.798 206.152C275.985 205.521 278.131 204.871 280.224 204.195C319.847 191.401 345.627 170.717 345.627 149.563C345.627 129.277 321.504 109.66 284.175 97.1366ZM275.581 190.537C273.691 191.146 271.752 191.734 269.776 192.306C265.401 178.81 259.499 164.46 252.274 149.633C259.168 135.159 264.844 120.992 269.095 107.584C272.631 108.581 276.062 109.633 279.37 110.742C311.354 121.473 330.863 137.338 330.863 149.563C330.863 162.584 309.793 179.488 275.581 190.537ZM261.386 217.95C264.845 234.976 265.338 250.371 263.047 262.406C260.989 273.221 256.85 280.43 251.73 283.318C240.839 289.463 217.545 281.476 192.424 260.408C189.454 257.912 186.556 255.337 183.733 252.684C193.473 242.304 203.206 230.237 212.705 216.834C229.414 215.389 245.2 213.026 259.515 209.801C260.204 212.503 260.828 215.22 261.386 217.95ZM117.832 282.256C107.19 285.918 98.7144 286.023 93.5908 283.145C82.6886 277.017 78.1563 253.36 84.3385 221.629C85.0734 217.879 85.9148 214.15 86.8618 210.446C101.019 213.498 116.69 215.693 133.438 217.017C143.002 230.131 153.016 242.185 163.108 252.741C160.963 254.763 158.768 256.734 156.523 258.651C143.113 270.075 129.675 278.18 117.832 282.256ZM67.9779 190.456C51.1245 184.842 37.2062 177.546 27.6664 169.584C19.0932 162.43 14.7661 155.326 14.7661 149.563C14.7661 137.297 33.5286 121.652 64.8227 111.02C68.6205 109.73 72.5953 108.513 76.7198 107.371C81.0456 121.081 86.7187 135.417 93.5651 149.913C86.6296 164.623 80.8755 179.188 76.5079 193.06C73.6431 192.261 70.7989 191.392 67.9779 190.456ZM84.6895 79.5879C78.1941 47.2366 82.5077 22.8327 93.3639 16.7077C104.926 10.184 130.495 19.4853 157.444 42.8063C159.201 44.3305 160.93 45.8856 162.63 47.4708C152.588 57.98 142.666 69.9445 133.187 82.9813C116.931 84.4498 101.371 86.8077 87.0657 89.9669C86.1843 86.5277 85.392 83.066 84.6895 79.5879ZM233.778 115.467C230.399 109.779 226.894 104.162 223.267 98.6208C234.295 99.98 244.861 101.784 254.783 103.989C251.804 113.295 248.092 123.022 243.721 132.996C240.527 127.089 237.212 121.245 233.778 115.467ZM172.98 57.755C179.79 64.9458 186.61 72.9735 193.319 81.684C179.71 81.0576 166.078 81.055 152.469 81.6761C159.184 73.0458 166.063 65.0287 172.98 57.755ZM111.792 115.566C108.401 121.297 105.147 127.105 102.034 132.984C97.7356 123.046 94.0566 113.273 91.0526 103.837C100.914 101.687 111.43 99.9287 122.387 98.5945C118.72 104.169 115.187 109.829 111.792 115.566ZM122.702 201.555C111.381 200.323 100.707 198.656 90.8487 196.564C93.8999 186.959 97.66 176.979 102.052 166.827C105.177 172.711 108.444 178.522 111.85 184.256C115.352 190.151 118.978 195.925 122.702 201.555ZM173.387 242.384C166.389 235.026 159.408 226.885 152.592 218.13C159.21 218.383 165.956 218.512 172.814 218.512C179.859 218.512 186.822 218.358 193.677 218.06C186.947 226.973 180.152 235.126 173.387 242.384ZM243.86 166.309C248.48 176.572 252.374 186.5 255.466 195.941C245.445 198.17 234.626 199.964 223.225 201.297C226.878 195.653 230.416 189.939 233.836 184.158C237.313 178.281 240.655 172.33 243.86 166.309ZM221.046 176.968C215.811 185.832 210.281 194.527 204.466 203.041C193.932 203.768 183.374 204.129 172.814 204.123C162.057 204.123 151.595 203.797 141.521 203.16C135.554 194.667 129.918 185.956 124.627 177.047C119.361 168.185 114.443 159.132 109.881 149.906C114.431 140.679 119.335 131.621 124.584 122.752L124.582 122.754C129.829 113.883 135.419 105.21 141.341 96.7524C151.62 95.9945 162.16 95.5998 172.812 95.5998C183.513 95.5998 194.068 95.9985 204.344 96.7616C210.206 105.206 215.761 113.85 220.998 122.676C226.264 131.525 231.233 140.539 235.897 149.702C231.281 158.96 226.327 168.054 221.046 176.968ZM251.505 16.2787C263.078 22.784 267.579 49.0169 260.307 83.4182C259.843 85.6129 259.322 87.8485 258.755 90.1156C244.414 86.8892 228.843 84.4906 212.541 82.9998C203.044 69.8195 193.203 57.8366 183.324 47.4629C185.913 45.0307 188.564 42.6616 191.274 40.3577C216.791 18.7169 240.639 10.1721 251.505 16.2787ZM172.814 119.484C189.859 119.484 203.677 132.951 203.677 149.563C203.677 166.175 189.859 179.642 172.814 179.642C155.769 179.642 141.95 166.175 141.95 149.563C141.95 132.951 155.769 119.484 172.814 119.484Z" fill="#00D8FF"/>
</g>
<defs>
<clipPath id="clip0_103_69">
<rect width="345.627" height="300" fill="white"/>
</clipPath>
</defs>
</svg>
