<svg width="205" height="200" viewBox="0 0 205 200" fill="none" xmlns="http://www.w3.org/2000/svg">
<g clip-path="url(#clip0_103_37)">
<path d="M0 0H204.8V200H0V0Z" fill="#F7DF1E"/>
<path d="M53.8494 167.134L69.5214 157.872C72.5454 163.107 75.2958 167.537 81.8934 167.537C88.2174 167.537 92.2054 165.121 92.2054 155.724V91.8196H111.451V155.99C111.451 175.456 99.7662 184.317 82.7182 184.317C67.3222 184.317 58.3854 176.531 53.8486 167.133M121.905 165.12L137.575 156.26C141.701 162.839 147.062 167.672 156.547 167.672C164.522 167.672 169.607 163.778 169.607 158.408C169.607 151.964 164.383 149.681 155.585 145.924L150.774 143.908C136.889 138.137 127.678 130.887 127.678 115.582C127.678 101.485 138.676 90.7446 155.861 90.7446C168.096 90.7446 176.894 94.9071 183.217 105.781L168.232 115.18C164.932 109.407 161.359 107.125 155.86 107.125C150.223 107.125 146.649 110.616 146.649 115.18C146.649 120.818 150.223 123.102 158.471 126.592L163.282 128.606C179.642 135.453 188.853 142.434 188.853 158.14C188.853 175.057 175.243 184.32 156.959 184.32C139.088 184.32 127.54 175.996 121.904 165.121" fill="black"/>
</g>
<defs>
<clipPath id="clip0_103_37">
<rect width="204.8" height="200" fill="white"/>
</clipPath>
</defs>
</svg>
