<svg width="203" height="200" viewBox="0 0 203 200" fill="none" xmlns="http://www.w3.org/2000/svg">
<path d="M163.43 70.6866C161.385 70.0026 159.322 69.369 157.243 68.7863C157.593 67.396 157.914 66.0225 158.199 64.6731C162.883 42.5153 159.821 24.6644 149.363 18.787C139.335 13.1526 122.937 19.0278 106.375 33.075C104.743 34.4619 103.147 35.8888 101.588 37.3543C100.545 36.3798 99.4836 35.4242 98.4041 34.488C81.0465 19.4683 63.6483 13.138 53.2013 19.0322C43.183 24.6841 40.2165 41.4652 44.4331 62.4647C44.8526 64.5445 45.3263 66.6136 45.8537 68.6699C43.391 69.3519 41.0146 70.0778 38.7403 70.8505C18.3899 77.7655 5.39385 88.6019 5.39385 99.8421C5.39385 111.451 19.3457 123.095 40.5416 130.156C42.26 130.726 43.9927 131.254 45.7381 131.74C45.1712 133.955 44.6679 136.185 44.2289 138.427C40.209 159.062 43.3482 175.447 53.3394 181.063C63.6588 186.862 80.9789 180.902 97.8432 166.534C99.2107 165.366 100.548 164.165 101.854 162.932C103.542 164.518 105.274 166.059 107.05 167.552C123.386 181.251 139.52 186.783 149.502 181.152C159.811 175.335 163.162 157.734 158.812 136.32C158.469 134.642 158.085 132.972 157.659 131.313C158.876 130.962 160.07 130.6 161.233 130.224C183.269 123.109 197.606 111.606 197.606 99.8421C197.606 88.5609 184.19 77.6513 163.43 70.6866ZM158.651 122.629C157.6 122.967 156.522 123.295 155.423 123.613C152.99 116.107 149.707 108.127 145.69 99.8809C149.523 91.8318 152.68 83.9531 155.044 76.4966C157.011 77.0513 158.918 77.636 160.758 78.2528C178.545 84.2209 189.395 93.0435 189.395 99.8421C189.395 107.083 177.677 116.484 158.651 122.629ZM150.757 137.874C152.681 147.342 152.955 155.904 151.681 162.597C150.536 168.611 148.234 172.621 145.387 174.227C139.33 177.644 126.376 173.202 112.406 161.486C110.754 160.098 109.142 158.665 107.572 157.19C112.989 151.418 118.402 144.707 123.684 137.253C132.977 136.45 141.755 135.136 149.716 133.342C150.1 134.844 150.447 136.355 150.757 137.874ZM70.923 173.636C65.005 175.673 60.2913 175.731 57.4419 174.13C51.379 170.722 48.8585 157.566 52.2965 139.92C52.7052 137.834 53.1732 135.761 53.6998 133.701C61.573 135.398 70.2878 136.619 79.6019 137.355C84.9207 144.648 90.4896 151.352 96.102 157.222C94.9093 158.347 93.6883 159.443 92.4403 160.509C84.9823 166.862 77.5093 171.369 70.923 173.636ZM43.198 122.584C33.8254 119.462 26.0852 115.404 20.7798 110.976C16.0121 106.998 13.6056 103.047 13.6056 99.8421C13.6056 93.0208 24.0399 84.3204 41.4433 78.4072C43.5554 77.6901 45.7658 77.0133 48.0596 76.3781C50.4653 84.0029 53.6202 91.9752 57.4277 100.037C53.5707 108.218 50.3707 116.317 47.9417 124.032C46.3486 123.587 44.7668 123.104 43.198 122.584ZM52.4917 60.9274C48.8795 42.936 51.2784 29.3644 57.3158 25.9581C63.7459 22.3301 77.9651 27.5028 92.9523 40.4722C93.9296 41.3199 94.8911 42.1847 95.8363 43.0663C90.2516 48.9107 84.7338 55.5644 79.4622 62.8145C70.4223 63.6311 61.769 64.9424 53.8132 66.6993C53.323 64.7867 52.8824 62.8616 52.4917 60.9274ZM135.403 80.8805C133.524 77.7171 131.575 74.5936 129.558 71.512C135.691 72.2679 141.567 73.2711 147.085 74.4975C145.428 79.6724 143.364 85.0822 140.933 90.6288C139.157 87.3438 137.313 84.0937 135.403 80.8805ZM101.592 48.7856C105.379 52.7845 109.172 57.2489 112.903 62.093C105.335 61.7447 97.754 61.7432 90.1855 62.0886C93.9201 57.2891 97.7456 52.8306 101.592 48.7856ZM67.5639 80.9354C65.678 84.1227 63.8688 87.3526 62.1376 90.6222C59.747 85.0953 57.701 79.6607 56.0304 74.4126C61.5144 73.217 67.3626 72.2394 73.4563 71.4974C71.4167 74.5978 69.452 77.7451 67.5639 80.9354ZM73.6313 128.756C67.3356 128.071 61.3996 127.144 55.917 125.981C57.6139 120.639 59.7049 115.089 62.1474 109.443C63.8854 112.715 65.7022 115.947 67.5961 119.136C69.5438 122.414 71.5605 125.625 73.6313 128.756ZM101.819 151.462C97.9266 147.37 94.0448 142.843 90.2539 137.974C93.9344 138.114 97.6863 138.186 101.5 138.186C105.418 138.186 109.29 138.101 113.102 137.935C109.359 142.892 105.58 147.426 101.819 151.462ZM141.011 109.155C143.58 114.863 145.745 120.384 147.465 125.634C141.892 126.873 135.875 127.872 129.535 128.613C131.566 125.474 133.534 122.296 135.436 119.081C137.369 115.813 139.228 112.504 141.011 109.155ZM128.323 115.083C125.411 120.012 122.336 124.848 119.102 129.582C113.244 129.987 107.373 130.188 101.5 130.185C95.5179 130.185 89.6997 130.003 84.0971 129.649C80.7786 124.925 77.6446 120.081 74.702 115.127C71.7731 110.199 69.0382 105.164 66.5014 100.033C69.0317 94.9013 71.7591 89.8641 74.6779 84.9322L74.6772 84.9329C77.5949 79.9997 80.7038 75.1762 83.9972 70.4729C89.7133 70.0515 95.575 69.8319 101.499 69.8319C107.45 69.8319 113.32 70.0537 119.035 70.4781C122.295 75.1743 125.384 79.9812 128.296 84.8897C131.225 89.8108 133.988 94.8235 136.582 99.9197C134.015 105.068 131.26 110.126 128.323 115.083ZM145.262 25.7196C151.698 29.3373 154.201 43.926 150.157 63.0575C149.899 64.278 149.609 65.5212 149.294 66.782C141.318 64.9878 132.659 63.6538 123.593 62.8248C118.312 55.4949 112.839 48.8309 107.345 43.0619C108.785 41.7092 110.259 40.3917 111.766 39.1105C125.956 27.0755 139.219 22.3235 145.262 25.7196ZM101.5 83.1145C110.979 83.1145 118.664 90.6039 118.664 99.8421C118.664 109.08 110.979 116.57 101.5 116.57C92.0205 116.57 84.3358 109.08 84.3358 99.8421C84.3358 90.6039 92.0205 83.1145 101.5 83.1145Z" fill="#00D8FF"/>
</svg>
