<svg width="299" height="80" viewBox="0 0 299 80" fill="none" xmlns="http://www.w3.org/2000/svg">
<path d="M32.4424 23.4716V3.80953H48.5407V64.2704H32.4424V60.4608C31.3364 61.5668 29.9846 62.427 28.51 63.1644C26.298 64.2704 23.7174 64.7619 20.8909 64.7619C16.7128 64.7619 13.149 63.7788 9.95392 61.8126C6.75883 59.8464 4.30108 57.1429 2.58065 53.5791C0.860215 50.1382 0 46.083 0 41.5361C0 36.9892 0.860215 33.1797 2.58065 29.7389C4.30108 26.298 6.75883 23.5945 9.83103 21.7512C12.9032 19.9078 16.5899 18.9247 20.6452 18.9247C23.4716 18.9247 26.1751 19.5392 28.51 20.6452C29.9846 21.3825 31.3364 22.2427 32.5653 23.3487L32.4424 23.4716ZM24.3318 51.7358C26.7896 51.7358 28.6329 50.8756 30.1075 49.1551C31.5822 47.4347 32.3195 45.0998 32.3195 42.1505C32.3195 39.2012 31.5822 36.8664 30.1075 35.1459C28.6329 33.4255 26.6667 32.5653 24.3318 32.5653C21.9969 32.5653 20.0307 33.4255 18.4332 35.1459C16.9585 36.8664 16.0983 39.2012 16.0983 42.1505C16.0983 45.0998 16.8356 47.3118 18.4332 49.1551C19.1572 50.0034 20.0642 50.6763 21.0859 51.1233C22.1076 51.5703 23.2174 51.7797 24.3318 51.7358ZM80.4916 36.6206C80.4916 35.1459 79.8771 34.0399 78.7711 33.3026C77.5422 32.3195 75.8218 31.828 73.3641 31.828C71.6436 31.828 69.8003 32.0737 67.5883 32.6882C65.3763 33.3026 63.2872 34.0399 61.0753 35.1459L60.0922 35.6375L55.4224 24.2089L56.2826 23.8403C59.8464 22.2427 63.1644 21.0138 66.4823 20.2765C69.6774 19.5392 73.1183 19.0476 76.5591 19.0476C82.7035 19.0476 87.4962 20.5223 90.937 23.3487C94.3779 26.298 96.2212 30.3533 96.2212 35.5146V64.2704H80.3687V61.0753C77.4194 63.6559 73.4869 64.8848 68.5714 64.8848C63.6559 64.8848 59.9693 63.533 57.1429 60.9524C54.3164 58.2488 52.9647 54.808 52.9647 50.5069C52.9647 46.2058 54.5622 42.765 57.5115 40.3072C60.4608 37.8495 64.7619 36.6206 70.2919 36.6206H80.4916ZM80.4916 48.6636V46.2058H73.2412C69.8003 46.2058 68.4485 47.3118 68.4485 49.5238C68.4485 50.6298 68.8172 51.6129 69.5545 52.2273C70.4147 52.9647 71.5207 53.3333 73.1183 53.3333C74.9616 53.3333 76.682 52.8418 78.0338 51.9816C79.3856 51.1214 80.1229 50.0154 80.4916 48.7865V48.6636ZM111.582 16.9585C110.466 16.9881 109.356 16.788 108.321 16.3708C107.285 15.9535 106.347 15.3279 105.563 14.5328C104.78 13.7378 104.168 12.7902 103.766 11.7488C103.364 10.7075 103.18 9.59461 103.226 8.47927C103.226 6.1444 103.963 3.93242 105.561 2.33488C107.158 0.737334 109.247 0 111.582 0C113.917 0 116.006 0.860222 117.604 2.33488C119.201 3.93242 119.939 6.02151 119.939 8.47927C119.939 10.937 119.201 12.9032 117.604 14.5008C116.006 16.0983 113.917 16.9585 111.582 16.9585ZM119.693 19.5392V64.1475H103.717V19.5392H119.693ZM144.393 64.7619C140.707 64.7619 137.143 64.2704 133.702 63.1644C130.261 62.0584 127.189 60.5837 124.608 58.4946L123.994 58.0031L129.278 47.0661L130.261 47.8034C132.596 49.4009 135.054 50.6298 137.634 51.6129C140.215 52.4731 142.55 52.9647 144.762 52.9647C145.991 52.9647 146.851 52.7189 147.465 52.4731C147.957 52.2273 148.08 51.8587 148.08 51.49C148.08 50.8756 147.711 50.384 146.851 50.0154C145.745 49.5238 143.902 48.9094 141.444 48.172C138.372 47.3118 135.914 46.3287 133.948 45.4685C131.859 44.4854 130.015 43.1336 128.541 41.2903C126.86 39.1615 125.989 36.5051 126.083 33.7942C126.083 29.1244 127.803 25.4378 131.367 22.8571C134.931 20.2765 139.232 19.0476 144.639 19.0476C147.834 19.0476 151.029 19.5392 154.101 20.3994C157.174 21.2596 160.123 22.4885 162.949 24.2089L163.81 24.7005L158.157 35.6375L157.174 35.1459C151.767 32.3195 147.465 30.9677 144.147 30.9677C143.164 30.9677 142.304 30.9677 141.813 31.4593C141.444 31.7051 141.198 32.0737 141.198 32.5653C141.198 33.0568 141.567 33.5484 142.304 33.9171C143.41 34.4086 145.131 35.023 147.588 35.7604C150.661 36.6206 153.241 37.6037 155.33 38.4639C157.542 39.447 159.386 40.7988 160.983 42.6421C162.581 44.6083 163.441 47.1889 163.441 50.1382C163.441 54.808 161.598 58.4946 158.034 61.0753C154.47 63.6559 149.923 64.8848 144.393 64.8848V64.7619ZM183.717 61.9355L165.653 19.4163H182.366L191.705 44.977L200.061 19.4163H216.283L215.668 20.8909L197.358 67.5883C195.637 71.7665 193.425 74.8387 190.476 76.9278C187.527 79.0169 183.963 80 179.785 80C177.327 80 174.992 79.6313 172.78 78.894C170.568 78.1567 168.479 76.9278 166.513 75.3303L165.776 74.7158L172.657 63.1644L173.641 63.9017C174.501 64.639 175.361 65.2535 176.221 65.4992C176.959 65.8679 177.819 65.9908 178.679 65.9908C180.645 65.9908 181.874 65.1306 182.857 63.2873L183.594 61.8126H183.717V61.9355Z" fill="#550DEB"/>
<path d="M250.323 68.5714C245.161 68.5714 240.492 67.5883 236.559 65.4992C232.627 63.4101 229.432 60.5836 227.343 56.7741C225.131 52.9646 224.147 48.6635 224.147 43.748V10.3225H240.614V43.748C240.614 46.9431 241.598 49.4009 243.441 51.3671C245.284 53.2104 247.619 54.1935 250.445 54.1935C253.272 54.1935 255.484 53.3333 257.204 51.3671C258.925 49.5237 259.785 46.9431 259.785 43.748V10.3225H276.252V43.748C276.252 48.6635 275.146 53.0875 273.057 56.7741C270.968 60.5836 267.896 63.4101 263.963 65.4992C260.031 67.4654 255.484 68.5714 250.323 68.5714ZM298.372 67.5883H281.905V10.3225H298.372V67.5883Z" fill="#2B3444"/>
</svg>
