<svg id="visual" viewBox="0 0 960 540" width="960" height="540" xmlns="http://www.w3.org/2000/svg" xmlns:xlink="http://www.w3.org/1999/xlink" version="1.1"><path d="M0 42L7 41.5C14 41 28 40 41.8 39C55.7 38 69.3 37 83.2 36.7C97 36.3 111 36.7 125 35.2C139 33.7 153 30.3 167 31C181 31.7 195 36.3 208.8 36.3C222.7 36.3 236.3 31.7 250.2 29.8C264 28 278 29 292 31.8C306 34.7 320 39.3 334 41.2C348 43 362 42 375.8 41.5C389.7 41 403.3 41 417.2 41.7C431 42.3 445 43.7 459 41.3C473 39 487 33 501 29.8C515 26.7 529 26.3 542.8 27.3C556.7 28.3 570.3 30.7 584.2 33C598 35.3 612 37.7 626 36.8C640 36 654 32 668 29.3C682 26.7 696 25.3 709.8 26.5C723.7 27.7 737.3 31.3 751.2 34.2C765 37 779 39 793 39.2C807 39.3 821 37.7 835 37.8C849 38 863 40 876.8 38.5C890.7 37 904.3 32 918.2 31.5C932 31 946 35 953 37L960 39L960 0L953 0C946 0 932 0 918.2 0C904.3 0 890.7 0 876.8 0C863 0 849 0 835 0C821 0 807 0 793 0C779 0 765 0 751.2 0C737.3 0 723.7 0 709.8 0C696 0 682 0 668 0C654 0 640 0 626 0C612 0 598 0 584.2 0C570.3 0 556.7 0 542.8 0C529 0 515 0 501 0C487 0 473 0 459 0C445 0 431 0 417.2 0C403.3 0 389.7 0 375.8 0C362 0 348 0 334 0C320 0 306 0 292 0C278 0 264 0 250.2 0C236.3 0 222.7 0 208.8 0C195 0 181 0 167 0C153 0 139 0 125 0C111 0 97 0 83.2 0C69.3 0 55.7 0 41.8 0C28 0 14 0 7 0L0 0Z" fill="#6865eb"></path><path d="M0 22L7 24.2C14 26.3 28 30.7 41.8 31.8C55.7 33 69.3 31 83.2 31.3C97 31.7 111 34.3 125 35.5C139 36.7 153 36.3 167 36.8C181 37.3 195 38.7 208.8 36.2C222.7 33.7 236.3 27.3 250.2 24.5C264 21.7 278 22.3 292 22.2C306 22 320 21 334 22.5C348 24 362 28 375.8 29.2C389.7 30.3 403.3 28.7 417.2 29.8C431 31 445 35 459 34.8C473 34.7 487 30.3 501 29.7C515 29 529 32 542.8 32.2C556.7 32.3 570.3 29.7 584.2 28.2C598 26.7 612 26.3 626 28.7C640 31 654 36 668 37.2C682 38.3 696 35.7 709.8 32.8C723.7 30 737.3 27 751.2 26C765 25 779 26 793 28.8C807 31.7 821 36.3 835 36.5C849 36.7 863 32.3 876.8 29.3C890.7 26.3 904.3 24.7 918.2 25.2C932 25.7 946 28.3 953 29.7L960 31L960 0L953 0C946 0 932 0 918.2 0C904.3 0 890.7 0 876.8 0C863 0 849 0 835 0C821 0 807 0 793 0C779 0 765 0 751.2 0C737.3 0 723.7 0 709.8 0C696 0 682 0 668 0C654 0 640 0 626 0C612 0 598 0 584.2 0C570.3 0 556.7 0 542.8 0C529 0 515 0 501 0C487 0 473 0 459 0C445 0 431 0 417.2 0C403.3 0 389.7 0 375.8 0C362 0 348 0 334 0C320 0 306 0 292 0C278 0 264 0 250.2 0C236.3 0 222.7 0 208.8 0C195 0 181 0 167 0C153 0 139 0 125 0C111 0 97 0 83.2 0C69.3 0 55.7 0 41.8 0C28 0 14 0 7 0L0 0Z" fill="#695ed8"></path><path d="M0 25L7 25.3C14 25.7 28 26.3 41.8 27.7C55.7 29 69.3 31 83.2 32.3C97 33.7 111 34.3 125 31.7C139 29 153 23 167 20.2C181 17.3 195 17.7 208.8 20.5C222.7 23.3 236.3 28.7 250.2 29.7C264 30.7 278 27.3 292 24.8C306 22.3 320 20.7 334 21.7C348 22.7 362 26.3 375.8 27.2C389.7 28 403.3 26 417.2 26.5C431 27 445 30 459 31.5C473 33 487 33 501 32.7C515 32.3 529 31.7 542.8 29.3C556.7 27 570.3 23 584.2 24C598 25 612 31 626 31.5C640 32 654 27 668 26.2C682 25.3 696 28.7 709.8 30.8C723.7 33 737.3 34 751.2 33.7C765 33.3 779 31.7 793 30C807 28.3 821 26.7 835 25.8C849 25 863 25 876.8 24.8C890.7 24.7 904.3 24.3 918.2 24.5C932 24.7 946 25.3 953 25.7L960 26L960 0L953 0C946 0 932 0 918.2 0C904.3 0 890.7 0 876.8 0C863 0 849 0 835 0C821 0 807 0 793 0C779 0 765 0 751.2 0C737.3 0 723.7 0 709.8 0C696 0 682 0 668 0C654 0 640 0 626 0C612 0 598 0 584.2 0C570.3 0 556.7 0 542.8 0C529 0 515 0 501 0C487 0 473 0 459 0C445 0 431 0 417.2 0C403.3 0 389.7 0 375.8 0C362 0 348 0 334 0C320 0 306 0 292 0C278 0 264 0 250.2 0C236.3 0 222.7 0 208.8 0C195 0 181 0 167 0C153 0 139 0 125 0C111 0 97 0 83.2 0C69.3 0 55.7 0 41.8 0C28 0 14 0 7 0L0 0Z" fill="#6858c5"></path><path d="M0 32L7 30.5C14 29 28 26 41.8 26.2C55.7 26.3 69.3 29.7 83.2 30.3C97 31 111 29 125 28.2C139 27.3 153 27.7 167 28.5C181 29.3 195 30.7 208.8 28.8C222.7 27 236.3 22 250.2 20C264 18 278 19 292 20.8C306 22.7 320 25.3 334 27.3C348 29.3 362 30.7 375.8 31C389.7 31.3 403.3 30.7 417.2 30.3C431 30 445 30 459 29.3C473 28.7 487 27.3 501 25.2C515 23 529 20 542.8 19.3C556.7 18.7 570.3 20.3 584.2 20.3C598 20.3 612 18.7 626 19.2C640 19.7 654 22.3 668 22.5C682 22.7 696 20.3 709.8 19C723.7 17.7 737.3 17.3 751.2 18C765 18.7 779 20.3 793 20.3C807 20.3 821 18.7 835 20.5C849 22.3 863 27.7 876.8 27.8C890.7 28 904.3 23 918.2 21.7C932 20.3 946 22.7 953 23.8L960 25L960 0L953 0C946 0 932 0 918.2 0C904.3 0 890.7 0 876.8 0C863 0 849 0 835 0C821 0 807 0 793 0C779 0 765 0 751.2 0C737.3 0 723.7 0 709.8 0C696 0 682 0 668 0C654 0 640 0 626 0C612 0 598 0 584.2 0C570.3 0 556.7 0 542.8 0C529 0 515 0 501 0C487 0 473 0 459 0C445 0 431 0 417.2 0C403.3 0 389.7 0 375.8 0C362 0 348 0 334 0C320 0 306 0 292 0C278 0 264 0 250.2 0C236.3 0 222.7 0 208.8 0C195 0 181 0 167 0C153 0 139 0 125 0C111 0 97 0 83.2 0C69.3 0 55.7 0 41.8 0C28 0 14 0 7 0L0 0Z" fill="#6552b2"></path><path d="M0 30L7 27.7C14 25.3 28 20.7 41.8 19.5C55.7 18.3 69.3 20.7 83.2 21C97 21.3 111 19.7 125 18.2C139 16.7 153 15.3 167 14.7C181 14 195 14 208.8 14.8C222.7 15.7 236.3 17.3 250.2 17.8C264 18.3 278 17.7 292 18.7C306 19.7 320 22.3 334 23.2C348 24 362 23 375.8 22.3C389.7 21.7 403.3 21.3 417.2 20.5C431 19.7 445 18.3 459 17.3C473 16.3 487 15.7 501 16.7C515 17.7 529 20.3 542.8 21.8C556.7 23.3 570.3 23.7 584.2 25C598 26.3 612 28.7 626 27.7C640 26.7 654 22.3 668 20C682 17.7 696 17.3 709.8 17.2C723.7 17 737.3 17 751.2 17C765 17 779 17 793 17C807 17 821 17 835 17.8C849 18.7 863 20.3 876.8 21.7C890.7 23 904.3 24 918.2 25.3C932 26.7 946 28.3 953 29.2L960 30L960 0L953 0C946 0 932 0 918.2 0C904.3 0 890.7 0 876.8 0C863 0 849 0 835 0C821 0 807 0 793 0C779 0 765 0 751.2 0C737.3 0 723.7 0 709.8 0C696 0 682 0 668 0C654 0 640 0 626 0C612 0 598 0 584.2 0C570.3 0 556.7 0 542.8 0C529 0 515 0 501 0C487 0 473 0 459 0C445 0 431 0 417.2 0C403.3 0 389.7 0 375.8 0C362 0 348 0 334 0C320 0 306 0 292 0C278 0 264 0 250.2 0C236.3 0 222.7 0 208.8 0C195 0 181 0 167 0C153 0 139 0 125 0C111 0 97 0 83.2 0C69.3 0 55.7 0 41.8 0C28 0 14 0 7 0L0 0Z" fill="#614ca1"></path><path d="M0 15L7 14.8C14 14.7 28 14.3 41.8 16C55.7 17.7 69.3 21.3 83.2 21.3C97 21.3 111 17.7 125 16.7C139 15.7 153 17.3 167 18.8C181 20.3 195 21.7 208.8 22.3C222.7 23 236.3 23 250.2 23.3C264 23.7 278 24.3 292 22.8C306 21.3 320 17.7 334 16.3C348 15 362 16 375.8 15.8C389.7 15.7 403.3 14.3 417.2 16C431 17.7 445 22.3 459 23.3C473 24.3 487 21.7 501 19.5C515 17.3 529 15.7 542.8 14.8C556.7 14 570.3 14 584.2 15.2C598 16.3 612 18.7 626 20.8C640 23 654 25 668 24.5C682 24 696 21 709.8 19C723.7 17 737.3 16 751.2 17.3C765 18.7 779 22.3 793 23.2C807 24 821 22 835 20C849 18 863 16 876.8 16.3C890.7 16.7 904.3 19.3 918.2 20.3C932 21.3 946 20.7 953 20.3L960 20L960 0L953 0C946 0 932 0 918.2 0C904.3 0 890.7 0 876.8 0C863 0 849 0 835 0C821 0 807 0 793 0C779 0 765 0 751.2 0C737.3 0 723.7 0 709.8 0C696 0 682 0 668 0C654 0 640 0 626 0C612 0 598 0 584.2 0C570.3 0 556.7 0 542.8 0C529 0 515 0 501 0C487 0 473 0 459 0C445 0 431 0 417.2 0C403.3 0 389.7 0 375.8 0C362 0 348 0 334 0C320 0 306 0 292 0C278 0 264 0 250.2 0C236.3 0 222.7 0 208.8 0C195 0 181 0 167 0C153 0 139 0 125 0C111 0 97 0 83.2 0C69.3 0 55.7 0 41.8 0C28 0 14 0 7 0L0 0Z" fill="#5d478f"></path><path d="M0 11L7 11.2C14 11.3 28 11.7 41.8 13.5C55.7 15.3 69.3 18.7 83.2 20C97 21.3 111 20.7 125 19.5C139 18.3 153 16.7 167 15C181 13.3 195 11.7 208.8 12.8C222.7 14 236.3 18 250.2 18.5C264 19 278 16 292 14.2C306 12.3 320 11.7 334 11.3C348 11 362 11 375.8 11.5C389.7 12 403.3 13 417.2 13.2C431 13.3 445 12.7 459 12.5C473 12.3 487 12.7 501 12.5C515 12.3 529 11.7 542.8 12.8C556.7 14 570.3 17 584.2 16.8C598 16.7 612 13.3 626 13.3C640 13.3 654 16.7 668 18C682 19.3 696 18.7 709.8 17.5C723.7 16.3 737.3 14.7 751.2 14.3C765 14 779 15 793 15.8C807 16.7 821 17.3 835 18.2C849 19 863 20 876.8 20.2C890.7 20.3 904.3 19.7 918.2 19.5C932 19.3 946 19.7 953 19.8L960 20L960 0L953 0C946 0 932 0 918.2 0C904.3 0 890.7 0 876.8 0C863 0 849 0 835 0C821 0 807 0 793 0C779 0 765 0 751.2 0C737.3 0 723.7 0 709.8 0C696 0 682 0 668 0C654 0 640 0 626 0C612 0 598 0 584.2 0C570.3 0 556.7 0 542.8 0C529 0 515 0 501 0C487 0 473 0 459 0C445 0 431 0 417.2 0C403.3 0 389.7 0 375.8 0C362 0 348 0 334 0C320 0 306 0 292 0C278 0 264 0 250.2 0C236.3 0 222.7 0 208.8 0C195 0 181 0 167 0C153 0 139 0 125 0C111 0 97 0 83.2 0C69.3 0 55.7 0 41.8 0C28 0 14 0 7 0L0 0Z" fill="#57417f"></path><path d="M0 19L7 18.5C14 18 28 17 41.8 16.3C55.7 15.7 69.3 15.3 83.2 14.8C97 14.3 111 13.7 125 14.5C139 15.3 153 17.7 167 18C181 18.3 195 16.7 208.8 16.5C222.7 16.3 236.3 17.7 250.2 18C264 18.3 278 17.7 292 17C306 16.3 320 15.7 334 14.7C348 13.7 362 12.3 375.8 12.3C389.7 12.3 403.3 13.7 417.2 14.2C431 14.7 445 14.3 459 13.3C473 12.3 487 10.7 501 11C515 11.3 529 13.7 542.8 15.2C556.7 16.7 570.3 17.3 584.2 16.2C598 15 612 12 626 11.3C640 10.7 654 12.3 668 12.8C682 13.3 696 12.7 709.8 13.7C723.7 14.7 737.3 17.3 751.2 17.8C765 18.3 779 16.7 793 15.8C807 15 821 15 835 14.5C849 14 863 13 876.8 13.5C890.7 14 904.3 16 918.2 16.5C932 17 946 16 953 15.5L960 15L960 0L953 0C946 0 932 0 918.2 0C904.3 0 890.7 0 876.8 0C863 0 849 0 835 0C821 0 807 0 793 0C779 0 765 0 751.2 0C737.3 0 723.7 0 709.8 0C696 0 682 0 668 0C654 0 640 0 626 0C612 0 598 0 584.2 0C570.3 0 556.7 0 542.8 0C529 0 515 0 501 0C487 0 473 0 459 0C445 0 431 0 417.2 0C403.3 0 389.7 0 375.8 0C362 0 348 0 334 0C320 0 306 0 292 0C278 0 264 0 250.2 0C236.3 0 222.7 0 208.8 0C195 0 181 0 167 0C153 0 139 0 125 0C111 0 97 0 83.2 0C69.3 0 55.7 0 41.8 0C28 0 14 0 7 0L0 0Z" fill="#513d6f"></path><path d="M0 16L7 15.5C14 15 28 14 41.8 12.8C55.7 11.7 69.3 10.3 83.2 10.2C97 10 111 11 125 11C139 11 153 10 167 9.3C181 8.7 195 8.3 208.8 8.5C222.7 8.7 236.3 9.3 250.2 9.8C264 10.3 278 10.7 292 11.2C306 11.7 320 12.3 334 12.2C348 12 362 11 375.8 10C389.7 9 403.3 8 417.2 7.7C431 7.3 445 7.7 459 8.7C473 9.7 487 11.3 501 11.5C515 11.7 529 10.3 542.8 10.2C556.7 10 570.3 11 584.2 11.8C598 12.7 612 13.3 626 13.3C640 13.3 654 12.7 668 12.3C682 12 696 12 709.8 12.5C723.7 13 737.3 14 751.2 13.7C765 13.3 779 11.7 793 10.8C807 10 821 10 835 10C849 10 863 10 876.8 10C890.7 10 904.3 10 918.2 9.8C932 9.7 946 9.3 953 9.2L960 9L960 0L953 0C946 0 932 0 918.2 0C904.3 0 890.7 0 876.8 0C863 0 849 0 835 0C821 0 807 0 793 0C779 0 765 0 751.2 0C737.3 0 723.7 0 709.8 0C696 0 682 0 668 0C654 0 640 0 626 0C612 0 598 0 584.2 0C570.3 0 556.7 0 542.8 0C529 0 515 0 501 0C487 0 473 0 459 0C445 0 431 0 417.2 0C403.3 0 389.7 0 375.8 0C362 0 348 0 334 0C320 0 306 0 292 0C278 0 264 0 250.2 0C236.3 0 222.7 0 208.8 0C195 0 181 0 167 0C153 0 139 0 125 0C111 0 97 0 83.2 0C69.3 0 55.7 0 41.8 0C28 0 14 0 7 0L0 0Z" fill="#4a385f"></path><path d="M0 7L7 7.2C14 7.3 28 7.7 41.8 8C55.7 8.3 69.3 8.7 83.2 9.3C97 10 111 11 125 11C139 11 153 10 167 9C181 8 195 7 208.8 6.5C222.7 6 236.3 6 250.2 6.2C264 6.3 278 6.7 292 6.7C306 6.7 320 6.3 334 6C348 5.7 362 5.3 375.8 5.8C389.7 6.3 403.3 7.7 417.2 8.5C431 9.3 445 9.7 459 9.3C473 9 487 8 501 8C515 8 529 9 542.8 9.3C556.7 9.7 570.3 9.3 584.2 9.3C598 9.3 612 9.7 626 10.3C640 11 654 12 668 11.8C682 11.7 696 10.3 709.8 9.3C723.7 8.3 737.3 7.7 751.2 7.5C765 7.3 779 7.7 793 7.3C807 7 821 6 835 5.7C849 5.3 863 5.7 876.8 5.8C890.7 6 904.3 6 918.2 6C932 6 946 6 953 6L960 6L960 0L953 0C946 0 932 0 918.2 0C904.3 0 890.7 0 876.8 0C863 0 849 0 835 0C821 0 807 0 793 0C779 0 765 0 751.2 0C737.3 0 723.7 0 709.8 0C696 0 682 0 668 0C654 0 640 0 626 0C612 0 598 0 584.2 0C570.3 0 556.7 0 542.8 0C529 0 515 0 501 0C487 0 473 0 459 0C445 0 431 0 417.2 0C403.3 0 389.7 0 375.8 0C362 0 348 0 334 0C320 0 306 0 292 0C278 0 264 0 250.2 0C236.3 0 222.7 0 208.8 0C195 0 181 0 167 0C153 0 139 0 125 0C111 0 97 0 83.2 0C69.3 0 55.7 0 41.8 0C28 0 14 0 7 0L0 0Z" fill="#423451"></path><path d="M0 7L7 7C14 7 28 7 41.8 7C55.7 7 69.3 7 83.2 6.7C97 6.3 111 5.7 125 5C139 4.3 153 3.7 167 4.2C181 4.7 195 6.3 208.8 6.5C222.7 6.7 236.3 5.3 250.2 4.5C264 3.7 278 3.3 292 3.3C306 3.3 320 3.7 334 3.7C348 3.7 362 3.3 375.8 3.2C389.7 3 403.3 3 417.2 3.7C431 4.3 445 5.7 459 6.2C473 6.7 487 6.3 501 5.8C515 5.3 529 4.7 542.8 5C556.7 5.3 570.3 6.7 584.2 6.8C598 7 612 6 626 6C640 6 654 7 668 7.7C682 8.3 696 8.7 709.8 8.5C723.7 8.3 737.3 7.7 751.2 7.5C765 7.3 779 7.7 793 7.7C807 7.7 821 7.3 835 7.2C849 7 863 7 876.8 7.2C890.7 7.3 904.3 7.7 918.2 7C932 6.3 946 4.7 953 3.8L960 3L960 0L953 0C946 0 932 0 918.2 0C904.3 0 890.7 0 876.8 0C863 0 849 0 835 0C821 0 807 0 793 0C779 0 765 0 751.2 0C737.3 0 723.7 0 709.8 0C696 0 682 0 668 0C654 0 640 0 626 0C612 0 598 0 584.2 0C570.3 0 556.7 0 542.8 0C529 0 515 0 501 0C487 0 473 0 459 0C445 0 431 0 417.2 0C403.3 0 389.7 0 375.8 0C362 0 348 0 334 0C320 0 306 0 292 0C278 0 264 0 250.2 0C236.3 0 222.7 0 208.8 0C195 0 181 0 167 0C153 0 139 0 125 0C111 0 97 0 83.2 0C69.3 0 55.7 0 41.8 0C28 0 14 0 7 0L0 0Z" fill="#3a2f42"></path><path d="M0 3L7 3C14 3 28 3 41.8 2.8C55.7 2.7 69.3 2.3 83.2 2.7C97 3 111 4 125 4.3C139 4.7 153 4.3 167 3.7C181 3 195 2 208.8 1.8C222.7 1.7 236.3 2.3 250.2 2.7C264 3 278 3 292 3.3C306 3.7 320 4.3 334 4.8C348 5.3 362 5.7 375.8 5.5C389.7 5.3 403.3 4.7 417.2 4.5C431 4.3 445 4.7 459 4.3C473 4 487 3 501 3C515 3 529 4 542.8 4.3C556.7 4.7 570.3 4.3 584.2 4C598 3.7 612 3.3 626 3.5C640 3.7 654 4.3 668 4.2C682 4 696 3 709.8 3C723.7 3 737.3 4 751.2 3.8C765 3.7 779 2.3 793 1.8C807 1.3 821 1.7 835 2.2C849 2.7 863 3.3 876.8 3.8C890.7 4.3 904.3 4.7 918.2 4.7C932 4.7 946 4.3 953 4.2L960 4L960 0L953 0C946 0 932 0 918.2 0C904.3 0 890.7 0 876.8 0C863 0 849 0 835 0C821 0 807 0 793 0C779 0 765 0 751.2 0C737.3 0 723.7 0 709.8 0C696 0 682 0 668 0C654 0 640 0 626 0C612 0 598 0 584.2 0C570.3 0 556.7 0 542.8 0C529 0 515 0 501 0C487 0 473 0 459 0C445 0 431 0 417.2 0C403.3 0 389.7 0 375.8 0C362 0 348 0 334 0C320 0 306 0 292 0C278 0 264 0 250.2 0C236.3 0 222.7 0 208.8 0C195 0 181 0 167 0C153 0 139 0 125 0C111 0 97 0 83.2 0C69.3 0 55.7 0 41.8 0C28 0 14 0 7 0L0 0Z" fill="#312b35"></path></svg>