<svg width="1920" height="100" viewBox="0 0 1920 100" fill="none" xmlns="http://www.w3.org/2000/svg">
<path d="M0 66.8333L46.1056 68.9167C92.2111 71 184.422 75.1667 276.204 74.8833C368.201 74.6167 459.554 69.8833 551.551 67.3833C643.333 64.8833 735.544 64.6167 827.327 67.3C919.323 70 1010.68 75.6667 1102.67 74.7C1194.46 73.7167 1286.67 66.1167 1378.45 62.0833C1470.45 58.05 1561.8 57.6167 1653.8 58.05C1745.58 58.5 1837.79 59.8333 1883.89 60.5L1930 61.1667V0H1883.89C1837.79 0 1745.58 0 1653.8 0C1561.8 0 1470.45 0 1378.45 0C1286.67 0 1194.46 0 1102.67 0C1010.68 0 919.323 0 827.327 0C735.544 0 643.333 0 551.551 0C459.554 0 368.201 0 276.204 0C184.422 0 92.2111 0 46.1056 0H0V66.8333Z" fill="#6865EB"/>
<path d="M0 73L46.1056 73.55C92.2111 74.1167 184.422 75.2167 276.204 74.3667C368.201 73.5 459.554 70.6667 551.551 68.4667C643.333 66.2833 735.544 64.7167 827.327 64.2833C919.323 63.8333 1010.68 64.5 1102.67 66.45C1194.46 68.3833 1286.67 71.6167 1378.45 73.3833C1470.45 75.1667 1561.8 75.5 1653.8 73.7167C1745.58 71.95 1837.79 68.05 1883.89 66.1167L1930 64.1667V0H1883.89C1837.79 0 1745.58 0 1653.8 0C1561.8 0 1470.45 0 1378.45 0C1286.67 0 1194.46 0 1102.67 0C1010.68 0 919.323 0 827.327 0C735.544 0 643.333 0 551.551 0C459.554 0 368.201 0 276.204 0C184.422 0 92.2111 0 46.1056 0H0V73Z" fill="#695ED8"/>
<path d="M0 56L46.1056 55.1167C92.2111 54.2167 184.422 52.45 276.204 54.05C368.201 55.6667 459.554 60.6667 551.551 62.75C643.333 64.8333 735.544 64 827.327 63.6333C919.323 63.2833 1010.68 63.3833 1102.67 62.8333C1194.46 62.2833 1286.67 61.05 1378.45 58.3667C1470.45 55.6667 1561.8 51.5 1653.8 50.05C1745.58 48.6167 1837.79 49.8833 1883.89 50.5333L1930 51.1667V0H1883.89C1837.79 0 1745.58 0 1653.8 0C1561.8 0 1470.45 0 1378.45 0C1286.67 0 1194.46 0 1102.67 0C1010.68 0 919.323 0 827.327 0C735.544 0 643.333 0 551.551 0C459.554 0 368.201 0 276.204 0C184.422 0 92.2111 0 46.1056 0H0V56Z" fill="#6858C5"/>
<path d="M0 63.3333L46.1056 60.1333C92.2111 56.95 184.422 50.55 276.204 50.2833C368.201 50 459.554 55.8333 551.551 57C643.333 58.1667 735.544 54.6667 827.327 52.6333C919.323 50.6167 1010.68 50.05 1102.67 50.7833C1194.46 51.5 1286.67 53.5 1378.45 54.2C1470.45 54.8833 1561.8 54.2833 1653.8 55.8C1745.58 57.3333 1837.79 61 1883.89 62.8333L1930 64.6667V0H1883.89C1837.79 0 1745.58 0 1653.8 0C1561.8 0 1470.45 0 1378.45 0C1286.67 0 1194.46 0 1102.67 0C1010.68 0 919.323 0 827.327 0C735.544 0 643.333 0 551.551 0C459.554 0 368.201 0 276.204 0C184.422 0 92.2111 0 46.1056 0H0V63.3333Z" fill="#6552B2"/>
<path d="M0 55.3333L46.1056 52.95C92.2111 50.55 184.422 45.7833 276.204 45.55C368.201 45.3333 459.554 49.6667 551.551 50.05C643.333 50.45 735.544 46.8833 827.327 45.5833C919.323 44.2833 1010.68 45.2167 1102.67 46.3833C1194.46 47.55 1286.67 48.95 1378.45 50.8333C1470.45 52.7167 1561.8 55.1167 1653.8 56.1333C1745.58 57.1667 1837.79 56.8333 1883.89 56.6667L1930 56.5V0H1883.89C1837.79 0 1745.58 0 1653.8 0C1561.8 0 1470.45 0 1378.45 0C1286.67 0 1194.46 0 1102.67 0C1010.68 0 919.323 0 827.327 0C735.544 0 643.333 0 551.551 0C459.554 0 368.201 0 276.204 0C184.422 0 92.2111 0 46.1056 0H0V55.3333Z" fill="#614CA1"/>
<path d="M0 44.5L46.1056 44.6333C92.2111 44.7833 184.422 45.05 276.204 46.2C368.201 47.3333 459.554 49.3333 551.551 47.95C643.333 46.55 735.544 41.7833 827.327 39.1333C919.323 36.5 1010.68 36 1102.67 36.8667C1194.46 37.7167 1286.67 39.95 1378.45 40.9667C1470.45 42 1561.8 41.8333 1653.8 42.3667C1745.58 42.8833 1837.79 44.1167 1883.89 44.7167L1930 45.3333V0H1883.89C1837.79 0 1745.58 0 1653.8 0C1561.8 0 1470.45 0 1378.45 0C1286.67 0 1194.46 0 1102.67 0C1010.68 0 919.323 0 827.327 0C735.544 0 643.333 0 551.551 0C459.554 0 368.201 0 276.204 0C184.422 0 92.2111 0 46.1056 0H0V44.5Z" fill="#5D478F"/>
<path d="M0 31L46.1056 32.3833C92.2111 33.7833 184.422 36.55 276.204 37.1167C368.201 37.6667 459.554 36 551.551 36.4667C643.333 36.95 735.544 39.55 827.327 39.1167C919.323 38.6667 1010.68 35.1667 1102.67 35.45C1194.46 35.7167 1286.67 39.7833 1378.45 39.95C1470.45 40.1167 1561.8 36.3833 1653.8 34.7833C1745.58 33.1667 1837.79 33.6667 1883.89 33.9167L1930 34.1667V0H1883.89C1837.79 0 1745.58 0 1653.8 0C1561.8 0 1470.45 0 1378.45 0C1286.67 0 1194.46 0 1102.67 0C1010.68 0 919.323 0 827.327 0C735.544 0 643.333 0 551.551 0C459.554 0 368.201 0 276.204 0C184.422 0 92.2111 0 46.1056 0H0V31Z" fill="#57417F"/>
<path d="M0 27.3333L46.1056 27.0333C92.2111 26.7167 184.422 26.1167 276.204 26.1333C368.201 26.1667 459.554 26.8333 551.551 28.6333C643.333 30.45 735.544 33.3833 827.327 35C919.323 36.6167 1010.68 36.8833 1102.67 34.8833C1194.46 32.8833 1286.67 28.6167 1378.45 26.3C1470.45 24 1561.8 23.6667 1653.8 23.7C1745.58 23.7167 1837.79 24.1167 1883.89 24.3L1930 24.5V0H1883.89C1837.79 0 1745.58 0 1653.8 0C1561.8 0 1470.45 0 1378.45 0C1286.67 0 1194.46 0 1102.67 0C1010.68 0 919.323 0 827.327 0C735.544 0 643.333 0 551.551 0C459.554 0 368.201 0 276.204 0C184.422 0 92.2111 0 46.1056 0H0V27.3333Z" fill="#513D6F"/>
<path d="M0 23.3333L46.1056 24.1667C92.2111 25 184.422 26.6667 276.204 26.4667C368.201 26.2833 459.554 24.2167 551.551 24.45C643.333 24.6667 735.544 27.1667 827.327 27.5C919.323 27.8333 1010.68 26 1102.67 25.0833C1194.46 24.1667 1286.67 24.1667 1378.45 24.6667C1470.45 25.1667 1561.8 26.1667 1653.8 26.25C1745.58 26.3333 1837.79 25.5 1883.89 25.0833L1930 24.6667V0H1883.89C1837.79 0 1745.58 0 1653.8 0C1561.8 0 1470.45 0 1378.45 0C1286.67 0 1194.46 0 1102.67 0C1010.68 0 919.323 0 827.327 0C735.544 0 643.333 0 551.551 0C459.554 0 368.201 0 276.204 0C184.422 0 92.2111 0 46.1056 0H0V23.3333Z" fill="#4A385F"/>
<path d="M0 17.6667L46.1056 17.3333C92.2111 17 184.422 16.3333 276.204 16.5333C368.201 16.7167 459.554 17.7833 551.551 17.7167C643.333 17.6667 735.544 16.5 827.327 15.5833C919.323 14.6667 1010.68 14 1102.67 14.0333C1194.46 14.05 1286.67 14.7833 1378.45 15.4167C1470.45 16.05 1561.8 16.6167 1653.8 17.8833C1745.58 19.1667 1837.79 21.1667 1883.89 22.1667L1930 23.1667V0H1883.89C1837.79 0 1745.58 0 1653.8 0C1561.8 0 1470.45 0 1378.45 0C1286.67 0 1194.46 0 1102.67 0C1010.68 0 919.323 0 827.327 0C735.544 0 643.333 0 551.551 0C459.554 0 368.201 0 276.204 0C184.422 0 92.2111 0 46.1056 0H0V17.6667Z" fill="#423451"/>
<path d="M0 8.66667L46.1056 8.8C92.2111 8.95 184.422 9.21667 276.204 9.46667C368.201 9.71667 459.554 9.95 551.551 10.0333C643.333 10.1167 735.544 10.05 827.327 10.3833C919.323 10.7167 1010.68 11.45 1102.67 11.45C1194.46 11.45 1286.67 10.7167 1378.45 11.1333C1470.45 11.55 1561.8 13.1167 1653.8 14.3833C1745.58 15.6667 1837.79 16.6667 1883.89 17.1667L1930 17.6667V0H1883.89C1837.79 0 1745.58 0 1653.8 0C1561.8 0 1470.45 0 1378.45 0C1286.67 0 1194.46 0 1102.67 0C1010.68 0 919.323 0 827.327 0C735.544 0 643.333 0 551.551 0C459.554 0 368.201 0 276.204 0C184.422 0 92.2111 0 46.1056 0H0V8.66667Z" fill="#3A2F42"/>
<path d="M0 9.66667L46.1056 9.38333C92.2111 9.11667 184.422 8.55 276.204 8.2C368.201 7.83333 459.554 7.66667 551.551 7.38333C643.333 7.11667 735.544 6.71667 827.327 7.13333C919.323 7.55 1010.68 8.78333 1102.67 8.95C1194.46 9.11667 1286.67 8.21667 1378.45 8.05C1470.45 7.88333 1561.8 8.45 1653.8 8.45C1745.58 8.45 1837.79 7.88333 1883.89 7.61667L1930 7.33333V0H1883.89C1837.79 0 1745.58 0 1653.8 0C1561.8 0 1470.45 0 1378.45 0C1286.67 0 1194.46 0 1102.67 0C1010.68 0 919.323 0 827.327 0C735.544 0 643.333 0 551.551 0C459.554 0 368.201 0 276.204 0C184.422 0 92.2111 0 46.1056 0H0V9.66667Z" fill="#312B35"/>
</svg>
