<svg id="visual" viewBox="0 0 900 600" width="900" height="600" xmlns="http://www.w3.org/2000/svg" xmlns:xlink="http://www.w3.org/1999/xlink" version="1.1"><path d="M0 554L21.5 553.5C43 553 86 552 128.8 552.3C171.7 552.7 214.3 554.3 257.2 555.5C300 556.7 343 557.3 385.8 558.5C428.7 559.7 471.3 561.3 514.2 561C557 560.7 600 558.3 642.8 556.8C685.7 555.3 728.3 554.7 771.2 554C814 553.3 857 552.7 878.5 552.3L900 552L900 601L878.5 601C857 601 814 601 771.2 601C728.3 601 685.7 601 642.8 601C600 601 557 601 514.2 601C471.3 601 428.7 601 385.8 601C343 601 300 601 257.2 601C214.3 601 171.7 601 128.8 601C86 601 43 601 21.5 601L0 601Z" fill="#ac6bde"></path><path d="M0 554L21.5 555C43 556 86 558 128.8 559.3C171.7 560.7 214.3 561.3 257.2 561.5C300 561.7 343 561.3 385.8 561.2C428.7 561 471.3 561 514.2 560.8C557 560.7 600 560.3 642.8 559.5C685.7 558.7 728.3 557.3 771.2 556.7C814 556 857 556 878.5 556L900 556L900 601L878.5 601C857 601 814 601 771.2 601C728.3 601 685.7 601 642.8 601C600 601 557 601 514.2 601C471.3 601 428.7 601 385.8 601C343 601 300 601 257.2 601C214.3 601 171.7 601 128.8 601C86 601 43 601 21.5 601L0 601Z" fill="#a065cd"></path><path d="M0 568L21.5 566.2C43 564.3 86 560.7 128.8 559.8C171.7 559 214.3 561 257.2 562.2C300 563.3 343 563.7 385.8 563.3C428.7 563 471.3 562 514.2 561.8C557 561.7 600 562.3 642.8 563.2C685.7 564 728.3 565 771.2 565.5C814 566 857 566 878.5 566L900 566L900 601L878.5 601C857 601 814 601 771.2 601C728.3 601 685.7 601 642.8 601C600 601 557 601 514.2 601C471.3 601 428.7 601 385.8 601C343 601 300 601 257.2 601C214.3 601 171.7 601 128.8 601C86 601 43 601 21.5 601L0 601Z" fill="#945fbd"></path><path d="M0 570L21.5 570.2C43 570.3 86 570.7 128.8 569.2C171.7 567.7 214.3 564.3 257.2 563.3C300 562.3 343 563.7 385.8 563.8C428.7 564 471.3 563 514.2 563.8C557 564.7 600 567.3 642.8 569.2C685.7 571 728.3 572 771.2 571.5C814 571 857 569 878.5 568L900 567L900 601L878.5 601C857 601 814 601 771.2 601C728.3 601 685.7 601 642.8 601C600 601 557 601 514.2 601C471.3 601 428.7 601 385.8 601C343 601 300 601 257.2 601C214.3 601 171.7 601 128.8 601C86 601 43 601 21.5 601L0 601Z" fill="#8859ac"></path><path d="M0 568L21.5 568C43 568 86 568 128.8 567.7C171.7 567.3 214.3 566.7 257.2 567.5C300 568.3 343 570.7 385.8 570.5C428.7 570.3 471.3 567.7 514.2 566.3C557 565 600 565 642.8 566.8C685.7 568.7 728.3 572.3 771.2 573.7C814 575 857 574 878.5 573.5L900 573L900 601L878.5 601C857 601 814 601 771.2 601C728.3 601 685.7 601 642.8 601C600 601 557 601 514.2 601C471.3 601 428.7 601 385.8 601C343 601 300 601 257.2 601C214.3 601 171.7 601 128.8 601C86 601 43 601 21.5 601L0 601Z" fill="#7d549c"></path><path d="M0 579L21.5 577.7C43 576.3 86 573.7 128.8 573.7C171.7 573.7 214.3 576.3 257.2 576.5C300 576.7 343 574.3 385.8 573.3C428.7 572.3 471.3 572.7 514.2 572.8C557 573 600 573 642.8 573.5C685.7 574 728.3 575 771.2 575.3C814 575.7 857 575.3 878.5 575.2L900 575L900 601L878.5 601C857 601 814 601 771.2 601C728.3 601 685.7 601 642.8 601C600 601 557 601 514.2 601C471.3 601 428.7 601 385.8 601C343 601 300 601 257.2 601C214.3 601 171.7 601 128.8 601C86 601 43 601 21.5 601L0 601Z" fill="#724e8d"></path><path d="M0 581L21.5 580.8C43 580.7 86 580.3 128.8 579.2C171.7 578 214.3 576 257.2 576.2C300 576.3 343 578.7 385.8 578.5C428.7 578.3 471.3 575.7 514.2 574.3C557 573 600 573 642.8 574C685.7 575 728.3 577 771.2 577.5C814 578 857 577 878.5 576.5L900 576L900 601L878.5 601C857 601 814 601 771.2 601C728.3 601 685.7 601 642.8 601C600 601 557 601 514.2 601C471.3 601 428.7 601 385.8 601C343 601 300 601 257.2 601C214.3 601 171.7 601 128.8 601C86 601 43 601 21.5 601L0 601Z" fill="#66487d"></path><path d="M0 582L21.5 582C43 582 86 582 128.8 581.8C171.7 581.7 214.3 581.3 257.2 580.8C300 580.3 343 579.7 385.8 579.5C428.7 579.3 471.3 579.7 514.2 579.8C557 580 600 580 642.8 580.5C685.7 581 728.3 582 771.2 582.7C814 583.3 857 583.7 878.5 583.8L900 584L900 601L878.5 601C857 601 814 601 771.2 601C728.3 601 685.7 601 642.8 601C600 601 557 601 514.2 601C471.3 601 428.7 601 385.8 601C343 601 300 601 257.2 601C214.3 601 171.7 601 128.8 601C86 601 43 601 21.5 601L0 601Z" fill="#5b426e"></path><path d="M0 585L21.5 584.5C43 584 86 583 128.8 582.5C171.7 582 214.3 582 257.2 582.8C300 583.7 343 585.3 385.8 586.3C428.7 587.3 471.3 587.7 514.2 587.7C557 587.7 600 587.3 642.8 586.2C685.7 585 728.3 583 771.2 582.2C814 581.3 857 581.7 878.5 581.8L900 582L900 601L878.5 601C857 601 814 601 771.2 601C728.3 601 685.7 601 642.8 601C600 601 557 601 514.2 601C471.3 601 428.7 601 385.8 601C343 601 300 601 257.2 601C214.3 601 171.7 601 128.8 601C86 601 43 601 21.5 601L0 601Z" fill="#513c5f"></path><path d="M0 585L21.5 585C43 585 86 585 128.8 585.7C171.7 586.3 214.3 587.7 257.2 588.3C300 589 343 589 385.8 588.5C428.7 588 471.3 587 514.2 587.2C557 587.3 600 588.7 642.8 589.5C685.7 590.3 728.3 590.7 771.2 590C814 589.3 857 587.7 878.5 586.8L900 586L900 601L878.5 601C857 601 814 601 771.2 601C728.3 601 685.7 601 642.8 601C600 601 557 601 514.2 601C471.3 601 428.7 601 385.8 601C343 601 300 601 257.2 601C214.3 601 171.7 601 128.8 601C86 601 43 601 21.5 601L0 601Z" fill="#463751"></path><path d="M0 590L21.5 590C43 590 86 590 128.8 590.5C171.7 591 214.3 592 257.2 591.8C300 591.7 343 590.3 385.8 589.8C428.7 589.3 471.3 589.7 514.2 590C557 590.3 600 590.7 642.8 590.5C685.7 590.3 728.3 589.7 771.2 589.8C814 590 857 591 878.5 591.5L900 592L900 601L878.5 601C857 601 814 601 771.2 601C728.3 601 685.7 601 642.8 601C600 601 557 601 514.2 601C471.3 601 428.7 601 385.8 601C343 601 300 601 257.2 601C214.3 601 171.7 601 128.8 601C86 601 43 601 21.5 601L0 601Z" fill="#3b3143"></path><path d="M0 593L21.5 593.5C43 594 86 595 128.8 595.3C171.7 595.7 214.3 595.3 257.2 595.2C300 595 343 595 385.8 594.7C428.7 594.3 471.3 593.7 514.2 593.3C557 593 600 593 642.8 593.2C685.7 593.3 728.3 593.7 771.2 594.2C814 594.7 857 595.3 878.5 595.7L900 596L900 601L878.5 601C857 601 814 601 771.2 601C728.3 601 685.7 601 642.8 601C600 601 557 601 514.2 601C471.3 601 428.7 601 385.8 601C343 601 300 601 257.2 601C214.3 601 171.7 601 128.8 601C86 601 43 601 21.5 601L0 601Z" fill="#312b35"></path></svg>