<svg width="1920" height="80" viewBox="0 0 1920 80" fill="none" xmlns="http://www.w3.org/2000/svg">
<g clip-path="url(#clip0_150_114)">
<path d="M0 16.3999L45.8667 18.4266C91.7333 20.4399 183.467 24.4932 274.773 25.0932C366.293 25.6932 457.173 22.8399 548.693 23.1066C640 23.3732 731.733 26.7599 823.04 29.0399C914.56 31.3332 1005.44 32.5332 1096.96 32.6666C1188.27 32.7999 1280 31.8666 1371.31 30.4399C1462.83 29.0266 1553.71 27.1066 1645.23 24.9066C1736.53 22.7066 1828.27 20.2266 1874.13 18.9732L1920 17.7332V80.1332H1874.13C1828.27 80.1332 1736.53 80.1332 1645.23 80.1332C1553.71 80.1332 1462.83 80.1332 1371.31 80.1332C1280 80.1332 1188.27 80.1332 1096.96 80.1332C1005.44 80.1332 914.56 80.1332 823.04 80.1332C731.733 80.1332 640 80.1332 548.693 80.1332C457.173 80.1332 366.293 80.1332 274.773 80.1332C183.467 80.1332 91.7333 80.1332 45.8667 80.1332H0V16.3999Z" fill="#AC6BDE"/>
<path d="M0 38.2665L45.8667 34.6932C91.7333 31.1065 183.467 23.9598 274.773 21.9065C366.293 19.8665 457.173 22.9332 548.693 25.1998C640 27.4665 731.733 28.9332 823.04 28.5998C914.56 28.2665 1005.44 26.1332 1096.96 23.9332C1188.27 21.7332 1280 19.4665 1371.31 19.8265C1462.83 20.1732 1553.71 23.1598 1645.23 24.9732C1736.53 26.7998 1828.27 27.4665 1874.13 27.7998L1920 28.1332V80.1332H1874.13C1828.27 80.1332 1736.53 80.1332 1645.23 80.1332C1553.71 80.1332 1462.83 80.1332 1371.31 80.1332C1280 80.1332 1188.27 80.1332 1096.96 80.1332C1005.44 80.1332 914.56 80.1332 823.04 80.1332C731.733 80.1332 640 80.1332 548.693 80.1332C457.173 80.1332 366.293 80.1332 274.773 80.1332C183.467 80.1332 91.7333 80.1332 45.8667 80.1332H0V38.2665Z" fill="#A065CD"/>
<path d="M0 26.4L45.8667 27.5733C91.7333 28.76 183.467 31.1067 274.773 32.56C366.293 34 457.173 34.5333 548.693 35.76C640 36.9733 731.733 38.8933 823.04 36.84C914.56 34.8 1005.44 28.8 1096.96 25.7067C1188.27 22.6267 1280 22.44 1371.31 24.1733C1462.83 25.9067 1553.71 29.56 1645.23 32.8267C1736.53 36.0933 1828.27 38.9733 1874.13 40.4267L1920 41.8667V80.1333H1874.13C1828.27 80.1333 1736.53 80.1333 1645.23 80.1333C1553.71 80.1333 1462.83 80.1333 1371.31 80.1333C1280 80.1333 1188.27 80.1333 1096.96 80.1333C1005.44 80.1333 914.56 80.1333 823.04 80.1333C731.733 80.1333 640 80.1333 548.693 80.1333C457.173 80.1333 366.293 80.1333 274.773 80.1333C183.467 80.1333 91.7333 80.1333 45.8667 80.1333H0V26.4Z" fill="#945FBD"/>
<path d="M0 37.1999L45.8667 36.9066C91.7333 36.6266 183.467 36.0399 274.773 36.3999C366.293 36.7599 457.173 38.0399 548.693 36.8266C640 35.5999 731.733 31.8666 823.04 31.3999C914.56 30.9332 1005.44 33.7332 1096.96 34.1999C1188.27 34.6666 1280 32.7999 1371.31 33.6399C1462.83 34.4932 1553.71 38.0399 1645.23 40.3999C1736.53 42.7599 1828.27 43.9066 1874.13 44.4932L1920 45.0666V80.1332H1874.13C1828.27 80.1332 1736.53 80.1332 1645.23 80.1332C1553.71 80.1332 1462.83 80.1332 1371.31 80.1332C1280 80.1332 1188.27 80.1332 1096.96 80.1332C1005.44 80.1332 914.56 80.1332 823.04 80.1332C731.733 80.1332 640 80.1332 548.693 80.1332C457.173 80.1332 366.293 80.1332 274.773 80.1332C183.467 80.1332 91.7333 80.1332 45.8667 80.1332H0V37.1999Z" fill="#8859AC"/>
<path d="M0 48.9332L45.8667 48.1732C91.7333 47.4265 183.467 45.9065 274.773 44.3598C366.293 42.7998 457.173 41.1998 548.693 41.5332C640 41.8665 731.733 44.1332 823.04 45.5998C914.56 47.0665 1005.44 47.7332 1096.96 45.6398C1188.27 43.5598 1280 38.7065 1371.31 38.6932C1462.83 38.6665 1553.71 43.4665 1645.23 44.2665C1736.53 45.0665 1828.27 41.8665 1874.13 40.2665L1920 38.6665V80.1332H1874.13C1828.27 80.1332 1736.53 80.1332 1645.23 80.1332C1553.71 80.1332 1462.83 80.1332 1371.31 80.1332C1280 80.1332 1188.27 80.1332 1096.96 80.1332C1005.44 80.1332 914.56 80.1332 823.04 80.1332C731.733 80.1332 640 80.1332 548.693 80.1332C457.173 80.1332 366.293 80.1332 274.773 80.1332C183.467 80.1332 91.7333 80.1332 45.8667 80.1332H0V48.9332Z" fill="#7D549C"/>
<path d="M0 50.2668L45.8667 49.6935C91.7333 49.1068 183.467 47.9602 274.773 47.2002C366.293 46.4402 457.173 46.0935 548.693 44.9735C640 43.8668 731.733 42.0002 823.04 42.3068C914.56 42.6268 1005.44 45.1068 1096.96 44.9602C1188.27 44.8002 1280 42.0002 1371.31 41.5335C1462.83 41.0668 1553.71 42.9335 1645.23 45.2002C1736.53 47.4668 1828.27 50.1335 1874.13 51.4668L1920 52.8002V80.1335H1874.13C1828.27 80.1335 1736.53 80.1335 1645.23 80.1335C1553.71 80.1335 1462.83 80.1335 1371.31 80.1335C1280 80.1335 1188.27 80.1335 1096.96 80.1335C1005.44 80.1335 914.56 80.1335 823.04 80.1335C731.733 80.1335 640 80.1335 548.693 80.1335C457.173 80.1335 366.293 80.1335 274.773 80.1335C183.467 80.1335 91.7333 80.1335 45.8667 80.1335H0V50.2668Z" fill="#724E8D"/>
<path d="M0 45.4668L45.8667 47.0268C91.7333 48.5735 183.467 51.6935 274.773 53.1335C366.293 54.5735 457.173 54.3601 548.693 54.3735C640 54.4001 731.733 54.6668 823.04 53.0935C914.56 51.5068 1005.44 48.0935 1096.96 47.1068C1188.27 46.1335 1280 47.6001 1371.31 48.1068C1462.83 48.6268 1553.71 48.1735 1645.23 48.7601C1736.53 49.3335 1828.27 50.9335 1874.13 51.7335L1920 52.5335V80.1335H1874.13C1828.27 80.1335 1736.53 80.1335 1645.23 80.1335C1553.71 80.1335 1462.83 80.1335 1371.31 80.1335C1280 80.1335 1188.27 80.1335 1096.96 80.1335C1005.44 80.1335 914.56 80.1335 823.04 80.1335C731.733 80.1335 640 80.1335 548.693 80.1335C457.173 80.1335 366.293 80.1335 274.773 80.1335C183.467 80.1335 91.7333 80.1335 45.8667 80.1335H0V45.4668Z" fill="#66487D"/>
<path d="M0 57.5999L45.8667 57.9065C91.7333 58.2265 183.467 58.8399 274.773 57.5065C366.293 56.1732 457.173 52.8932 548.693 51.2665C640 49.6399 731.733 49.6932 823.04 51.2265C914.56 52.7599 1005.44 55.7732 1096.96 56.6665C1188.27 57.5599 1280 56.3065 1371.31 56.4932C1462.83 56.6665 1553.71 58.2665 1645.23 58.5599C1736.53 58.8399 1828.27 57.8265 1874.13 57.3065L1920 56.7999V80.1332H1874.13C1828.27 80.1332 1736.53 80.1332 1645.23 80.1332C1553.71 80.1332 1462.83 80.1332 1371.31 80.1332C1280 80.1332 1188.27 80.1332 1096.96 80.1332C1005.44 80.1332 914.56 80.1332 823.04 80.1332C731.733 80.1332 640 80.1332 548.693 80.1332C457.173 80.1332 366.293 80.1332 274.773 80.1332C183.467 80.1332 91.7333 80.1332 45.8667 80.1332H0V57.5999Z" fill="#5B426E"/>
<path d="M0 55.8667L45.8667 57.4267C91.7333 58.9734 183.467 62.0934 274.773 62.3734C366.293 62.6667 457.173 60.1334 548.693 59.5067C640 58.8934 731.733 60.1734 823.04 60.24C914.56 60.3067 1005.44 59.16 1096.96 58.8C1188.27 58.44 1280 58.8934 1371.31 59.96C1462.83 61.0267 1553.71 62.7067 1645.23 63.2667C1736.53 63.8267 1828.27 63.24 1874.13 62.96L1920 62.6667V80.1334H1874.13C1828.27 80.1334 1736.53 80.1334 1645.23 80.1334C1553.71 80.1334 1462.83 80.1334 1371.31 80.1334C1280 80.1334 1188.27 80.1334 1096.96 80.1334C1005.44 80.1334 914.56 80.1334 823.04 80.1334C731.733 80.1334 640 80.1334 548.693 80.1334C457.173 80.1334 366.293 80.1334 274.773 80.1334C183.467 80.1334 91.7333 80.1334 45.8667 80.1334H0V55.8667Z" fill="#513C5F"/>
<path d="M0 69.0667L45.8667 68.4001C91.7333 67.7334 183.467 66.4001 274.773 65.5734C366.293 64.7601 457.173 64.4401 548.693 63.8934C640 63.3334 731.733 62.5334 823.04 63.0401C914.56 63.5601 1005.44 65.3734 1096.96 65.5334C1188.27 65.6934 1280 64.1734 1371.31 63.6934C1462.83 63.2001 1553.71 63.7334 1645.23 64.4001C1736.53 65.0667 1828.27 65.8667 1874.13 66.2667L1920 66.6667V80.1334H1874.13C1828.27 80.1334 1736.53 80.1334 1645.23 80.1334C1553.71 80.1334 1462.83 80.1334 1371.31 80.1334C1280 80.1334 1188.27 80.1334 1096.96 80.1334C1005.44 80.1334 914.56 80.1334 823.04 80.1334C731.733 80.1334 640 80.1334 548.693 80.1334C457.173 80.1334 366.293 80.1334 274.773 80.1334C183.467 80.1334 91.7333 80.1334 45.8667 80.1334H0V69.0667Z" fill="#463751"/>
<path d="M0 70.9333L45.8667 70.2267C91.7333 69.5067 183.467 68.0933 274.773 68.16C366.293 68.2267 457.173 69.7733 548.693 70.2C640 70.6267 731.733 69.9067 823.04 69.8667C914.56 69.8267 1005.44 70.44 1096.96 70.84C1188.27 71.24 1280 71.4267 1371.31 71.04C1462.83 70.6667 1553.71 69.7333 1645.23 69.24C1736.53 68.76 1828.27 68.7067 1874.13 68.6933L1920 68.6667V80.1333H1874.13C1828.27 80.1333 1736.53 80.1333 1645.23 80.1333C1553.71 80.1333 1462.83 80.1333 1371.31 80.1333C1280 80.1333 1188.27 80.1333 1096.96 80.1333C1005.44 80.1333 914.56 80.1333 823.04 80.1333C731.733 80.1333 640 80.1333 548.693 80.1333C457.173 80.1333 366.293 80.1333 274.773 80.1333C183.467 80.1333 91.7333 80.1333 45.8667 80.1333H0V70.9333Z" fill="#3B3143"/>
<path d="M0 70.7998L45.8667 71.0931C91.7333 71.3731 183.467 71.9598 274.773 72.5731C366.293 73.1998 457.173 73.8665 548.693 74.1998C640 74.5331 731.733 74.5331 823.04 74.8398C914.56 75.1598 1005.44 75.7731 1096.96 75.1731C1188.27 74.5731 1280 72.7598 1371.31 72.1598C1462.83 71.5598 1553.71 72.1731 1645.23 72.8931C1736.53 73.5998 1828.27 74.3998 1874.13 74.7998L1920 75.1998V80.1331H1874.13C1828.27 80.1331 1736.53 80.1331 1645.23 80.1331C1553.71 80.1331 1462.83 80.1331 1371.31 80.1331C1280 80.1331 1188.27 80.1331 1096.96 80.1331C1005.44 80.1331 914.56 80.1331 823.04 80.1331C731.733 80.1331 640 80.1331 548.693 80.1331C457.173 80.1331 366.293 80.1331 274.773 80.1331C183.467 80.1331 91.7333 80.1331 45.8667 80.1331H0V70.7998Z" fill="#312B35"/>
</g>
<defs>
<clipPath id="clip0_150_114">
<rect width="1920" height="80" fill="white"/>
</clipPath>
</defs>
</svg>
