<svg id="visual" viewBox="0 0 960 540" width="960" height="540" xmlns="http://www.w3.org/2000/svg" xmlns:xlink="http://www.w3.org/1999/xlink" version="1.1"><path d="M0 101L12.3 97.3C24.7 93.7 49.3 86.3 74 83.2C98.7 80 123.3 81 148 83.8C172.7 86.7 197.3 91.3 221.8 102.2C246.3 113 270.7 130 295.2 127.3C319.7 124.7 344.3 102.3 369 91.3C393.7 80.3 418.3 80.7 443 86.3C467.7 92 492.3 103 517 100.8C541.7 98.7 566.3 83.3 591 80.5C615.7 77.7 640.3 87.3 664.8 89C689.3 90.7 713.7 84.3 738.2 88.8C762.7 93.3 787.3 108.7 812 119.7C836.7 130.7 861.3 137.3 886 141.8C910.7 146.3 935.3 148.7 947.7 149.8L960 151L960 0L947.7 0C935.3 0 910.7 0 886 0C861.3 0 836.7 0 812 0C787.3 0 762.7 0 738.2 0C713.7 0 689.3 0 664.8 0C640.3 0 615.7 0 591 0C566.3 0 541.7 0 517 0C492.3 0 467.7 0 443 0C418.3 0 393.7 0 369 0C344.3 0 319.7 0 295.2 0C270.7 0 246.3 0 221.8 0C197.3 0 172.7 0 148 0C123.3 0 98.7 0 74 0C49.3 0 24.7 0 12.3 0L0 0Z" fill="#6865eb"></path><path d="M0 125L12.3 124.2C24.7 123.3 49.3 121.7 74 110.7C98.7 99.7 123.3 79.3 148 83.3C172.7 87.3 197.3 115.7 221.8 121.2C246.3 126.7 270.7 109.3 295.2 107.7C319.7 106 344.3 120 369 118.3C393.7 116.7 418.3 99.3 443 93.2C467.7 87 492.3 92 517 92.8C541.7 93.7 566.3 90.3 591 95.2C615.7 100 640.3 113 664.8 114.8C689.3 116.7 713.7 107.3 738.2 100.8C762.7 94.3 787.3 90.7 812 91.3C836.7 92 861.3 97 886 99.3C910.7 101.7 935.3 101.3 947.7 101.2L960 101L960 0L947.7 0C935.3 0 910.7 0 886 0C861.3 0 836.7 0 812 0C787.3 0 762.7 0 738.2 0C713.7 0 689.3 0 664.8 0C640.3 0 615.7 0 591 0C566.3 0 541.7 0 517 0C492.3 0 467.7 0 443 0C418.3 0 393.7 0 369 0C344.3 0 319.7 0 295.2 0C270.7 0 246.3 0 221.8 0C197.3 0 172.7 0 148 0C123.3 0 98.7 0 74 0C49.3 0 24.7 0 12.3 0L0 0Z" fill="#7e64e9"></path><path d="M0 65L12.3 72.7C24.7 80.3 49.3 95.7 74 100.8C98.7 106 123.3 101 148 94C172.7 87 197.3 78 221.8 81.3C246.3 84.7 270.7 100.3 295.2 99.2C319.7 98 344.3 80 369 81C393.7 82 418.3 102 443 109.5C467.7 117 492.3 112 517 107.3C541.7 102.7 566.3 98.3 591 93C615.7 87.7 640.3 81.3 664.8 82.7C689.3 84 713.7 93 738.2 94C762.7 95 787.3 88 812 90.2C836.7 92.3 861.3 103.7 886 111.3C910.7 119 935.3 123 947.7 125L960 127L960 0L947.7 0C935.3 0 910.7 0 886 0C861.3 0 836.7 0 812 0C787.3 0 762.7 0 738.2 0C713.7 0 689.3 0 664.8 0C640.3 0 615.7 0 591 0C566.3 0 541.7 0 517 0C492.3 0 467.7 0 443 0C418.3 0 393.7 0 369 0C344.3 0 319.7 0 295.2 0C270.7 0 246.3 0 221.8 0C197.3 0 172.7 0 148 0C123.3 0 98.7 0 74 0C49.3 0 24.7 0 12.3 0L0 0Z" fill="#9064e7"></path><path d="M0 99L12.3 96.8C24.7 94.7 49.3 90.3 74 91.8C98.7 93.3 123.3 100.7 148 103.8C172.7 107 197.3 106 221.8 97.2C246.3 88.3 270.7 71.7 295.2 69.5C319.7 67.3 344.3 79.7 369 85C393.7 90.3 418.3 88.7 443 86C467.7 83.3 492.3 79.7 517 75.2C541.7 70.7 566.3 65.3 591 68.2C615.7 71 640.3 82 664.8 81.7C689.3 81.3 713.7 69.7 738.2 62.8C762.7 56 787.3 54 812 59.3C836.7 64.7 861.3 77.3 886 76.5C910.7 75.7 935.3 61.3 947.7 54.2L960 47L960 0L947.7 0C935.3 0 910.7 0 886 0C861.3 0 836.7 0 812 0C787.3 0 762.7 0 738.2 0C713.7 0 689.3 0 664.8 0C640.3 0 615.7 0 591 0C566.3 0 541.7 0 517 0C492.3 0 467.7 0 443 0C418.3 0 393.7 0 369 0C344.3 0 319.7 0 295.2 0C270.7 0 246.3 0 221.8 0C197.3 0 172.7 0 148 0C123.3 0 98.7 0 74 0C49.3 0 24.7 0 12.3 0L0 0Z" fill="#a163e4"></path><path d="M0 43L12.3 51.8C24.7 60.7 49.3 78.3 74 85.2C98.7 92 123.3 88 148 84.7C172.7 81.3 197.3 78.7 221.8 74.2C246.3 69.7 270.7 63.3 295.2 63.7C319.7 64 344.3 71 369 69.5C393.7 68 418.3 58 443 53.5C467.7 49 492.3 50 517 54C541.7 58 566.3 65 591 64.5C615.7 64 640.3 56 664.8 51.7C689.3 47.3 713.7 46.7 738.2 51C762.7 55.3 787.3 64.7 812 67C836.7 69.3 861.3 64.7 886 62.5C910.7 60.3 935.3 60.7 947.7 60.8L960 61L960 0L947.7 0C935.3 0 910.7 0 886 0C861.3 0 836.7 0 812 0C787.3 0 762.7 0 738.2 0C713.7 0 689.3 0 664.8 0C640.3 0 615.7 0 591 0C566.3 0 541.7 0 517 0C492.3 0 467.7 0 443 0C418.3 0 393.7 0 369 0C344.3 0 319.7 0 295.2 0C270.7 0 246.3 0 221.8 0C197.3 0 172.7 0 148 0C123.3 0 98.7 0 74 0C49.3 0 24.7 0 12.3 0L0 0Z" fill="#b063e2"></path><path d="M0 50L12.3 53.7C24.7 57.3 49.3 64.7 74 64.2C98.7 63.7 123.3 55.3 148 54C172.7 52.7 197.3 58.3 221.8 64.2C246.3 70 270.7 76 295.2 73.3C319.7 70.7 344.3 59.3 369 58.3C393.7 57.3 418.3 66.7 443 71.8C467.7 77 492.3 78 517 75.3C541.7 72.7 566.3 66.3 591 58.3C615.7 50.3 640.3 40.7 664.8 38.5C689.3 36.3 713.7 41.7 738.2 41.3C762.7 41 787.3 35 812 41.3C836.7 47.7 861.3 66.3 886 71.5C910.7 76.7 935.3 68.3 947.7 64.2L960 60L960 0L947.7 0C935.3 0 910.7 0 886 0C861.3 0 836.7 0 812 0C787.3 0 762.7 0 738.2 0C713.7 0 689.3 0 664.8 0C640.3 0 615.7 0 591 0C566.3 0 541.7 0 517 0C492.3 0 467.7 0 443 0C418.3 0 393.7 0 369 0C344.3 0 319.7 0 295.2 0C270.7 0 246.3 0 221.8 0C197.3 0 172.7 0 148 0C123.3 0 98.7 0 74 0C49.3 0 24.7 0 12.3 0L0 0Z" fill="#be63de"></path><path d="M0 47L12.3 50.8C24.7 54.7 49.3 62.3 74 62.7C98.7 63 123.3 56 148 48.7C172.7 41.3 197.3 33.7 221.8 31.5C246.3 29.3 270.7 32.7 295.2 37.2C319.7 41.7 344.3 47.3 369 49.2C393.7 51 418.3 49 443 47.8C467.7 46.7 492.3 46.3 517 46.5C541.7 46.7 566.3 47.3 591 48.3C615.7 49.3 640.3 50.7 664.8 50.8C689.3 51 713.7 50 738.2 52.3C762.7 54.7 787.3 60.3 812 62.2C836.7 64 861.3 62 886 62.8C910.7 63.7 935.3 67.3 947.7 69.2L960 71L960 0L947.7 0C935.3 0 910.7 0 886 0C861.3 0 836.7 0 812 0C787.3 0 762.7 0 738.2 0C713.7 0 689.3 0 664.8 0C640.3 0 615.7 0 591 0C566.3 0 541.7 0 517 0C492.3 0 467.7 0 443 0C418.3 0 393.7 0 369 0C344.3 0 319.7 0 295.2 0C270.7 0 246.3 0 221.8 0C197.3 0 172.7 0 148 0C123.3 0 98.7 0 74 0C49.3 0 24.7 0 12.3 0L0 0Z" fill="#ca63db"></path><path d="M0 58L12.3 55.2C24.7 52.3 49.3 46.7 74 43.3C98.7 40 123.3 39 148 40C172.7 41 197.3 44 221.8 43.7C246.3 43.3 270.7 39.7 295.2 37C319.7 34.3 344.3 32.7 369 31.8C393.7 31 418.3 31 443 34.3C467.7 37.7 492.3 44.3 517 47.5C541.7 50.7 566.3 50.3 591 46.8C615.7 43.3 640.3 36.7 664.8 36.3C689.3 36 713.7 42 738.2 45.7C762.7 49.3 787.3 50.7 812 47.5C836.7 44.3 861.3 36.7 886 34C910.7 31.3 935.3 33.7 947.7 34.8L960 36L960 0L947.7 0C935.3 0 910.7 0 886 0C861.3 0 836.7 0 812 0C787.3 0 762.7 0 738.2 0C713.7 0 689.3 0 664.8 0C640.3 0 615.7 0 591 0C566.3 0 541.7 0 517 0C492.3 0 467.7 0 443 0C418.3 0 393.7 0 369 0C344.3 0 319.7 0 295.2 0C270.7 0 246.3 0 221.8 0C197.3 0 172.7 0 148 0C123.3 0 98.7 0 74 0C49.3 0 24.7 0 12.3 0L0 0Z" fill="#d663d7"></path><path d="M0 36L12.3 31.7C24.7 27.3 49.3 18.7 74 17.8C98.7 17 123.3 24 148 25.7C172.7 27.3 197.3 23.7 221.8 25.3C246.3 27 270.7 34 295.2 32.2C319.7 30.3 344.3 19.7 369 18.7C393.7 17.7 418.3 26.3 443 26.8C467.7 27.3 492.3 19.7 517 18C541.7 16.3 566.3 20.7 591 21.7C615.7 22.7 640.3 20.3 664.8 22.2C689.3 24 713.7 30 738.2 28.3C762.7 26.7 787.3 17.3 812 14.5C836.7 11.7 861.3 15.3 886 16.5C910.7 17.7 935.3 16.3 947.7 15.7L960 15L960 0L947.7 0C935.3 0 910.7 0 886 0C861.3 0 836.7 0 812 0C787.3 0 762.7 0 738.2 0C713.7 0 689.3 0 664.8 0C640.3 0 615.7 0 591 0C566.3 0 541.7 0 517 0C492.3 0 467.7 0 443 0C418.3 0 393.7 0 369 0C344.3 0 319.7 0 295.2 0C270.7 0 246.3 0 221.8 0C197.3 0 172.7 0 148 0C123.3 0 98.7 0 74 0C49.3 0 24.7 0 12.3 0L0 0Z" fill="#e164d3"></path><path d="M0 28L12.3 26.7C24.7 25.3 49.3 22.7 74 19.5C98.7 16.3 123.3 12.7 148 12C172.7 11.3 197.3 13.7 221.8 13C246.3 12.3 270.7 8.7 295.2 9.7C319.7 10.7 344.3 16.3 369 17.3C393.7 18.3 418.3 14.7 443 11C467.7 7.3 492.3 3.7 517 3.8C541.7 4 566.3 8 591 9.7C615.7 11.3 640.3 10.7 664.8 9.8C689.3 9 713.7 8 738.2 9.8C762.7 11.7 787.3 16.3 812 16.8C836.7 17.3 861.3 13.7 886 13.2C910.7 12.7 935.3 15.3 947.7 16.7L960 18L960 0L947.7 0C935.3 0 910.7 0 886 0C861.3 0 836.7 0 812 0C787.3 0 762.7 0 738.2 0C713.7 0 689.3 0 664.8 0C640.3 0 615.7 0 591 0C566.3 0 541.7 0 517 0C492.3 0 467.7 0 443 0C418.3 0 393.7 0 369 0C344.3 0 319.7 0 295.2 0C270.7 0 246.3 0 221.8 0C197.3 0 172.7 0 148 0C123.3 0 98.7 0 74 0C49.3 0 24.7 0 12.3 0L0 0Z" fill="#eb65cf"></path></svg>