<svg id="visual" viewBox="0 0 960 540" width="960" height="540" xmlns="http://www.w3.org/2000/svg" xmlns:xlink="http://www.w3.org/1999/xlink" version="1.1"><rect x="0" y="0" width="960" height="540" fill="#ffffff"></rect><path d="M0 207L17.8 212.8C35.7 218.7 71.3 230.3 106.8 231.2C142.3 232 177.7 222 213.2 216.8C248.7 211.7 284.3 211.3 320 214C355.7 216.7 391.3 222.3 426.8 216.8C462.3 211.3 497.7 194.7 533.2 197.2C568.7 199.7 604.3 221.3 640 224.8C675.7 228.3 711.3 213.7 746.8 211.3C782.3 209 817.7 219 853.2 216.5C888.7 214 924.3 199 942.2 191.5L960 184L960 0L942.2 0C924.3 0 888.7 0 853.2 0C817.7 0 782.3 0 746.8 0C711.3 0 675.7 0 640 0C604.3 0 568.7 0 533.2 0C497.7 0 462.3 0 426.8 0C391.3 0 355.7 0 320 0C284.3 0 248.7 0 213.2 0C177.7 0 142.3 0 106.8 0C71.3 0 35.7 0 17.8 0L0 0Z" fill="#ac6bde"></path><path d="M0 156L17.8 156C35.7 156 71.3 156 106.8 159.2C142.3 162.3 177.7 168.7 213.2 173.5C248.7 178.3 284.3 181.7 320 184.2C355.7 186.7 391.3 188.3 426.8 179.8C462.3 171.3 497.7 152.7 533.2 146.7C568.7 140.7 604.3 147.3 640 152.2C675.7 157 711.3 160 746.8 163C782.3 166 817.7 169 853.2 169.2C888.7 169.3 924.3 166.7 942.2 165.3L960 164L960 0L942.2 0C924.3 0 888.7 0 853.2 0C817.7 0 782.3 0 746.8 0C711.3 0 675.7 0 640 0C604.3 0 568.7 0 533.2 0C497.7 0 462.3 0 426.8 0C391.3 0 355.7 0 320 0C284.3 0 248.7 0 213.2 0C177.7 0 142.3 0 106.8 0C71.3 0 35.7 0 17.8 0L0 0Z" fill="#c269da"></path><path d="M0 97L17.8 103.5C35.7 110 71.3 123 106.8 124.8C142.3 126.7 177.7 117.3 213.2 112.3C248.7 107.3 284.3 106.7 320 107.5C355.7 108.3 391.3 110.7 426.8 114.7C462.3 118.7 497.7 124.3 533.2 120.5C568.7 116.7 604.3 103.3 640 103.8C675.7 104.3 711.3 118.7 746.8 119C782.3 119.3 817.7 105.7 853.2 102.5C888.7 99.3 924.3 106.7 942.2 110.3L960 114L960 0L942.2 0C924.3 0 888.7 0 853.2 0C817.7 0 782.3 0 746.8 0C711.3 0 675.7 0 640 0C604.3 0 568.7 0 533.2 0C497.7 0 462.3 0 426.8 0C391.3 0 355.7 0 320 0C284.3 0 248.7 0 213.2 0C177.7 0 142.3 0 106.8 0C71.3 0 35.7 0 17.8 0L0 0Z" fill="#d767d5"></path><path d="M0 79L17.8 78.3C35.7 77.7 71.3 76.3 106.8 72.7C142.3 69 177.7 63 213.2 60.5C248.7 58 284.3 59 320 60.3C355.7 61.7 391.3 63.3 426.8 65.7C462.3 68 497.7 71 533.2 74C568.7 77 604.3 80 640 79.7C675.7 79.3 711.3 75.7 746.8 69.7C782.3 63.7 817.7 55.3 853.2 51.3C888.7 47.3 924.3 47.7 942.2 47.8L960 48L960 0L942.2 0C924.3 0 888.7 0 853.2 0C817.7 0 782.3 0 746.8 0C711.3 0 675.7 0 640 0C604.3 0 568.7 0 533.2 0C497.7 0 462.3 0 426.8 0C391.3 0 355.7 0 320 0C284.3 0 248.7 0 213.2 0C177.7 0 142.3 0 106.8 0C71.3 0 35.7 0 17.8 0L0 0Z" fill="#eb65cf"></path></svg>