<svg width="1920" height="40" viewBox="0 0 1920 40" fill="none" xmlns="http://www.w3.org/2000/svg">
<path d="M0 27L45.8667 27.8333C91.7333 28.6667 183.467 30.3333 274.773 30.7867C366.293 31.2467 457.173 30.4867 548.693 30.52C640 30.5533 731.733 31.38 823.04 31.42C914.56 31.4667 1005.44 30.7333 1096.96 29.6467C1188.27 28.5533 1280 27.1133 1371.31 26.8333C1462.83 26.5533 1553.71 27.4467 1645.23 28.4867C1736.53 29.5333 1828.27 30.7333 1874.13 31.3333L1920 31.9333V0H1874.13C1828.27 0 1736.53 0 1645.23 0C1553.71 0 1462.83 0 1371.31 0C1280 0 1188.27 0 1096.96 0C1005.44 0 914.56 0 823.04 0C731.733 0 640 0 548.693 0C457.173 0 366.293 0 274.773 0C183.467 0 91.7333 0 45.8667 0H0V27Z" fill="#6865EB"/>
<path d="M0 29.2667L45.8667 28.0533C91.7333 26.8467 183.467 24.42 274.773 24.38C366.293 24.3333 457.173 26.6667 548.693 27.18C640 27.6867 731.733 26.38 823.04 25.2333C914.56 24.0867 1005.44 23.1133 1096.96 23.3333C1188.27 23.5533 1280 24.98 1371.31 25.2467C1462.83 25.5133 1553.71 24.62 1645.23 24.1667C1736.53 23.7133 1828.27 23.6867 1874.13 23.68L1920 23.6667V0H1874.13C1828.27 0 1736.53 0 1645.23 0C1553.71 0 1462.83 0 1371.31 0C1280 0 1188.27 0 1096.96 0C1005.44 0 914.56 0 823.04 0C731.733 0 640 0 548.693 0C457.173 0 366.293 0 274.773 0C183.467 0 91.7333 0 45.8667 0H0V29.2667Z" fill="#7065EA"/>
<path d="M0 19.9333L45.8667 20.4467C91.7333 20.9533 183.467 21.98 274.773 23.02C366.293 24.0667 457.173 25.1333 548.693 25.98C640 26.82 731.733 27.4467 823.04 27.42C914.56 27.4 1005.44 26.7333 1096.96 25.58C1188.27 24.42 1280 22.78 1371.31 21.72C1462.83 20.6667 1553.71 20.2 1645.23 20.7533C1736.53 21.3133 1828.27 22.8867 1874.13 23.68L1920 24.4667V0H1874.13C1828.27 0 1736.53 0 1645.23 0C1553.71 0 1462.83 0 1371.31 0C1280 0 1188.27 0 1096.96 0C1005.44 0 914.56 0 823.04 0C731.733 0 640 0 548.693 0C457.173 0 366.293 0 274.773 0C183.467 0 91.7333 0 45.8667 0H0V19.9333Z" fill="#7866E9"/>
<path d="M0 19.5333L45.8667 20.4867C91.7333 21.4467 183.467 23.3533 274.773 23.0867C366.293 22.82 457.173 20.38 548.693 19.4867C640 18.6 731.733 19.2667 823.04 20.1467C914.56 21.02 1005.44 22.1133 1096.96 22.0867C1188.27 22.0667 1280 20.9333 1371.31 21.2C1462.83 21.4667 1553.71 23.1333 1645.23 23.4C1736.53 23.6667 1828.27 22.5333 1874.13 21.9667L1920 21.4V0H1874.13C1828.27 0 1736.53 0 1645.23 0C1553.71 0 1462.83 0 1371.31 0C1280 0 1188.27 0 1096.96 0C1005.44 0 914.56 0 823.04 0C731.733 0 640 0 548.693 0C457.173 0 366.293 0 274.773 0C183.467 0 91.7333 0 45.8667 0H0V19.5333Z" fill="#7F66E8"/>
<path d="M0 22.8667L45.8667 21.88C91.7333 20.8867 183.467 18.9133 274.773 17.8667C366.293 16.82 457.173 16.7133 548.693 17.32C640 17.9333 731.733 19.2667 823.04 20.12C914.56 20.98 1005.44 21.3533 1096.96 20.7467C1188.27 20.1333 1280 18.5333 1371.31 18.1467C1462.83 17.7533 1553.71 18.58 1645.23 18.8133C1736.53 19.0467 1828.27 18.6867 1874.13 18.5133L1920 18.3333V0H1874.13C1828.27 0 1736.53 0 1645.23 0C1553.71 0 1462.83 0 1371.31 0C1280 0 1188.27 0 1096.96 0C1005.44 0 914.56 0 823.04 0C731.733 0 640 0 548.693 0C457.173 0 366.293 0 274.773 0C183.467 0 91.7333 0 45.8667 0H0V22.8667Z" fill="#8666E7"/>
<path d="M0 20.6L45.8667 20.2467C91.7333 19.8867 183.467 19.18 274.773 18.78C366.293 18.38 457.173 18.2867 548.693 17.9333C640 17.58 731.733 16.9533 823.04 17.3333C914.56 17.7133 1005.44 19.0867 1096.96 19.22C1188.27 19.3533 1280 18.2467 1371.31 18.08C1462.83 17.9133 1553.71 18.6867 1645.23 18.7C1736.53 18.7133 1828.27 17.9533 1874.13 17.58L1920 17.2V0H1874.13C1828.27 0 1736.53 0 1645.23 0C1553.71 0 1462.83 0 1371.31 0C1280 0 1188.27 0 1096.96 0C1005.44 0 914.56 0 823.04 0C731.733 0 640 0 548.693 0C457.173 0 366.293 0 274.773 0C183.467 0 91.7333 0 45.8667 0H0V20.6Z" fill="#8C67E6"/>
<path d="M0 13.6L45.8667 13.9867C91.7333 14.38 183.467 15.1533 274.773 15.88C366.293 16.6 457.173 17.2667 548.693 17.3667C640 17.4667 731.733 17 823.04 16.52C914.56 16.0467 1005.44 15.5533 1096.96 14.98C1188.27 14.4 1280 13.7333 1371.31 14.0467C1462.83 14.3533 1553.71 15.6467 1645.23 16.3533C1736.53 17.0667 1828.27 17.2 1874.13 17.2667L1920 17.3333V0H1874.13C1828.27 0 1736.53 0 1645.23 0C1553.71 0 1462.83 0 1371.31 0C1280 0 1188.27 0 1096.96 0C1005.44 0 914.56 0 823.04 0C731.733 0 640 0 548.693 0C457.173 0 366.293 0 274.773 0C183.467 0 91.7333 0 45.8667 0H0V13.6Z" fill="#9267E4"/>
<path d="M0 14.6L45.8667 13.8333C91.7333 13.0667 183.467 11.5333 274.773 10.6867C366.293 9.84667 457.173 9.68667 548.693 10.5667C640 11.4467 731.733 13.3533 823.04 13.52C914.56 13.6867 1005.44 12.1133 1096.96 11.1333C1188.27 10.1533 1280 9.78 1371.31 9.68C1462.83 9.58 1553.71 9.75333 1645.23 10.6667C1736.53 11.58 1828.27 13.22 1874.13 14.0467L1920 14.8667V0H1874.13C1828.27 0 1736.53 0 1645.23 0C1553.71 0 1462.83 0 1371.31 0C1280 0 1188.27 0 1096.96 0C1005.44 0 914.56 0 823.04 0C731.733 0 640 0 548.693 0C457.173 0 366.293 0 274.773 0C183.467 0 91.7333 0 45.8667 0H0V14.6Z" fill="#9868E3"/>
<path d="M0 11.4L45.8667 11.0867C91.7333 10.78 183.467 10.1533 274.773 9.63333C366.293 9.11333 457.173 8.68667 548.693 8.81333C640 8.93333 731.733 9.6 823.04 9.7C914.56 9.8 1005.44 9.33333 1096.96 9.1C1188.27 8.86667 1280 8.86667 1371.31 9.21333C1462.83 9.55333 1553.71 10.2467 1645.23 10.0467C1736.53 9.84667 1828.27 8.75333 1874.13 8.21333L1920 7.66667V0H1874.13C1828.27 0 1736.53 0 1645.23 0C1553.71 0 1462.83 0 1371.31 0C1280 0 1188.27 0 1096.96 0C1005.44 0 914.56 0 823.04 0C731.733 0 640 0 548.693 0C457.173 0 366.293 0 274.773 0C183.467 0 91.7333 0 45.8667 0H0V11.4Z" fill="#9D69E2"/>
<path d="M0 7.93333L45.8667 7.76667C91.7333 7.6 183.467 7.26667 274.773 7.21333C366.293 7.15333 457.173 7.38 548.693 7.43333C640 7.48667 731.733 7.38 823.04 7.24667C914.56 7.11333 1005.44 6.95333 1096.96 6.78667C1188.27 6.62 1280 6.44667 1371.31 6.65333C1462.83 6.86667 1553.71 7.46667 1645.23 7.63333C1736.53 7.8 1828.27 7.53333 1874.13 7.4L1920 7.26667V0H1874.13C1828.27 0 1736.53 0 1645.23 0C1553.71 0 1462.83 0 1371.31 0C1280 0 1188.27 0 1096.96 0C1005.44 0 914.56 0 823.04 0C731.733 0 640 0 548.693 0C457.173 0 366.293 0 274.773 0C183.467 0 91.7333 0 45.8667 0H0V7.93333Z" fill="#A269E1"/>
<path d="M0 6.26667L45.8667 5.93333C91.7333 5.6 183.467 4.93333 274.773 5C366.293 5.06667 457.173 5.86667 548.693 6.16667C640 6.46667 731.733 6.26667 823.04 6.08667C914.56 5.91333 1005.44 5.75333 1096.96 5.82C1188.27 5.88667 1280 6.18 1371.31 6.21333C1462.83 6.24667 1553.71 6.02 1645.23 5.65333C1736.53 5.28667 1828.27 4.78 1874.13 4.52L1920 4.26667V0H1874.13C1828.27 0 1736.53 0 1645.23 0C1553.71 0 1462.83 0 1371.31 0C1280 0 1188.27 0 1096.96 0C1005.44 0 914.56 0 823.04 0C731.733 0 640 0 548.693 0C457.173 0 366.293 0 274.773 0C183.467 0 91.7333 0 45.8667 0H0V6.26667Z" fill="#A76ADF"/>
<path d="M0 1.93333L45.8667 1.95333C91.7333 1.98 183.467 2.02 274.773 2.15333C366.293 2.28667 457.173 2.51333 548.693 2.72C640 2.93333 731.733 3.13333 823.04 3.3C914.56 3.46667 1005.44 3.6 1096.96 3.5C1188.27 3.4 1280 3.06667 1371.31 2.8C1462.83 2.53333 1553.71 2.33333 1645.23 2.55333C1736.53 2.78 1828.27 3.42 1874.13 3.74667L1920 4.06667V0H1874.13C1828.27 0 1736.53 0 1645.23 0C1553.71 0 1462.83 0 1371.31 0C1280 0 1188.27 0 1096.96 0C1005.44 0 914.56 0 823.04 0C731.733 0 640 0 548.693 0C457.173 0 366.293 0 274.773 0C183.467 0 91.7333 0 45.8667 0H0V1.93333Z" fill="#AC6BDE"/>
</svg>
