<svg width="354" height="374" viewBox="0 0 354 374" fill="none" xmlns="http://www.w3.org/2000/svg">
<path d="M245.229 103.687L181.042 181.042V105.75L183.5 103.35L235.354 97.1042L183.5 90.83L181 88.19L179.396 3.29167L182.688 0L353.854 181.042L348.917 184.333H251.813L245.229 179.396V103.687Z" fill="url(#paint0_linear_214_39)"/>
<path d="M184.333 184.333L238.646 120.146V179.396L232.063 184.333H184.333Z" fill="url(#paint1_linear_214_39)"/>
<path d="M169.521 0C170.069 0.378687 172.812 3.2918 172.812 3.2918L171.211 88.1925L169 90.828C169 90.828 134.129 95.706 120.146 97.1043C134.129 98.0365 169 103.349 169 103.349L171.211 105.753L172.812 181.042L106.979 103.688V116.854V179.396L100.396 184.333H3.29167L0 181.042L169.521 0Z" fill="url(#paint2_linear_214_39)"/>
<path d="M113.562 179.396V120.146L169.521 184.333H120.146L113.562 179.396Z" fill="url(#paint3_linear_214_39)"/>
<path d="M106.979 269.917L172.813 192.562L172.813 268L170.908 270.141L116.854 276.5L171 282.87L172.844 284.776L174.458 370.312L169.521 373.604L4.57764e-05 192.562L3.29172 189.271L100.396 189.271L106.979 194.208L106.979 269.917Z" fill="url(#paint4_linear_214_39)"/>
<path d="M169.521 189.271L113.563 253.458V194.208L120.146 189.271H169.521Z" fill="url(#paint5_linear_214_39)"/>
<path d="M185.979 373.604C185.431 373.225 181.042 370.312 181.042 370.312L182.647 284.78L184.761 282.87C192.676 281.801 221.259 277.909 235.354 276.5C221.259 275.56 184.761 270.14 184.761 270.14L182.647 268L181.042 192.562L245.5 269.5L245.5 194L252 189.271H348.832L354 192.5L185.979 373.604Z" fill="url(#paint6_linear_214_39)"/>
<path d="M239 194V254L184.333 189.271C198.049 189.271 232 189 232 189L239 194Z" fill="url(#paint7_linear_214_39)"/>
<defs>
<linearGradient id="paint0_linear_214_39" x1="179.5" y1="92.5" x2="353.5" y2="92.5" gradientUnits="userSpaceOnUse">
<stop stop-color="#222735"/>
<stop offset="1" stop-color="#121820"/>
</linearGradient>
<linearGradient id="paint1_linear_214_39" x1="184.5" y1="152.5" x2="238.5" y2="152.5" gradientUnits="userSpaceOnUse">
<stop stop-color="#212734"/>
<stop offset="1" stop-color="#1D222E"/>
</linearGradient>
<linearGradient id="paint2_linear_214_39" x1="-0.499995" y1="92.5" x2="172.5" y2="92.5" gradientUnits="userSpaceOnUse">
<stop stop-color="#303743"/>
<stop offset="1" stop-color="#292F3A"/>
</linearGradient>
<linearGradient id="paint3_linear_214_39" x1="113.5" y1="152.5" x2="169.5" y2="152.5" gradientUnits="userSpaceOnUse">
<stop stop-color="#2C323D"/>
<stop offset="1" stop-color="#29303B"/>
</linearGradient>
<linearGradient id="paint4_linear_214_39" x1="174.963" y1="281.104" x2="0.315521" y2="281.104" gradientUnits="userSpaceOnUse">
<stop stop-color="#303743"/>
<stop offset="1" stop-color="#292F3A"/>
</linearGradient>
<linearGradient id="paint5_linear_214_39" x1="169.583" y1="221.104" x2="113.583" y2="221.104" gradientUnits="userSpaceOnUse">
<stop stop-color="#2C323D"/>
<stop offset="1" stop-color="#29303B"/>
</linearGradient>
<linearGradient id="paint6_linear_214_39" x1="353.897" y1="281.104" x2="181.393" y2="281.104" gradientUnits="userSpaceOnUse">
<stop stop-color="#222735"/>
<stop offset="1" stop-color="#121820"/>
</linearGradient>
<linearGradient id="paint7_linear_214_39" x1="238.832" y1="221.236" x2="184.48" y2="221.236" gradientUnits="userSpaceOnUse">
<stop stop-color="#212734"/>
<stop offset="1" stop-color="#1D222E"/>
</linearGradient>
</defs>
</svg>
