<svg width="708" height="374" viewBox="0 0 708 374" fill="none" xmlns="http://www.w3.org/2000/svg">
<path d="M245.229 103.687L181.042 181.042V105.75L183.5 103.35L235.354 97.1042L183.5 90.83L181 88.19L179.396 3.29167L182.688 0L353.854 181.042L348.917 184.333H251.813L245.229 179.396V103.687Z" fill="#fa5f3c"/>
<path d="M184.333 184.333L238.646 120.146V179.396L232.063 184.333H184.333Z" fill="#FA9A85"/>
<path d="M169.521 0C170.069 0.378687 172.812 3.2918 172.812 3.2918L171.211 88.1925L169 90.828C169 90.828 134.129 95.706 120.146 97.1043C134.129 98.0365 169 103.349 169 103.349L171.211 105.753L172.812 181.042L106.979 103.688V116.854V179.396L100.396 184.333H3.29167L0 181.042L169.521 0Z" fill="#00ffa2"/>
<path d="M113.562 179.396V120.146L169.521 184.333H120.146L113.562 179.396Z" fill="#6BFAC6"/>
<path d="M106.979 269.917L172.813 192.562L172.813 268L170.908 270.141L116.854 276.5L171 282.87L172.844 284.776L174.458 370.312L169.521 373.604L4.57764e-05 192.562L3.29172 189.271L100.396 189.271L106.979 194.208L106.979 269.917Z" fill="#fdee47"/>
<path d="M169.521 189.271L113.563 253.458V194.208L120.146 189.271H169.521Z" fill="#FAF29D"/>
<path d="M169.521 189.271L113.563 253.458V194.208L120.146 189.271H169.521Z" fill="#FAF29D"/>
<path d="M185.979 373.604C185.431 373.225 181.042 370.312 181.042 370.312L182.647 284.78L184.761 282.87C192.676 281.801 221.259 277.909 235.354 276.5C221.259 275.56 184.761 270.14 184.761 270.14L182.647 268L181.042 192.562L245.5 269.5L245.5 194L252 189.271H348.832L354 192.5L185.979 373.604Z" fill="#6c3cfd"/>
<path d="M239 194V254L184.333 189.271C198.049 189.271 232 189 232 189L239 194Z" fill="#9978FA"/>
<path d="M342.263 36.9065L294.23 86.596L304.168 99.8465L342.263 89.9086V36.9065Z" fill="#FA9A85"/>
<path d="M279.323 36.9068L284.292 75.002L337.294 23.6562L285.949 28.6252L279.323 36.9068Z" fill="#fa5f3c"/>
<path d="M327.356 270.447L292.574 278.729L345.576 335.044V287.01L327.356 270.447Z" fill="#6c3cfd"/>
<path d="M290.917 298.604L272.698 308.542L285.948 343.325H333.982L290.917 298.604Z" fill="#9978FA"/>
<path d="M68.9708 303.573L22.594 349.95H68.9708L85.534 318.48L68.9708 303.573Z" fill="#fdee47"/>
<path d="M15.9689 283.698L12.6562 338.356L60.6894 288.667L49.0952 275.416L15.9689 283.698Z" fill="#FAF29D"/>
<path d="M60.6894 63.4079L20.9379 22H68.971L78.9089 56.7826L60.6894 63.4079Z" fill="#6BFAC6"/>
<path d="M11 31.938L12.6563 83.2838L49.0953 96.5343L59.0332 83.2838L11 31.938Z" fill="#00ffa2"/>
<path d="M378.859 232.978C375.491 232.978 372.013 232.652 368.427 232C364.841 231.239 361.853 230.424 359.462 229.555V213.581C361.744 213.907 364.244 214.233 366.96 214.559C369.677 214.776 372.176 214.885 374.458 214.885C377.501 214.885 380.055 214.45 382.119 213.581C384.184 212.603 385.76 211.136 386.846 209.18C388.042 207.115 388.639 204.29 388.639 200.704V111.706H408.851V203.638C408.851 210.375 407.765 215.917 405.591 220.264C403.527 224.611 400.267 227.816 395.811 229.881C391.465 231.946 385.814 232.978 378.859 232.978ZM469.563 232L440.06 111.706H460.924L482.603 202.66L507.705 111.706H526.613L551.552 202.66L573.231 111.706H594.095L564.592 232H543.728L517.159 140.883L490.427 232H469.563ZM663.931 232.978C656.868 232.978 650.619 232.163 645.186 230.533C639.861 228.903 635.352 225.915 631.657 221.568C628.071 217.221 625.354 211.027 623.507 202.986C621.66 194.945 620.736 184.404 620.736 171.364C620.736 159.085 621.66 148.979 623.507 141.046C625.463 133.113 628.288 126.919 631.983 122.464C635.786 118.009 640.405 114.912 645.838 113.173C651.271 111.434 657.465 110.565 664.42 110.565C669.201 110.565 673.82 110.837 678.275 111.38C682.839 111.923 687.023 112.575 690.826 113.336C694.738 114.097 698.107 114.912 700.932 115.781V131.266C699.085 130.831 696.477 130.451 693.108 130.125C689.739 129.69 685.936 129.364 681.698 129.147C677.46 128.821 673.059 128.658 668.495 128.658C663.496 128.658 659.204 129.256 655.618 130.451C652.141 131.538 649.315 133.602 647.142 136.645C644.969 139.688 643.393 144.034 642.415 149.685C641.437 155.336 640.948 162.671 640.948 171.69C640.948 180.601 641.383 187.881 642.252 193.532C643.23 199.183 644.697 203.584 646.653 206.735C648.718 209.778 651.489 211.897 654.966 213.092C658.552 214.287 663.007 214.885 668.332 214.885C676.482 214.885 683.165 214.722 688.381 214.396C693.597 213.961 697.781 213.527 700.932 213.092V228.577C697.889 229.446 694.412 230.207 690.5 230.859C686.697 231.511 682.567 232 678.112 232.326C673.765 232.761 669.038 232.978 663.931 232.978Z" fill="url(#paint0_linear_222_4)"/>
<path d="M382.585 284.27C381.745 284.27 380.845 284.165 379.885 283.955C378.925 283.745 378.13 283.505 377.5 283.235V280.49C378.13 280.61 378.85 280.745 379.66 280.895C380.5 281.015 381.25 281.075 381.91 281.075C382.87 281.075 383.695 280.94 384.385 280.67C385.075 280.4 385.6 279.92 385.96 279.23C386.35 278.54 386.545 277.565 386.545 276.305V250.88H390.1V276.755C390.1 278.555 389.815 280.01 389.245 281.12C388.705 282.23 387.88 283.04 386.77 283.55C385.69 284.03 384.295 284.27 382.585 284.27ZM406.47 284L395.13 250.88H398.82L408.81 280.265L418.755 250.88H422.4L411.06 284H406.47ZM444.196 284L436.906 259.97H440.551L446.446 280.67L452.521 259.97H455.626L461.701 280.67L467.416 259.97H471.061L463.816 284H459.901L454.006 264.74L448.066 284H444.196ZM483.631 284.27C481.111 284.27 479.116 283.895 477.646 283.145C476.206 282.395 475.171 281.12 474.541 279.32C473.911 277.52 473.596 275.06 473.596 271.94C473.596 268.76 473.911 266.285 474.541 264.515C475.201 262.715 476.266 261.455 477.736 260.735C479.206 260.015 481.186 259.655 483.676 259.655C485.806 259.655 487.531 259.895 488.851 260.375C490.201 260.855 491.191 261.68 491.821 262.85C492.481 263.99 492.811 265.58 492.811 267.62C492.811 269.03 492.526 270.17 491.956 271.04C491.416 271.88 490.621 272.495 489.571 272.885C488.551 273.245 487.336 273.425 485.926 273.425H477.151C477.181 275.375 477.391 276.95 477.781 278.15C478.171 279.32 478.876 280.175 479.896 280.715C480.946 281.225 482.476 281.48 484.486 281.48H492.226V283.64C490.846 283.82 489.496 283.97 488.176 284.09C486.856 284.21 485.341 284.27 483.631 284.27ZM477.106 271.085H485.656C487.006 271.085 487.996 270.845 488.626 270.365C489.286 269.855 489.616 268.955 489.616 267.665C489.616 266.285 489.406 265.22 488.986 264.47C488.596 263.69 487.966 263.15 487.096 262.85C486.256 262.52 485.116 262.355 483.676 262.355C481.996 262.355 480.676 262.61 479.716 263.12C478.756 263.6 478.081 264.47 477.691 265.73C477.301 266.99 477.106 268.775 477.106 271.085ZM510.362 284.27C509.222 284.27 508.157 284.135 507.167 283.865C506.207 283.565 505.322 283.22 504.512 282.83C503.702 282.41 502.982 281.99 502.352 281.57L501.677 284H498.797V249.665H502.352V262.175C503.492 261.515 504.782 260.93 506.222 260.42C507.662 259.91 508.997 259.655 510.227 259.655C512.147 259.655 513.737 260.06 514.997 260.87C516.257 261.68 517.202 263 517.832 264.83C518.492 266.66 518.822 269.105 518.822 272.165C518.822 274.655 518.537 276.815 517.967 278.645C517.397 280.445 516.482 281.84 515.222 282.83C513.992 283.79 512.372 284.27 510.362 284.27ZM509.237 281.3C510.557 281.3 511.652 280.97 512.522 280.31C513.422 279.62 514.097 278.585 514.547 277.205C515.027 275.825 515.267 274.1 515.267 272.03C515.267 269.39 514.997 267.41 514.457 266.09C513.947 264.74 513.242 263.825 512.342 263.345C511.442 262.865 510.407 262.625 509.237 262.625C507.887 262.625 506.672 262.82 505.592 263.21C504.542 263.57 503.462 264.05 502.352 264.65V279.365C503.282 279.815 504.302 280.25 505.412 280.67C506.552 281.09 507.827 281.3 509.237 281.3ZM545.671 284.27C544.321 284.27 543.061 284.09 541.891 283.73C540.721 283.37 539.701 282.74 538.831 281.84C537.961 280.94 537.286 279.695 536.806 278.105C536.326 276.515 536.086 274.49 536.086 272.03C536.086 269.54 536.311 267.5 536.761 265.91C537.211 264.29 537.856 263.03 538.696 262.13C539.536 261.23 540.556 260.6 541.756 260.24C542.956 259.88 544.291 259.7 545.761 259.7C546.961 259.7 548.266 259.76 549.676 259.88C551.086 259.97 552.436 260.12 553.726 260.33V262.445H546.706C545.176 262.445 543.886 262.7 542.836 263.21C541.786 263.72 540.991 264.68 540.451 266.09C539.911 267.47 539.641 269.48 539.641 272.12C539.641 274.67 539.926 276.62 540.496 277.97C541.066 279.32 541.876 280.25 542.926 280.76C543.976 281.24 545.251 281.48 546.751 281.48H554.086V283.55C553.396 283.67 552.586 283.79 551.656 283.91C550.756 284.03 549.796 284.12 548.776 284.18C547.756 284.24 546.721 284.27 545.671 284.27ZM568.542 284.27C566.802 284.27 565.272 284.09 563.952 283.73C562.662 283.37 561.582 282.74 560.712 281.84C559.842 280.94 559.197 279.695 558.777 278.105C558.357 276.485 558.147 274.43 558.147 271.94C558.147 269.42 558.357 267.365 558.777 265.775C559.197 264.155 559.842 262.91 560.712 262.04C561.582 261.14 562.662 260.525 563.952 260.195C565.272 259.835 566.802 259.655 568.542 259.655C570.282 259.655 571.797 259.835 573.087 260.195C574.407 260.555 575.502 261.185 576.372 262.085C577.242 262.955 577.887 264.2 578.307 265.82C578.757 267.41 578.982 269.45 578.982 271.94C578.982 274.46 578.757 276.53 578.307 278.15C577.887 279.74 577.242 280.985 576.372 281.885C575.532 282.755 574.452 283.37 573.132 283.73C571.812 284.09 570.282 284.27 568.542 284.27ZM568.542 281.345C569.652 281.345 570.627 281.24 571.467 281.03C572.337 280.82 573.057 280.4 573.627 279.77C574.197 279.14 574.632 278.195 574.932 276.935C575.232 275.675 575.382 274.01 575.382 271.94C575.382 269.84 575.232 268.175 574.932 266.945C574.632 265.715 574.197 264.785 573.627 264.155C573.057 263.525 572.337 263.105 571.467 262.895C570.627 262.685 569.652 262.58 568.542 262.58C567.402 262.58 566.412 262.685 565.572 262.895C564.732 263.105 564.027 263.525 563.457 264.155C562.887 264.785 562.452 265.715 562.152 266.945C561.852 268.175 561.702 269.84 561.702 271.94C561.702 274.01 561.852 275.675 562.152 276.935C562.452 278.195 562.887 279.14 563.457 279.77C564.027 280.4 564.732 280.82 565.572 281.03C566.412 281.24 567.402 281.345 568.542 281.345ZM584.974 284V259.97H587.764L588.529 262.625C589.669 261.815 591.004 261.11 592.534 260.51C594.064 259.88 595.654 259.565 597.304 259.565C599.074 259.565 600.499 259.94 601.579 260.69C602.659 261.44 603.454 262.43 603.964 263.66C604.474 264.89 604.729 266.225 604.729 267.665V284H601.174V268.07C601.174 267.05 600.964 266.15 600.544 265.37C600.154 264.56 599.584 263.93 598.834 263.48C598.114 263.03 597.214 262.805 596.134 262.805C595.144 262.805 594.214 262.91 593.344 263.12C592.504 263.3 591.694 263.57 590.914 263.93C590.164 264.26 589.369 264.665 588.529 265.145V284H584.974ZM619.709 284.27C619.109 284.27 618.374 284.255 617.504 284.225C616.634 284.195 615.719 284.15 614.759 284.09C613.829 284.03 612.974 283.97 612.194 283.91C611.444 283.82 610.859 283.73 610.439 283.64V281.48H620.294C621.284 281.48 622.139 281.405 622.859 281.255C623.579 281.105 624.134 280.775 624.524 280.265C624.944 279.755 625.154 278.99 625.154 277.97V276.89C625.154 275.84 624.809 275.03 624.119 274.46C623.429 273.86 622.319 273.56 620.789 273.56H617.414C616.004 273.56 614.744 273.38 613.634 273.02C612.554 272.66 611.714 272.045 611.114 271.175C610.514 270.305 610.214 269.105 610.214 267.575V266.315C610.214 264.815 610.499 263.585 611.069 262.625C611.669 261.665 612.584 260.945 613.814 260.465C615.074 259.985 616.694 259.745 618.674 259.745C619.514 259.745 620.474 259.775 621.554 259.835C622.664 259.895 623.744 259.985 624.794 260.105C625.844 260.195 626.699 260.3 627.359 260.42V262.58H618.089C616.559 262.58 615.374 262.835 614.534 263.345C613.724 263.855 613.319 264.845 613.319 266.315V267.305C613.319 268.235 613.514 268.94 613.904 269.42C614.294 269.87 614.834 270.17 615.524 270.32C616.244 270.47 617.069 270.545 617.999 270.545H621.419C623.609 270.545 625.304 271.055 626.504 272.075C627.704 273.095 628.304 274.565 628.304 276.485V278.15C628.304 279.77 627.929 281.03 627.179 281.93C626.459 282.8 625.454 283.415 624.164 283.775C622.904 284.105 621.419 284.27 619.709 284.27ZM641.084 284.27C638.774 284.27 636.989 283.67 635.729 282.47C634.499 281.27 633.884 279.41 633.884 276.89V259.97H637.439V275.99C637.439 278 637.889 279.365 638.789 280.085C639.719 280.775 641.009 281.12 642.659 281.12C644.069 281.12 645.359 280.925 646.529 280.535C647.699 280.115 648.899 279.545 650.129 278.825V259.97H653.684V284H650.894L650.129 281.345C648.899 282.125 647.504 282.815 645.944 283.415C644.414 283.985 642.794 284.27 641.084 284.27ZM666.684 284.045C665.304 284.045 664.149 283.805 663.219 283.325C662.289 282.815 661.584 282.005 661.104 280.895C660.624 279.755 660.384 278.225 660.384 276.305V249.665H663.939V275.855C663.939 277.295 664.074 278.39 664.344 279.14C664.614 279.86 665.004 280.37 665.514 280.67C666.024 280.94 666.624 281.12 667.314 281.21L669.744 281.48V284.045H666.684ZM681.576 284C680.016 284 678.726 283.745 677.706 283.235C676.686 282.725 675.936 281.9 675.456 280.76C674.976 279.62 674.751 278.105 674.781 276.215L674.916 262.895H671.091V260.6L674.961 259.97L675.546 253.265H678.291V259.97H685.221V262.895H678.291V276.215C678.291 277.265 678.396 278.105 678.606 278.735C678.846 279.365 679.146 279.845 679.506 280.175C679.896 280.505 680.301 280.745 680.721 280.895C681.141 281.015 681.546 281.09 681.936 281.12L684.861 281.39V284H681.576Z" fill="url(#paint1_linear_222_4)"/>
<defs>
<linearGradient id="paint0_linear_222_4" x1="353.979" y1="176.892" x2="707.362" y2="176.892" gradientUnits="userSpaceOnUse">
<stop stop-color="#FDFDFD"/>
<stop offset="1" stop-color="#F6FAFA"/>
</linearGradient>
<linearGradient id="paint1_linear_222_4" x1="353.979" y1="269.108" x2="707.362" y2="269.108" gradientUnits="userSpaceOnUse">
<stop stop-color="#FDFDFD"/>
<stop offset="1" stop-color="#F6FAFA"/>
</linearGradient>
</defs>
</svg>
