<svg width="1920" height="100" viewBox="0 0 1920 100" fill="none" xmlns="http://www.w3.org/2000/svg">
<g clip-path="url(#clip0_148_88)">
<path d="M-2 32.3333L44.1056 31.6999C90.2111 31.0499 182.422 29.7833 274.204 28.8666C366.201 27.9499 457.554 27.3833 549.551 29.2999C641.333 31.2166 733.544 35.6166 825.327 34.6333C917.323 33.6666 1008.68 27.3333 1100.67 25.8666C1192.46 24.3833 1284.67 27.7833 1376.45 27.6333C1468.45 27.4999 1559.8 23.8333 1651.8 23.5333C1743.58 23.2166 1835.79 26.2833 1881.89 27.7999L1928 29.3333V100.167H1881.89C1835.79 100.167 1743.58 100.167 1651.8 100.167C1559.8 100.167 1468.45 100.167 1376.45 100.167C1284.67 100.167 1192.46 100.167 1100.67 100.167C1008.68 100.167 917.323 100.167 825.327 100.167C733.544 100.167 641.333 100.167 549.551 100.167C457.554 100.167 366.201 100.167 274.204 100.167C182.422 100.167 90.2111 100.167 44.1056 100.167H-2V32.3333Z" fill="#6865EB"/>
<path d="M-2 31.3334L44.1056 30.5334C90.2111 29.7168 182.422 28.1168 274.204 29.9501C366.201 31.7834 457.554 37.0501 549.551 36.5334C641.333 36.0001 733.544 29.6668 825.327 29.8834C917.323 30.1168 1008.68 36.8834 1100.67 38.2168C1192.46 39.5501 1284.67 35.4501 1376.45 35.2834C1468.45 35.1168 1559.8 38.8834 1651.8 40.8334C1743.58 42.7834 1835.79 42.8834 1881.89 42.9501L1928 43.0001V100.167H1881.89C1835.79 100.167 1743.58 100.167 1651.8 100.167C1559.8 100.167 1468.45 100.167 1376.45 100.167C1284.67 100.167 1192.46 100.167 1100.67 100.167C1008.68 100.167 917.323 100.167 825.327 100.167C733.544 100.167 641.333 100.167 549.551 100.167C457.554 100.167 366.201 100.167 274.204 100.167C182.422 100.167 90.2111 100.167 44.1056 100.167H-2V31.3334Z" fill="#695ED8"/>
<path d="M-2 42.6666L44.1056 43.2166C90.2111 43.7832 182.422 44.8832 274.204 43.4666C366.201 42.0499 457.554 38.1166 549.551 35.3332C641.333 32.5499 733.544 30.9499 825.327 30.5332C917.323 30.1166 1008.68 30.8832 1100.67 30.9666C1192.46 31.0499 1284.67 30.4499 1376.45 30.2499C1468.45 30.0499 1559.8 30.2832 1651.8 30.7999C1743.58 31.3332 1835.79 32.1666 1881.89 32.5832L1928 32.9999V100.167H1881.89C1835.79 100.167 1743.58 100.167 1651.8 100.167C1559.8 100.167 1468.45 100.167 1376.45 100.167C1284.67 100.167 1192.46 100.167 1100.67 100.167C1008.68 100.167 917.323 100.167 825.327 100.167C733.544 100.167 641.333 100.167 549.551 100.167C457.554 100.167 366.201 100.167 274.204 100.167C182.422 100.167 90.2111 100.167 44.1056 100.167H-2V42.6666Z" fill="#6858C5"/>
<path d="M-2 49.6667L44.1056 48.9667C90.2111 48.2833 182.422 46.8833 274.204 45.2167C366.201 43.55 457.554 41.6167 549.551 40.7167C641.333 39.8333 733.544 40 825.327 40.9667C917.323 41.95 1008.68 43.7167 1100.67 43.8833C1192.46 44.05 1284.67 42.6167 1376.45 44.2C1468.45 45.7833 1559.8 50.3833 1651.8 52.3C1743.58 54.2167 1835.79 53.45 1881.89 53.05L1928 52.6667V100.167H1881.89C1835.79 100.167 1743.58 100.167 1651.8 100.167C1559.8 100.167 1468.45 100.167 1376.45 100.167C1284.67 100.167 1192.46 100.167 1100.67 100.167C1008.68 100.167 917.323 100.167 825.327 100.167C733.544 100.167 641.333 100.167 549.551 100.167C457.554 100.167 366.201 100.167 274.204 100.167C182.422 100.167 90.2111 100.167 44.1056 100.167H-2V49.6667Z" fill="#6552B2"/>
<path d="M-2 48L44.1056 48.8C90.2111 49.6167 182.422 51.2167 274.204 50.5333C366.201 49.8333 457.554 46.8333 549.551 46.0833C641.333 45.3333 733.544 46.8333 825.327 46.7833C917.323 46.7167 1008.68 45.1167 1100.67 44.4167C1192.46 43.7167 1284.67 43.95 1376.45 45.9667C1468.45 48 1559.8 51.8333 1651.8 53.6167C1743.58 55.3833 1835.79 55.1167 1881.89 54.9667L1928 54.8333V100.167H1881.89C1835.79 100.167 1743.58 100.167 1651.8 100.167C1559.8 100.167 1468.45 100.167 1376.45 100.167C1284.67 100.167 1192.46 100.167 1100.67 100.167C1008.68 100.167 917.323 100.167 825.327 100.167C733.544 100.167 641.333 100.167 549.551 100.167C457.554 100.167 366.201 100.167 274.204 100.167C182.422 100.167 90.2111 100.167 44.1056 100.167H-2V48Z" fill="#614CA1"/>
<path d="M-2 48.6667L44.1056 50.4667C90.2111 52.2834 182.422 55.8834 274.204 57.1168C366.201 58.3334 457.554 57.1668 549.551 58.0334C641.333 58.8834 733.544 61.7834 825.327 61.7501C917.323 61.7167 1008.68 58.7834 1100.67 57.2501C1192.46 55.7167 1284.67 55.6167 1376.45 56.7501C1468.45 57.8834 1559.8 60.2834 1651.8 59.2167C1743.58 58.1667 1835.79 53.6667 1881.89 51.4167L1928 49.1667V100.167H1881.89C1835.79 100.167 1743.58 100.167 1651.8 100.167C1559.8 100.167 1468.45 100.167 1376.45 100.167C1284.67 100.167 1192.46 100.167 1100.67 100.167C1008.68 100.167 917.323 100.167 825.327 100.167C733.544 100.167 641.333 100.167 549.551 100.167C457.554 100.167 366.201 100.167 274.204 100.167C182.422 100.167 90.2111 100.167 44.1056 100.167H-2V48.6667Z" fill="#5D478F"/>
<path d="M-2 70L44.1056 67.7834C90.2111 65.55 182.422 61.1167 274.204 59.3C366.201 57.5 457.554 58.3334 549.551 59C641.333 59.6667 733.544 60.1667 825.327 59.8834C917.323 59.6167 1008.68 58.55 1100.67 57.8834C1192.46 57.2167 1284.67 56.95 1376.45 57.1334C1468.45 57.3334 1559.8 58 1651.8 59.3667C1743.58 60.7167 1835.79 62.7834 1881.89 63.8L1928 64.8334V100.167H1881.89C1835.79 100.167 1743.58 100.167 1651.8 100.167C1559.8 100.167 1468.45 100.167 1376.45 100.167C1284.67 100.167 1192.46 100.167 1100.67 100.167C1008.68 100.167 917.323 100.167 825.327 100.167C733.544 100.167 641.333 100.167 549.551 100.167C457.554 100.167 366.201 100.167 274.204 100.167C182.422 100.167 90.2111 100.167 44.1056 100.167H-2V70Z" fill="#57417F"/>
<path d="M-2 61.6667L44.1056 62.3834C90.2111 63.1167 182.422 64.5501 274.204 65.3668C366.201 66.1668 457.554 66.3334 549.551 66.7834C641.333 67.2168 733.544 67.9501 825.327 68.1667C917.323 68.3834 1008.68 68.1167 1100.67 69.3001C1192.46 70.5001 1284.67 73.1667 1376.45 74.5834C1468.45 76.0001 1559.8 76.1667 1651.8 74.7167C1743.58 73.2834 1835.79 70.2168 1881.89 68.7001L1928 67.1667V100.167H1881.89C1835.79 100.167 1743.58 100.167 1651.8 100.167C1559.8 100.167 1468.45 100.167 1376.45 100.167C1284.67 100.167 1192.46 100.167 1100.67 100.167C1008.68 100.167 917.323 100.167 825.327 100.167C733.544 100.167 641.333 100.167 549.551 100.167C457.554 100.167 366.201 100.167 274.204 100.167C182.422 100.167 90.2111 100.167 44.1056 100.167H-2V61.6667Z" fill="#513D6F"/>
<path d="M-2 71.1666L44.1056 71.1166C90.2111 71.0499 182.422 70.9499 274.204 70.7166C366.201 70.4999 457.554 70.1666 549.551 70.4499C641.333 70.7166 733.544 71.6166 825.327 72.9666C917.323 74.3332 1008.68 76.1666 1100.67 75.8832C1192.46 75.6166 1284.67 73.2166 1376.45 73.7832C1468.45 74.3332 1559.8 77.8332 1651.8 78.1166C1743.58 78.3832 1835.79 75.4499 1881.89 73.9666L1928 72.4999V100.167H1881.89C1835.79 100.167 1743.58 100.167 1651.8 100.167C1559.8 100.167 1468.45 100.167 1376.45 100.167C1284.67 100.167 1192.46 100.167 1100.67 100.167C1008.68 100.167 917.323 100.167 825.327 100.167C733.544 100.167 641.333 100.167 549.551 100.167C457.554 100.167 366.201 100.167 274.204 100.167C182.422 100.167 90.2111 100.167 44.1056 100.167H-2V71.1666Z" fill="#4A385F"/>
<path d="M-2 77.6667L44.1056 78.1334C90.2111 78.6167 182.422 79.5501 274.204 80.6667C366.201 81.7834 457.554 83.0501 549.551 83.0334C641.333 83.0001 733.544 81.6668 825.327 80.8668C917.323 80.0501 1008.68 79.7834 1100.67 79.5001C1192.46 79.2167 1284.67 78.9501 1376.45 79.3334C1468.45 79.7167 1559.8 80.7834 1651.8 81.0501C1743.58 81.3334 1835.79 80.8334 1881.89 80.5834L1928 80.3334V100.167H1881.89C1835.79 100.167 1743.58 100.167 1651.8 100.167C1559.8 100.167 1468.45 100.167 1376.45 100.167C1284.67 100.167 1192.46 100.167 1100.67 100.167C1008.68 100.167 917.323 100.167 825.327 100.167C733.544 100.167 641.333 100.167 549.551 100.167C457.554 100.167 366.201 100.167 274.204 100.167C182.422 100.167 90.2111 100.167 44.1056 100.167H-2V77.6667Z" fill="#423451"/>
<path d="M-2 90.6666L44.1056 90.0833C90.2111 89.4999 182.422 88.3333 274.204 87.2166C366.201 86.1166 457.554 85.0499 549.551 85.6166C641.333 86.1666 733.544 88.3333 825.327 88.0499C917.323 87.7833 1008.68 85.0499 1100.67 83.6333C1192.46 82.2166 1284.67 82.1166 1376.45 83.2833C1468.45 84.4499 1559.8 86.8833 1651.8 87.8666C1743.58 88.8333 1835.79 88.3333 1881.89 88.0833L1928 87.8333V100.167H1881.89C1835.79 100.167 1743.58 100.167 1651.8 100.167C1559.8 100.167 1468.45 100.167 1376.45 100.167C1284.67 100.167 1192.46 100.167 1100.67 100.167C1008.68 100.167 917.323 100.167 825.327 100.167C733.544 100.167 641.333 100.167 549.551 100.167C457.554 100.167 366.201 100.167 274.204 100.167C182.422 100.167 90.2111 100.167 44.1056 100.167H-2V90.6666Z" fill="#3A2F42"/>
<path d="M-2 92.6667L44.1056 92.3333C90.2111 92 182.422 91.3333 274.204 91.8C366.201 92.2833 457.554 93.8833 549.551 93.8833C641.333 93.8833 733.544 92.2833 825.327 91.25C917.323 90.2167 1008.68 89.7833 1100.67 89.7167C1192.46 89.6667 1284.67 90 1376.45 90.3833C1468.45 90.7833 1559.8 91.2167 1651.8 91C1743.58 90.7833 1835.79 89.8833 1881.89 89.45L1928 89V100.167H1881.89C1835.79 100.167 1743.58 100.167 1651.8 100.167C1559.8 100.167 1468.45 100.167 1376.45 100.167C1284.67 100.167 1192.46 100.167 1100.67 100.167C1008.68 100.167 917.323 100.167 825.327 100.167C733.544 100.167 641.333 100.167 549.551 100.167C457.554 100.167 366.201 100.167 274.204 100.167C182.422 100.167 90.2111 100.167 44.1056 100.167H-2V92.6667Z" fill="#312B35"/>
</g>
<defs>
<clipPath id="clip0_148_88">
<rect width="1930" height="100" fill="white" transform="translate(-2)"/>
</clipPath>
</defs>
</svg>
