<svg id="visual" viewBox="0 0 960 540" width="960" height="540" xmlns="http://www.w3.org/2000/svg" xmlns:xlink="http://www.w3.org/1999/xlink" version="1.1"><path d="M0 192L80 181.7C160 171.3 320 150.7 480 135.7C640 120.7 800 111.3 880 106.7L960 102L960 541L880 541C800 541 640 541 480 541C320 541 160 541 80 541L0 541Z" fill="#6865eb"></path><path d="M0 144L80 150.5C160 157 320 170 480 196.8C640 223.7 800 264.3 880 284.7L960 305L960 541L880 541C800 541 640 541 480 541C320 541 160 541 80 541L0 541Z" fill="#695ed8"></path><path d="M0 182L80 191.7C160 201.3 320 220.7 480 237.7C640 254.7 800 269.3 880 276.7L960 284L960 541L880 541C800 541 640 541 480 541C320 541 160 541 80 541L0 541Z" fill="#6858c5"></path><path d="M0 290L80 278C160 266 320 242 480 226.2C640 210.3 800 202.7 880 198.8L960 195L960 541L880 541C800 541 640 541 480 541C320 541 160 541 80 541L0 541Z" fill="#6552b2"></path><path d="M0 355L80 333.8C160 312.7 320 270.3 480 258C640 245.7 800 263.3 880 272.2L960 281L960 541L880 541C800 541 640 541 480 541C320 541 160 541 80 541L0 541Z" fill="#614ca1"></path><path d="M0 279L80 296.7C160 314.3 320 349.7 480 357.5C640 365.3 800 345.7 880 335.8L960 326L960 541L880 541C800 541 640 541 480 541C320 541 160 541 80 541L0 541Z" fill="#5d478f"></path><path d="M0 407L80 401C160 395 320 383 480 386.2C640 389.3 800 407.7 880 416.8L960 426L960 541L880 541C800 541 640 541 480 541C320 541 160 541 80 541L0 541Z" fill="#57417f"></path><path d="M0 341L80 340.3C160 339.7 320 338.3 480 339.7C640 341 800 345 880 347L960 349L960 541L880 541C800 541 640 541 480 541C320 541 160 541 80 541L0 541Z" fill="#513d6f"></path><path d="M0 393L80 396C160 399 320 405 480 405C640 405 800 399 880 396L960 393L960 541L880 541C800 541 640 541 480 541C320 541 160 541 80 541L0 541Z" fill="#4a385f"></path><path d="M0 442L80 443.7C160 445.3 320 448.7 480 454.7C640 460.7 800 469.3 880 473.7L960 478L960 541L880 541C800 541 640 541 480 541C320 541 160 541 80 541L0 541Z" fill="#423451"></path><path d="M0 496L80 495C160 494 320 492 480 488.8C640 485.7 800 481.3 880 479.2L960 477L960 541L880 541C800 541 640 541 480 541C320 541 160 541 80 541L0 541Z" fill="#3a2f42"></path><path d="M0 491L80 494.3C160 497.7 320 504.3 480 501.3C640 498.3 800 485.7 880 479.3L960 473L960 541L880 541C800 541 640 541 480 541C320 541 160 541 80 541L0 541Z" fill="#312b35"></path></svg>