<svg id="visual" viewBox="0 0 960 540" width="960" height="540" xmlns="http://www.w3.org/2000/svg" xmlns:xlink="http://www.w3.org/1999/xlink" version="1.1"><path d="M0 512L7 510.7C14 509.3 28 506.7 41.8 507.2C55.7 507.7 69.3 511.3 83.2 509.7C97 508 111 501 125 497.7C139 494.3 153 494.7 167 495.7C181 496.7 195 498.3 208.8 498.2C222.7 498 236.3 496 250.2 495.3C264 494.7 278 495.3 292 495.8C306 496.3 320 496.7 334 499.7C348 502.7 362 508.3 375.8 511.2C389.7 514 403.3 514 417.2 511.7C431 509.3 445 504.7 459 503.8C473 503 487 506 501 505.8C515 505.7 529 502.3 542.8 501.3C556.7 500.3 570.3 501.7 584.2 502C598 502.3 612 501.7 626 503.3C640 505 654 509 668 508.7C682 508.3 696 503.7 709.8 504.2C723.7 504.7 737.3 510.3 751.2 510C765 509.7 779 503.3 793 502.5C807 501.7 821 506.3 835 507.8C849 509.3 863 507.7 876.8 507.8C890.7 508 904.3 510 918.2 511.5C932 513 946 514 953 514.5L960 515L960 541L953 541C946 541 932 541 918.2 541C904.3 541 890.7 541 876.8 541C863 541 849 541 835 541C821 541 807 541 793 541C779 541 765 541 751.2 541C737.3 541 723.7 541 709.8 541C696 541 682 541 668 541C654 541 640 541 626 541C612 541 598 541 584.2 541C570.3 541 556.7 541 542.8 541C529 541 515 541 501 541C487 541 473 541 459 541C445 541 431 541 417.2 541C403.3 541 389.7 541 375.8 541C362 541 348 541 334 541C320 541 306 541 292 541C278 541 264 541 250.2 541C236.3 541 222.7 541 208.8 541C195 541 181 541 167 541C153 541 139 541 125 541C111 541 97 541 83.2 541C69.3 541 55.7 541 41.8 541C28 541 14 541 7 541L0 541Z" fill="#6865eb"></path><path d="M0 504L7 504.7C14 505.3 28 506.7 41.8 508C55.7 509.3 69.3 510.7 83.2 509C97 507.3 111 502.7 125 502.7C139 502.7 153 507.3 167 510.2C181 513 195 514 208.8 514.5C222.7 515 236.3 515 250.2 514.3C264 513.7 278 512.3 292 509.8C306 507.3 320 503.7 334 502.3C348 501 362 502 375.8 501.5C389.7 501 403.3 499 417.2 501C431 503 445 509 459 511.2C473 513.3 487 511.7 501 509.8C515 508 529 506 542.8 505C556.7 504 570.3 504 584.2 506.2C598 508.3 612 512.7 626 513.5C640 514.3 654 511.7 668 508.7C682 505.7 696 502.3 709.8 503.5C723.7 504.7 737.3 510.3 751.2 510.7C765 511 779 506 793 504.3C807 502.7 821 504.3 835 504C849 503.7 863 501.3 876.8 501.8C890.7 502.3 904.3 505.7 918.2 507.3C932 509 946 509 953 509L960 509L960 541L953 541C946 541 932 541 918.2 541C904.3 541 890.7 541 876.8 541C863 541 849 541 835 541C821 541 807 541 793 541C779 541 765 541 751.2 541C737.3 541 723.7 541 709.8 541C696 541 682 541 668 541C654 541 640 541 626 541C612 541 598 541 584.2 541C570.3 541 556.7 541 542.8 541C529 541 515 541 501 541C487 541 473 541 459 541C445 541 431 541 417.2 541C403.3 541 389.7 541 375.8 541C362 541 348 541 334 541C320 541 306 541 292 541C278 541 264 541 250.2 541C236.3 541 222.7 541 208.8 541C195 541 181 541 167 541C153 541 139 541 125 541C111 541 97 541 83.2 541C69.3 541 55.7 541 41.8 541C28 541 14 541 7 541L0 541Z" fill="#695ed8"></path><path d="M0 517L7 517.2C14 517.3 28 517.7 41.8 516C55.7 514.3 69.3 510.7 83.2 509.3C97 508 111 509 125 508.8C139 508.7 153 507.3 167 506C181 504.7 195 503.3 208.8 503.8C222.7 504.3 236.3 506.7 250.2 507.2C264 507.7 278 506.3 292 507C306 507.7 320 510.3 334 511.2C348 512 362 511 375.8 510.7C389.7 510.3 403.3 510.7 417.2 511.3C431 512 445 513 459 512.2C473 511.3 487 508.7 501 507.2C515 505.7 529 505.3 542.8 507C556.7 508.7 570.3 512.3 584.2 514.2C598 516 612 516 626 516.3C640 516.7 654 517.3 668 515.5C682 513.7 696 509.3 709.8 509.2C723.7 509 737.3 513 751.2 512.5C765 512 779 507 793 504.5C807 502 821 502 835 504.7C849 507.3 863 512.7 876.8 513.8C890.7 515 904.3 512 918.2 509.8C932 507.7 946 506.3 953 505.7L960 505L960 541L953 541C946 541 932 541 918.2 541C904.3 541 890.7 541 876.8 541C863 541 849 541 835 541C821 541 807 541 793 541C779 541 765 541 751.2 541C737.3 541 723.7 541 709.8 541C696 541 682 541 668 541C654 541 640 541 626 541C612 541 598 541 584.2 541C570.3 541 556.7 541 542.8 541C529 541 515 541 501 541C487 541 473 541 459 541C445 541 431 541 417.2 541C403.3 541 389.7 541 375.8 541C362 541 348 541 334 541C320 541 306 541 292 541C278 541 264 541 250.2 541C236.3 541 222.7 541 208.8 541C195 541 181 541 167 541C153 541 139 541 125 541C111 541 97 541 83.2 541C69.3 541 55.7 541 41.8 541C28 541 14 541 7 541L0 541Z" fill="#6858c5"></path><path d="M0 519L7 517.5C14 516 28 513 41.8 510.8C55.7 508.7 69.3 507.3 83.2 507C97 506.7 111 507.3 125 508.3C139 509.3 153 510.7 167 512C181 513.3 195 514.7 208.8 515.5C222.7 516.3 236.3 516.7 250.2 515C264 513.3 278 509.7 292 508.8C306 508 320 510 334 511.5C348 513 362 514 375.8 514C389.7 514 403.3 513 417.2 512C431 511 445 510 459 508.7C473 507.3 487 505.7 501 507C515 508.3 529 512.7 542.8 514.3C556.7 516 570.3 515 584.2 515.3C598 515.7 612 517.3 626 516.3C640 515.3 654 511.7 668 509.3C682 507 696 506 709.8 508.3C723.7 510.7 737.3 516.3 751.2 516.5C765 516.7 779 511.3 793 510.7C807 510 821 514 835 513.7C849 513.3 863 508.7 876.8 506.5C890.7 504.3 904.3 504.7 918.2 505.3C932 506 946 507 953 507.5L960 508L960 541L953 541C946 541 932 541 918.2 541C904.3 541 890.7 541 876.8 541C863 541 849 541 835 541C821 541 807 541 793 541C779 541 765 541 751.2 541C737.3 541 723.7 541 709.8 541C696 541 682 541 668 541C654 541 640 541 626 541C612 541 598 541 584.2 541C570.3 541 556.7 541 542.8 541C529 541 515 541 501 541C487 541 473 541 459 541C445 541 431 541 417.2 541C403.3 541 389.7 541 375.8 541C362 541 348 541 334 541C320 541 306 541 292 541C278 541 264 541 250.2 541C236.3 541 222.7 541 208.8 541C195 541 181 541 167 541C153 541 139 541 125 541C111 541 97 541 83.2 541C69.3 541 55.7 541 41.8 541C28 541 14 541 7 541L0 541Z" fill="#6552b2"></path><path d="M0 510L7 511.7C14 513.3 28 516.7 41.8 517.8C55.7 519 69.3 518 83.2 516.7C97 515.3 111 513.7 125 512.5C139 511.3 153 510.7 167 510.2C181 509.7 195 509.3 208.8 510.8C222.7 512.3 236.3 515.7 250.2 516.5C264 517.3 278 515.7 292 514.2C306 512.7 320 511.3 334 512.3C348 513.3 362 516.7 375.8 518C389.7 519.3 403.3 518.7 417.2 518C431 517.3 445 516.7 459 517.7C473 518.7 487 521.3 501 522C515 522.7 529 521.3 542.8 519.2C556.7 517 570.3 514 584.2 514C598 514 612 517 626 517.8C640 518.7 654 517.3 668 516.7C682 516 696 516 709.8 516C723.7 516 737.3 516 751.2 516.7C765 517.3 779 518.7 793 519.7C807 520.7 821 521.3 835 521.8C849 522.3 863 522.7 876.8 521.2C890.7 519.7 904.3 516.3 918.2 516.3C932 516.3 946 519.7 953 521.3L960 523L960 541L953 541C946 541 932 541 918.2 541C904.3 541 890.7 541 876.8 541C863 541 849 541 835 541C821 541 807 541 793 541C779 541 765 541 751.2 541C737.3 541 723.7 541 709.8 541C696 541 682 541 668 541C654 541 640 541 626 541C612 541 598 541 584.2 541C570.3 541 556.7 541 542.8 541C529 541 515 541 501 541C487 541 473 541 459 541C445 541 431 541 417.2 541C403.3 541 389.7 541 375.8 541C362 541 348 541 334 541C320 541 306 541 292 541C278 541 264 541 250.2 541C236.3 541 222.7 541 208.8 541C195 541 181 541 167 541C153 541 139 541 125 541C111 541 97 541 83.2 541C69.3 541 55.7 541 41.8 541C28 541 14 541 7 541L0 541Z" fill="#614ca1"></path><path d="M0 513L7 514.7C14 516.3 28 519.7 41.8 520C55.7 520.3 69.3 517.7 83.2 517.7C97 517.7 111 520.3 125 521.7C139 523 153 523 167 523.3C181 523.7 195 524.3 208.8 523.5C222.7 522.7 236.3 520.3 250.2 519.2C264 518 278 518 292 517.7C306 517.3 320 516.7 334 515.8C348 515 362 514 375.8 515.3C389.7 516.7 403.3 520.3 417.2 520.3C431 520.3 445 516.7 459 516.5C473 516.3 487 519.7 501 519.8C515 520 529 517 542.8 517.2C556.7 517.3 570.3 520.7 584.2 521.8C598 523 612 522 626 520.8C640 519.7 654 518.3 668 518.8C682 519.3 696 521.7 709.8 523C723.7 524.3 737.3 524.7 751.2 523.8C765 523 779 521 793 520.3C807 519.7 821 520.3 835 521C849 521.7 863 522.3 876.8 522.3C890.7 522.3 904.3 521.7 918.2 520.3C932 519 946 517 953 516L960 515L960 541L953 541C946 541 932 541 918.2 541C904.3 541 890.7 541 876.8 541C863 541 849 541 835 541C821 541 807 541 793 541C779 541 765 541 751.2 541C737.3 541 723.7 541 709.8 541C696 541 682 541 668 541C654 541 640 541 626 541C612 541 598 541 584.2 541C570.3 541 556.7 541 542.8 541C529 541 515 541 501 541C487 541 473 541 459 541C445 541 431 541 417.2 541C403.3 541 389.7 541 375.8 541C362 541 348 541 334 541C320 541 306 541 292 541C278 541 264 541 250.2 541C236.3 541 222.7 541 208.8 541C195 541 181 541 167 541C153 541 139 541 125 541C111 541 97 541 83.2 541C69.3 541 55.7 541 41.8 541C28 541 14 541 7 541L0 541Z" fill="#5d478f"></path><path d="M0 522L7 521.7C14 521.3 28 520.7 41.8 519.8C55.7 519 69.3 518 83.2 517.7C97 517.3 111 517.7 125 517.8C139 518 153 518 167 518C181 518 195 518 208.8 518C222.7 518 236.3 518 250.2 518.2C264 518.3 278 518.7 292 518.3C306 518 320 517 334 516.7C348 516.3 362 516.7 375.8 517.7C389.7 518.7 403.3 520.3 417.2 520C431 519.7 445 517.3 459 517.3C473 517.3 487 519.7 501 520.3C515 521 529 520 542.8 520.2C556.7 520.3 570.3 521.7 584.2 521.7C598 521.7 612 520.3 626 520.5C640 520.7 654 522.3 668 523.3C682 524.3 696 524.7 709.8 525.3C723.7 526 737.3 527 751.2 527.3C765 527.7 779 527.3 793 525.3C807 523.3 821 519.7 835 517.8C849 516 863 516 876.8 516.2C890.7 516.3 904.3 516.7 918.2 518C932 519.3 946 521.7 953 522.8L960 524L960 541L953 541C946 541 932 541 918.2 541C904.3 541 890.7 541 876.8 541C863 541 849 541 835 541C821 541 807 541 793 541C779 541 765 541 751.2 541C737.3 541 723.7 541 709.8 541C696 541 682 541 668 541C654 541 640 541 626 541C612 541 598 541 584.2 541C570.3 541 556.7 541 542.8 541C529 541 515 541 501 541C487 541 473 541 459 541C445 541 431 541 417.2 541C403.3 541 389.7 541 375.8 541C362 541 348 541 334 541C320 541 306 541 292 541C278 541 264 541 250.2 541C236.3 541 222.7 541 208.8 541C195 541 181 541 167 541C153 541 139 541 125 541C111 541 97 541 83.2 541C69.3 541 55.7 541 41.8 541C28 541 14 541 7 541L0 541Z" fill="#57417f"></path><path d="M0 523L7 523.7C14 524.3 28 525.7 41.8 526C55.7 526.3 69.3 525.7 83.2 525C97 524.3 111 523.7 125 524C139 524.3 153 525.7 167 526C181 526.3 195 525.7 208.8 524.7C222.7 523.7 236.3 522.3 250.2 521.7C264 521 278 521 292 521.5C306 522 320 523 334 524.5C348 526 362 528 375.8 528C389.7 528 403.3 526 417.2 524.5C431 523 445 522 459 522C473 522 487 523 501 524.3C515 525.7 529 527.3 542.8 527.2C556.7 527 570.3 525 584.2 525C598 525 612 527 626 526.3C640 525.7 654 522.3 668 522.3C682 522.3 696 525.7 709.8 526C723.7 526.3 737.3 523.7 751.2 522.8C765 522 779 523 793 523.2C807 523.3 821 522.7 835 523.5C849 524.3 863 526.7 876.8 526.3C890.7 526 904.3 523 918.2 521.7C932 520.3 946 520.7 953 520.8L960 521L960 541L953 541C946 541 932 541 918.2 541C904.3 541 890.7 541 876.8 541C863 541 849 541 835 541C821 541 807 541 793 541C779 541 765 541 751.2 541C737.3 541 723.7 541 709.8 541C696 541 682 541 668 541C654 541 640 541 626 541C612 541 598 541 584.2 541C570.3 541 556.7 541 542.8 541C529 541 515 541 501 541C487 541 473 541 459 541C445 541 431 541 417.2 541C403.3 541 389.7 541 375.8 541C362 541 348 541 334 541C320 541 306 541 292 541C278 541 264 541 250.2 541C236.3 541 222.7 541 208.8 541C195 541 181 541 167 541C153 541 139 541 125 541C111 541 97 541 83.2 541C69.3 541 55.7 541 41.8 541C28 541 14 541 7 541L0 541Z" fill="#513d6f"></path><path d="M0 522L7 523C14 524 28 526 41.8 526.3C55.7 526.7 69.3 525.3 83.2 525.2C97 525 111 526 125 526.2C139 526.3 153 525.7 167 525.5C181 525.3 195 525.7 208.8 526.7C222.7 527.7 236.3 529.3 250.2 528.8C264 528.3 278 525.7 292 525C306 524.3 320 525.7 334 527.2C348 528.7 362 530.3 375.8 530.8C389.7 531.3 403.3 530.7 417.2 530C431 529.3 445 528.7 459 527.3C473 526 487 524 501 524.3C515 524.7 529 527.3 542.8 527.8C556.7 528.3 570.3 526.7 584.2 526.3C598 526 612 527 626 527.3C640 527.7 654 527.3 668 526.8C682 526.3 696 525.7 709.8 526.3C723.7 527 737.3 529 751.2 530C765 531 779 531 793 530C807 529 821 527 835 527C849 527 863 529 876.8 528.8C890.7 528.7 904.3 526.3 918.2 525.7C932 525 946 526 953 526.5L960 527L960 541L953 541C946 541 932 541 918.2 541C904.3 541 890.7 541 876.8 541C863 541 849 541 835 541C821 541 807 541 793 541C779 541 765 541 751.2 541C737.3 541 723.7 541 709.8 541C696 541 682 541 668 541C654 541 640 541 626 541C612 541 598 541 584.2 541C570.3 541 556.7 541 542.8 541C529 541 515 541 501 541C487 541 473 541 459 541C445 541 431 541 417.2 541C403.3 541 389.7 541 375.8 541C362 541 348 541 334 541C320 541 306 541 292 541C278 541 264 541 250.2 541C236.3 541 222.7 541 208.8 541C195 541 181 541 167 541C153 541 139 541 125 541C111 541 97 541 83.2 541C69.3 541 55.7 541 41.8 541C28 541 14 541 7 541L0 541Z" fill="#4a385f"></path><path d="M0 534L7 532.5C14 531 28 528 41.8 527.3C55.7 526.7 69.3 528.3 83.2 528.5C97 528.7 111 527.3 125 527.2C139 527 153 528 167 528.8C181 529.7 195 530.3 208.8 531C222.7 531.7 236.3 532.3 250.2 532.2C264 532 278 531 292 529.8C306 528.7 320 527.3 334 528C348 528.7 362 531.3 375.8 532.3C389.7 533.3 403.3 532.7 417.2 531.3C431 530 445 528 459 526.8C473 525.7 487 525.3 501 526.2C515 527 529 529 542.8 530C556.7 531 570.3 531 584.2 530.8C598 530.7 612 530.3 626 530.2C640 530 654 530 668 530.3C682 530.7 696 531.3 709.8 530.7C723.7 530 737.3 528 751.2 527.5C765 527 779 528 793 529.2C807 530.3 821 531.7 835 531.7C849 531.7 863 530.3 876.8 529.2C890.7 528 904.3 527 918.2 526.7C932 526.3 946 526.7 953 526.8L960 527L960 541L953 541C946 541 932 541 918.2 541C904.3 541 890.7 541 876.8 541C863 541 849 541 835 541C821 541 807 541 793 541C779 541 765 541 751.2 541C737.3 541 723.7 541 709.8 541C696 541 682 541 668 541C654 541 640 541 626 541C612 541 598 541 584.2 541C570.3 541 556.7 541 542.8 541C529 541 515 541 501 541C487 541 473 541 459 541C445 541 431 541 417.2 541C403.3 541 389.7 541 375.8 541C362 541 348 541 334 541C320 541 306 541 292 541C278 541 264 541 250.2 541C236.3 541 222.7 541 208.8 541C195 541 181 541 167 541C153 541 139 541 125 541C111 541 97 541 83.2 541C69.3 541 55.7 541 41.8 541C28 541 14 541 7 541L0 541Z" fill="#423451"></path><path d="M0 535L7 534.7C14 534.3 28 533.7 41.8 533C55.7 532.3 69.3 531.7 83.2 531.3C97 531 111 531 125 530.7C139 530.3 153 529.7 167 530.3C181 531 195 533 208.8 533.5C222.7 534 236.3 533 250.2 532.5C264 532 278 532 292 532.2C306 532.3 320 532.7 334 532.7C348 532.7 362 532.3 375.8 531.8C389.7 531.3 403.3 530.7 417.2 530.7C431 530.7 445 531.3 459 531.3C473 531.3 487 530.7 501 530.7C515 530.7 529 531.3 542.8 532C556.7 532.7 570.3 533.3 584.2 533.5C598 533.7 612 533.3 626 533.2C640 533 654 533 668 532.8C682 532.7 696 532.3 709.8 531.8C723.7 531.3 737.3 530.7 751.2 530.8C765 531 779 532 793 532.2C807 532.3 821 531.7 835 531.7C849 531.7 863 532.3 876.8 532.7C890.7 533 904.3 533 918.2 533.5C932 534 946 535 953 535.5L960 536L960 541L953 541C946 541 932 541 918.2 541C904.3 541 890.7 541 876.8 541C863 541 849 541 835 541C821 541 807 541 793 541C779 541 765 541 751.2 541C737.3 541 723.7 541 709.8 541C696 541 682 541 668 541C654 541 640 541 626 541C612 541 598 541 584.2 541C570.3 541 556.7 541 542.8 541C529 541 515 541 501 541C487 541 473 541 459 541C445 541 431 541 417.2 541C403.3 541 389.7 541 375.8 541C362 541 348 541 334 541C320 541 306 541 292 541C278 541 264 541 250.2 541C236.3 541 222.7 541 208.8 541C195 541 181 541 167 541C153 541 139 541 125 541C111 541 97 541 83.2 541C69.3 541 55.7 541 41.8 541C28 541 14 541 7 541L0 541Z" fill="#3a2f42"></path><path d="M0 536L7 535.3C14 534.7 28 533.3 41.8 533.5C55.7 533.7 69.3 535.3 83.2 535.7C97 536 111 535 125 534.8C139 534.7 153 535.3 167 535.7C181 536 195 536 208.8 535.5C222.7 535 236.3 534 250.2 534.2C264 534.3 278 535.7 292 535.7C306 535.7 320 534.3 334 533.8C348 533.3 362 533.7 375.8 534.3C389.7 535 403.3 536 417.2 535.8C431 535.7 445 534.3 459 533.8C473 533.3 487 533.7 501 533.8C515 534 529 534 542.8 533.8C556.7 533.7 570.3 533.3 584.2 533.3C598 533.3 612 533.7 626 534.2C640 534.7 654 535.3 668 535.8C682 536.3 696 536.7 709.8 536.8C723.7 537 737.3 537 751.2 536.5C765 536 779 535 793 534.8C807 534.7 821 535.3 835 535.2C849 535 863 534 876.8 534C890.7 534 904.3 535 918.2 535.3C932 535.7 946 535.3 953 535.2L960 535L960 541L953 541C946 541 932 541 918.2 541C904.3 541 890.7 541 876.8 541C863 541 849 541 835 541C821 541 807 541 793 541C779 541 765 541 751.2 541C737.3 541 723.7 541 709.8 541C696 541 682 541 668 541C654 541 640 541 626 541C612 541 598 541 584.2 541C570.3 541 556.7 541 542.8 541C529 541 515 541 501 541C487 541 473 541 459 541C445 541 431 541 417.2 541C403.3 541 389.7 541 375.8 541C362 541 348 541 334 541C320 541 306 541 292 541C278 541 264 541 250.2 541C236.3 541 222.7 541 208.8 541C195 541 181 541 167 541C153 541 139 541 125 541C111 541 97 541 83.2 541C69.3 541 55.7 541 41.8 541C28 541 14 541 7 541L0 541Z" fill="#312b35"></path></svg>