<svg width="571" height="218" viewBox="0 0 571 218" fill="none" xmlns="http://www.w3.org/2000/svg">
<path d="M133.596 30.1407C172.596 35.6407 193.596 77.5666 199.596 103.979C195.961 58.0758 120.97 -26.8268 44.0962 25.4756C36.9295 29.9758 19.696 44.0799 8.09609 68.4797C-25.0863 154.113 49.4945 245.356 127.096 194.982C83.7391 206.83 42.0962 197.976 33.0962 159.476C25.2281 125.817 51.0962 88.4756 94.0962 44.4756C109.581 29.6104 127.474 29.1944 133.596 30.1407Z" fill="url(#paint0_radial_235_11)"/>
<path d="M110.655 184.53C72.3204 175.491 55.2368 131.822 51.674 104.973C51.1025 151.016 118.026 242.412 199.355 197.349C206.903 193.522 225.352 181.051 239.132 157.812C279.474 76.6182 215.728 -19.6106 135.314 19.3871L136.897 20.2108C179.293 14.0652 217.294 27.1476 222.547 64.9134C227.308 99.1494 198.138 133.973 151.299 173.862C134.522 187.251 116.665 186.031 110.655 184.53Z" fill="url(#paint1_radial_235_11)"/>
<path d="M322.452 132.713C322.452 134.778 322.452 137.277 322.452 140.211C322.452 143.036 322.289 145.373 321.963 147.22C321.637 149.176 320.876 150.915 319.681 152.436C318.486 153.957 316.856 155.153 314.791 156.022C312.835 156.891 310.499 157.326 307.782 157.326C306.261 157.435 304.685 157.489 303.055 157.489C301.534 157.489 299.904 157.38 298.165 157.163C296.535 156.946 294.796 156.728 292.949 156.511V148.687C293.71 149.013 295.014 149.339 296.861 149.665C298.708 149.991 300.175 150.154 301.262 150.154C304.305 150.154 306.478 149.502 307.782 148.198C309.195 146.894 309.901 144.775 309.901 141.841V82.02H317.888C319.409 82.02 320.496 82.2373 321.148 82.672C321.8 83.1067 322.18 83.7043 322.289 84.465C322.398 85.2257 322.452 86.2037 322.452 87.399V132.713ZM382.264 157C379.221 157 376.668 156.728 374.603 156.185C372.538 155.533 370.963 154.283 369.876 152.436C368.789 150.48 367.92 147.6 367.268 143.797L358.303 82.02H370.039L378.026 139.396C378.569 142.33 379.276 144.286 380.145 145.264C381.014 146.242 382.644 146.731 385.035 146.731H389.762L403.78 82.02H416.005L430.838 146.731H435.891C437.738 146.731 439.151 146.351 440.129 145.59C441.107 144.829 441.759 143.525 442.085 141.678L449.42 82.02H458.711L450.235 144.449C449.8 148.252 448.931 151.078 447.627 152.925C446.323 154.664 444.53 155.805 442.248 156.348C439.966 156.783 437.032 157 433.446 157H423.014L410.626 101.906L409.322 96.038L408.181 102.069L396.445 157H382.264ZM490.497 119.51C490.497 111.795 491.258 105.438 492.779 100.439C494.409 95.4403 496.963 91.5283 500.44 88.703C503.918 85.8777 508.373 83.9217 513.806 82.835C519.348 81.7483 526.031 81.205 533.855 81.205C537.876 81.205 541.734 81.368 545.428 81.694C549.232 81.9113 553.089 82.346 557.001 82.998C560.261 83.5413 562.326 84.302 563.195 85.28C564.173 86.1493 564.662 87.399 564.662 89.029V93.104C562.598 92.126 559.718 91.311 556.023 90.659C552.329 89.8983 548.525 89.355 544.613 89.029C540.701 88.703 537.224 88.54 534.181 88.54C526.575 88.54 520.489 89.4637 515.925 91.311C511.47 93.0497 508.264 96.1467 506.308 100.602C504.352 105.057 503.374 111.36 503.374 119.51C503.374 127.66 504.298 134.017 506.145 138.581C507.993 143.036 511.198 146.188 515.762 148.035C520.435 149.882 526.846 150.806 534.996 150.806C537.93 150.806 541.245 150.643 544.939 150.317C548.634 149.991 552.22 149.502 555.697 148.85C559.175 148.089 562.163 147.329 564.662 146.568V150.317C564.662 151.73 564.173 152.979 563.195 154.066C562.217 155.044 560.044 155.75 556.675 156.185C552.872 156.946 549.069 157.435 545.265 157.652C541.462 157.978 537.55 158.141 533.529 158.141C525.488 158.141 518.696 157.598 513.154 156.511C507.612 155.316 503.157 153.36 499.788 150.643C496.528 147.818 494.138 143.906 492.616 138.907C491.204 133.908 490.497 127.443 490.497 119.51Z" fill="url(#paint2_linear_235_11)"/>
<defs>
<radialGradient id="paint0_radial_235_11" cx="0" cy="0" r="1" gradientUnits="userSpaceOnUse" gradientTransform="translate(154.096 32.9756) rotate(131.694) scale(196.195 195.417)">
<stop stop-color="#88F1EF"/>
<stop offset="0.494792" stop-color="#62E2DE"/>
<stop offset="1" stop-color="#59AEB4"/>
</radialGradient>
<radialGradient id="paint1_radial_235_11" cx="0" cy="0" r="1" gradientUnits="userSpaceOnUse" gradientTransform="translate(90.4997 179.834) rotate(-43.0659) scale(196.195 195.417)">
<stop stop-color="#88F1EF"/>
<stop offset="0.494792" stop-color="#62E2DE"/>
<stop offset="1" stop-color="#59AEB4"/>
</radialGradient>
<linearGradient id="paint2_linear_235_11" x1="285.175" y1="108.766" x2="570.485" y2="108.766" gradientUnits="userSpaceOnUse">
<stop stop-color="#FDFDFD"/>
<stop offset="1" stop-color="#F6FAFA"/>
</linearGradient>
</defs>
</svg>
