<svg width="261" height="218" viewBox="0 0 261 218" fill="none" xmlns="http://www.w3.org/2000/svg">
<path d="M133.596 30.1407C172.596 35.6407 193.596 77.5666 199.596 103.979C195.961 58.0758 120.97 -26.8268 44.0962 25.4756C36.9295 29.9758 19.696 44.0799 8.09609 68.4797C-25.0863 154.113 49.4945 245.356 127.096 194.982C83.7391 206.83 42.0962 197.976 33.0962 159.476C25.2281 125.817 51.0962 88.4756 94.0962 44.4756C109.581 29.6104 127.474 29.1944 133.596 30.1407Z" fill="url(#paint0_radial_235_5)"/>
<path d="M110.655 184.53C72.3204 175.491 55.2368 131.822 51.674 104.973C51.1025 151.016 118.026 242.412 199.355 197.349C206.903 193.522 225.352 181.051 239.132 157.812C279.474 76.6182 215.728 -19.6106 135.314 19.3871L136.897 20.2108C179.293 14.0652 217.294 27.1476 222.547 64.9134C227.308 99.1494 198.138 133.973 151.299 173.862C134.522 187.251 116.665 186.031 110.655 184.53Z" fill="url(#paint1_radial_235_5)"/>
<defs>
<radialGradient id="paint0_radial_235_5" cx="0" cy="0" r="1" gradientUnits="userSpaceOnUse" gradientTransform="translate(154.096 32.9756) rotate(131.694) scale(196.195 195.417)">
<stop stop-color="#88F1EF"/>
<stop offset="0.494792" stop-color="#62E2DE"/>
<stop offset="1" stop-color="#59AEB4"/>
</radialGradient>
<radialGradient id="paint1_radial_235_5" cx="0" cy="0" r="1" gradientUnits="userSpaceOnUse" gradientTransform="translate(90.4997 179.834) rotate(-43.0659) scale(196.195 195.417)">
<stop stop-color="#88F1EF"/>
<stop offset="0.494792" stop-color="#62E2DE"/>
<stop offset="1" stop-color="#59AEB4"/>
</radialGradient>
</defs>
</svg>
