<svg width="571" height="218" viewBox="0 0 571 218" fill="none" xmlns="http://www.w3.org/2000/svg">
<path d="M133.596 30.1402C172.596 35.6402 193.596 77.5662 199.596 103.978C195.961 58.0753 120.97 -26.8273 44.0962 25.4751C36.9295 29.9753 19.696 44.0794 8.09609 68.4792C-25.0863 154.113 49.4945 245.355 127.096 194.982C83.7391 206.829 42.0962 197.975 33.0962 159.475C25.2281 125.817 51.0962 88.4751 94.0962 44.4751C109.581 29.6099 127.474 29.1939 133.596 30.1402Z" fill="url(#paint0_radial_240_18)"/>
<path d="M110.655 184.529C72.3204 175.49 55.2368 131.822 51.674 104.972C51.1025 151.015 118.026 242.412 199.355 197.348C206.903 193.521 225.352 181.05 239.132 157.812C279.474 76.6177 215.728 -19.6111 135.314 19.3866L136.897 20.2103C179.293 14.0647 217.294 27.1472 222.547 64.9129C227.308 99.1489 198.138 133.972 151.299 173.861C134.522 187.25 116.665 186.03 110.655 184.529Z" fill="url(#paint1_radial_240_18)"/>
<path d="M322.452 132.713C322.452 134.777 322.452 137.277 322.452 140.211C322.452 143.036 322.289 145.372 321.963 147.22C321.637 149.176 320.876 150.914 319.681 152.436C318.486 153.957 316.856 155.152 314.791 156.022C312.835 156.891 310.499 157.326 307.782 157.326C306.261 157.434 304.685 157.489 303.055 157.489C301.534 157.489 299.904 157.38 298.165 157.163C296.535 156.945 294.796 156.728 292.949 156.511V148.687C293.71 149.013 295.014 149.339 296.861 149.665C298.708 149.991 300.175 150.154 301.262 150.154C304.305 150.154 306.478 149.502 307.782 148.198C309.195 146.894 309.901 144.775 309.901 141.841V82.0195H317.888C319.409 82.0195 320.496 82.2368 321.148 82.6715C321.8 83.1062 322.18 83.7038 322.289 84.4645C322.398 85.2252 322.452 86.2032 322.452 87.3985V132.713ZM382.264 157C379.221 157 376.668 156.728 374.603 156.185C372.538 155.533 370.963 154.283 369.876 152.436C368.789 150.48 367.92 147.6 367.268 143.797L358.303 82.0195H370.039L378.026 139.396C378.569 142.33 379.276 144.286 380.145 145.264C381.014 146.242 382.644 146.731 385.035 146.731H389.762L403.78 82.0195H416.005L430.838 146.731H435.891C437.738 146.731 439.151 146.35 440.129 145.59C441.107 144.829 441.759 143.525 442.085 141.678L449.42 82.0195H458.711L450.235 144.449C449.8 148.252 448.931 151.077 447.627 152.925C446.323 154.663 444.53 155.804 442.248 156.348C439.966 156.782 437.032 157 433.446 157H423.014L410.626 101.906L409.322 96.0375L408.181 102.069L396.445 157H382.264ZM490.497 119.51C490.497 111.794 491.258 105.437 492.779 100.439C494.409 95.4398 496.963 91.5278 500.44 88.7025C503.918 85.8772 508.373 83.9212 513.806 82.8345C519.348 81.7478 526.031 81.2045 533.855 81.2045C537.876 81.2045 541.734 81.3675 545.428 81.6935C549.232 81.9108 553.089 82.3455 557.001 82.9975C560.261 83.5408 562.326 84.3015 563.195 85.2795C564.173 86.1488 564.662 87.3985 564.662 89.0285V93.1035C562.598 92.1255 559.718 91.3105 556.023 90.6585C552.329 89.8978 548.525 89.3545 544.613 89.0285C540.701 88.7025 537.224 88.5395 534.181 88.5395C526.575 88.5395 520.489 89.4632 515.925 91.3105C511.47 93.0492 508.264 96.1462 506.308 100.602C504.352 105.057 503.374 111.36 503.374 119.51C503.374 127.66 504.298 134.017 506.145 138.581C507.993 143.036 511.198 146.187 515.762 148.035C520.435 149.882 526.846 150.806 534.996 150.806C537.93 150.806 541.245 150.643 544.939 150.317C548.634 149.991 552.22 149.502 555.697 148.85C559.175 148.089 562.163 147.328 564.662 146.568V150.317C564.662 151.729 564.173 152.979 563.195 154.066C562.217 155.044 560.044 155.75 556.675 156.185C552.872 156.945 549.069 157.434 545.265 157.652C541.462 157.978 537.55 158.141 533.529 158.141C525.488 158.141 518.696 157.597 513.154 156.511C507.612 155.315 503.157 153.359 499.788 150.643C496.528 147.817 494.138 143.905 492.616 138.907C491.204 133.908 490.497 127.442 490.497 119.51Z" fill="url(#paint2_linear_240_18)"/>
<defs>
<radialGradient id="paint0_radial_240_18" cx="0" cy="0" r="1" gradientUnits="userSpaceOnUse" gradientTransform="translate(154.096 32.9751) rotate(131.694) scale(196.195 195.417)">
<stop stop-color="#88F1EF"/>
<stop offset="0.494792" stop-color="#62E2DE"/>
<stop offset="1" stop-color="#59AEB4"/>
</radialGradient>
<radialGradient id="paint1_radial_240_18" cx="0" cy="0" r="1" gradientUnits="userSpaceOnUse" gradientTransform="translate(90.4997 179.834) rotate(-43.0659) scale(196.195 195.417)">
<stop stop-color="#88F1EF"/>
<stop offset="0.494792" stop-color="#62E2DE"/>
<stop offset="1" stop-color="#59AEB4"/>
</radialGradient>
<linearGradient id="paint2_linear_240_18" x1="285.175" y1="108.765" x2="570.485" y2="108.765" gradientUnits="userSpaceOnUse">
<stop stop-color="#131515"/>
<stop offset="1" stop-color="#323838"/>
</linearGradient>
</defs>
</svg>
